<?xml version="1.0" encoding="UTF-8" standalone="no"?>
<svg
   xmlns:dc="http://purl.org/dc/elements/1.1/"
   xmlns:cc="http://creativecommons.org/ns#"
   xmlns:rdf="http://www.w3.org/1999/02/22-rdf-syntax-ns#"
   xmlns:svg="http://www.w3.org/2000/svg"
   xmlns="http://www.w3.org/2000/svg"
   width="200"
   height="200"
   viewBox="0 0 52.916665 52.916668"
   version="1.1"
   id="svg871">
  <defs
     id="defs865">
    <marker
       style="overflow:visible"
       id="marker1835"
       refX="0.0"
       refY="0.0"
       orient="auto">
      <path
         transform="scale(0.8) translate(12.5,0)"
         style="fill-rule:evenodd;stroke:#000000;stroke-width:1.0pt"
         d="M 0.0,0.0 L 5.0,-5.0 L -12.5,0.0 L 5.0,5.0 L 0.0,0.0 z "
         id="path1833" />
    </marker>
    <marker
       style="overflow:visible"
       id="marker1813"
       refX="0.0"
       refY="0.0"
       orient="auto">
      <path
         transform="scale(0.8) translate(12.5,0)"
         style="fill-rule:evenodd;stroke:#000000;stroke-width:1.0pt"
         d="M 0.0,0.0 L 5.0,-5.0 L -12.5,0.0 L 5.0,5.0 L 0.0,0.0 z "
         id="path1811" />
    </marker>
    <marker
       style="overflow:visible"
       id="marker1797"
       refX="0.0"
       refY="0.0"
       orient="auto">
      <path
         transform="scale(0.8) translate(12.5,0)"
         style="fill-rule:evenodd;stroke:#000000;stroke-width:1.0pt"
         d="M 0.0,0.0 L 5.0,-5.0 L -12.5,0.0 L 5.0,5.0 L 0.0,0.0 z "
         id="path1795" />
    </marker>
    <marker
       style="overflow:visible"
       id="Arrow1Lstart"
       refX="0.0"
       refY="0.0"
       orient="auto">
      <path
         transform="scale(0.8) translate(12.5,0)"
         style="fill-rule:evenodd;stroke:#000000;stroke-width:1.0pt"
         d="M 0.0,0.0 L 5.0,-5.0 L -12.5,0.0 L 5.0,5.0 L 0.0,0.0 z "
         id="path1525" />
    </marker>
    <rect
       x="63.672427"
       y="80.077325"
       width="93.552958"
       height="78.357871"
       id="rect1521" />
    <rect
       x="-35.456863"
       y="47.917857"
       width="102.51818"
       height="82.785147"
       id="rect1473" />
    <rect
       x="-9.0714285"
       y="-5.6696428"
       width="78.997024"
       height="84.28869"
       id="rect1456" />
    <rect
       x="7.4835467"
       y="9.621703"
       width="38.486812"
       height="35.814117"
       id="rect1450" />
  </defs>
  <metadata
     id="metadata868">
    <rdf:RDF>
      <cc:Work
         rdf:about="">
        <dc:format>image/svg+xml</dc:format>
        <dc:type
           rdf:resource="http://purl.org/dc/dcmitype/StillImage" />
        <dc:title></dc:title>
      </cc:Work>
    </rdf:RDF>
  </metadata>
  <g
     id="layer1">
    <text
       xml:space="preserve"
       id="text1448"
       style="font-size:35.27777767px;line-height:1.25;font-family:Miriam;-inkscape-font-specification:Miriam;white-space:pre;shape-inside:url(#rect1450);"><tspan
         style="visibility:hidden"
         x="7.484375"
         y="75.95319"><tspan
           dx="0 21.170113"
           style="font-size:35.2778px">Ai</tspan></tspan></text>
  </g>
  <g
     id="layer2">
    <g
       aria-label="Ai"
       transform="matrix(0.77168541,0,0,0.82003188,20.412536,10.685231)"
       id="text1454"
       style="font-size:45.8611px;line-height:1.25;font-family:Miriam;-inkscape-font-specification:Miriam;white-space:pre;shape-inside:url(#rect1456);stroke:none;stroke-opacity:1;fill:#2b2b2f;fill-opacity:1" />
    <g
       id="g1021"
       style="font-size:45.8611px;line-height:1.25;font-family:Miriam;-inkscape-font-specification:Miriam;white-space:pre;shape-inside:url(#rect1456);stroke:none;stroke-opacity:1;fill:#2b2b2f;fill-opacity:1;clip-rule:evenodd;fill-rule:evenodd;image-rendering:optimizeQuality;shape-rendering:geometricPrecision;text-rendering:geometricPrecision"
       transform="matrix(0.04859694,0,0,0.04859694,4.4643087,2.3953844)">
      <g
         id="g4"
         style="fill:#d9d9d9;fill-opacity:1">
        <path
           style="opacity:1;fill:#d9d9d9;fill-opacity:1"
           fill="#010101"
           d="m 423.5,-0.5 c 15,0 30,0 45,0 44.053,2.06423 87.386,9.23089 130,21.5 87.907,27.6075 155.407,80.774 202.5,159.5 16.822,30.464 28.488,62.797 35,97 3.085,25.298 5.752,50.631 8,76 0.667,1.333 1.333,2.667 2,4 5.209,4.878 10.709,9.378 16.5,13.5 36.879,39.327 49.379,85.494 37.5,138.5 -13.629,37.763 -36.795,68.263 -69.5,91.5 -7.672,5.171 -15.672,9.838 -24,14 -3.13,2.128 -5.963,4.628 -8.5,7.5 -11.572,41.474 -26.239,81.808 -44,121 -41.834,83.832 -103,149.666 -183.5,197.5 -25.96,14.647 -53.293,25.98 -82,34 -9.394,2.067 -18.727,3.567 -28,4.5 -7.667,0 -15.333,0 -23,0 C 393.921,972.693 352.921,958.193 314.5,936 194.229,867.604 124.395,764.438 105,626.5 104.161,621.321 101.661,617.154 97.5,614 67.835,599.008 43.0016,578.175 23,551.5 7.15416,529.119 -0.345837,504.119 0.5,476.5 0.152877,441.706 10.6529,410.706 32,383.5 41.0875,374.298 51.0875,366.298 62,359.5 58.7664,255.862 94.2664,168.362 168.5,97 229.456,45.5392 299.789,14.5392 379.5,4 c 14.808,-1.62819 29.475,-3.128187 44,-4.5 z"
           id="path2" />
      </g>
      <g
         id="g8"
         style="fill:#2b2b2b;fill-opacity:1">
        <path
           style="opacity:1;fill:#2b2b2b;fill-opacity:1"
           fill="#bdbdbd"
           d="m 389.5,70.5 c 44.024,-0.3858 88.024,0.4476 132,2.5 4.372,0.4215 8.705,1.0881 13,2 4.677,3.1894 6.844,7.6894 6.5,13.5 0.667,12.333 0.667,24.667 0,37 -0.007,6.686 -2.007,12.686 -6,18 -5.833,5.833 -11.667,11.667 -17.5,17.5 -43.667,0.667 -87.333,0.667 -131,0 -5.833,-5.833 -11.667,-11.667 -17.5,-17.5 -2.434,-3.295 -4.101,-6.962 -5,-11 -1.546,-15.297 -1.879,-30.631 -1,-46 0.119,-4.4056 1.953,-7.9056 5.5,-10.5 6.953,-2.4813 13.953,-4.3147 21,-5.5 z"
           id="path6" />
      </g>
      <g
         id="g12"
         style="fill:#2b2b2b;fill-opacity:1">
        <path
           style="opacity:1;fill:#2b2b2b;fill-opacity:1"
           fill="#bdbdbd"
           d="m 555.5,80.5 c 43.801,10.5327 83.801,29.033 120,55.5 1.833,1.833 3.667,3.667 5.5,5.5 0.667,2 0.667,4 0,6 -2.29,3.08 -4.457,6.247 -6.5,9.5 -2.217,1.275 -4.551,2.275 -7,3 -30.642,1.594 -61.308,1.927 -92,1 -6.532,-6.198 -12.699,-12.698 -18.5,-19.5 -1.562,-2.457 -2.562,-5.124 -3,-8 -1.509,-13.966 -1.842,-27.966 -1,-42 0.236,-3.8443 1.07,-7.511 2.5,-11 z"
           id="path10" />
      </g>
      <g
         id="g16"
         style="fill:#2b2b2b;fill-opacity:1">
        <path
           style="opacity:1;fill:#2b2b2b;fill-opacity:1"
           fill="#bdbdbd"
           d="m 341.5,80.5 c 3.971,-0.7423 6.804,0.591 8.5,4 1.557,14.2922 1.891,28.626 1,43 -0.403,4.946 -1.736,9.613 -4,14 -5.801,6.802 -11.968,13.302 -18.5,19.5 -29.333,0.667 -58.667,0.667 -88,0 -9.774,-1.382 -15.774,-6.882 -18,-16.5 0.077,-1.799 0.577,-3.466 1.5,-5 35.585,-26.709 74.752,-46.3761 117.5,-59 z"
           id="path14" />
      </g>
      <g
         id="g20"
         style="fill:#2b2b2b;fill-opacity:1">
        <path
           style="opacity:1;fill:#2b2b2b;fill-opacity:1"
           fill="#bebebe"
           d="m 229.5,173.5 c 33.002,-0.167 66.002,0 99,0.5 7.5,7.5 15,15 22.5,22.5 0.667,31 0.667,62 0,93 -7.5,7.5 -15,15 -22.5,22.5 -32.333,0.667 -64.667,0.667 -97,0 -7.5,-7.5 -15,-15 -22.5,-22.5 -0.667,-28.667 -0.667,-57.333 0,-86 0.91,-5.151 2.91,-9.818 6,-14 5.41,-4.905 10.243,-10.238 14.5,-16 z"
           id="path18" />
      </g>
      <g
         id="g24"
         style="fill:#2b2b2b;fill-opacity:1">
        <path
           style="opacity:1;fill:#2b2b2b;fill-opacity:1"
           fill="#bdbdbd"
           d="m 383.5,173.5 c 45.335,-0.167 90.668,0 136,0.5 5.167,5.167 10.333,10.333 15.5,15.5 2.478,3.289 4.144,6.956 5,11 1.544,23.644 1.877,47.31 1,71 0.771,9.59 -1.563,18.257 -7,26 -4.833,4.833 -9.667,9.667 -14.5,14.5 -45,0.667 -90,0.667 -135,0 -4.833,-4.833 -9.667,-9.667 -14.5,-14.5 -5.437,-7.743 -7.771,-16.41 -7,-26 -0.667,-19.333 -0.667,-38.667 0,-58 -0.617,-9.205 1.717,-17.538 7,-25 5.078,-4.572 9.578,-9.572 13.5,-15 z"
           id="path22" />
      </g>
      <g
         id="g28"
         style="fill:#2b2b2b;fill-opacity:1">
        <path
           style="opacity:1;fill:#2b2b2b;fill-opacity:1"
           fill="#bebebe"
           d="m 573.5,173.5 c 33.002,-0.167 66.002,0 99,0.5 7.5,7.5 15,15 22.5,22.5 0.667,31 0.667,62 0,93 -7.5,7.5 -15,15 -22.5,22.5 -32,0.667 -64,0.667 -96,0 -8.095,-7.05 -15.761,-14.55 -23,-22.5 -0.333,-13.667 -0.667,-27.333 -1,-41 -0.11,-16.033 0.39,-32.033 1.5,-48 1.059,-3.118 2.392,-6.118 4,-9 5.376,-5.872 10.543,-11.872 15.5,-18 z"
           id="path26" />
      </g>
      <g
         id="g32"
         style="fill:#2b2b2b;fill-opacity:1">
        <path
           style="opacity:1;fill:#2b2b2b;fill-opacity:1"
           fill="#bebebe"
           d="m 182.5,185.5 c 8.685,0.848 14.185,5.515 16.5,14 1.601,29.972 1.935,59.972 1,90 -4.5,4.5 -9,9 -13.5,13.5 -3.864,3.432 -8.198,6.099 -13,8 -13.971,1.721 -27.971,1.888 -42,0.5 5.424,-42.058 19.258,-81.058 41.5,-117 3.062,-3.232 6.229,-6.232 9.5,-9 z"
           id="path30" />
      </g>
      <g
         id="g36"
         style="fill:#2b2b2b;fill-opacity:1">
        <path
           style="opacity:1;fill:#2b2b2b;fill-opacity:1"
           fill="#bdbdbd"
           d="m 716.5,185.5 c 3.926,-0.453 7.092,0.88 9.5,4 25.344,37.178 41.177,78.178 47.5,123 -14.725,0.432 -29.392,-0.068 -44,-1.5 -9.672,-5.663 -18.172,-12.83 -25.5,-21.5 -0.667,-27.333 -0.667,-54.667 0,-82 -0.186,-9.976 3.98,-17.31 12.5,-22 z"
           id="path34" />
      </g>
      <g
         id="g40"
         style="fill:#2b2b2b;fill-opacity:1">
        <path
           style="opacity:1;fill:#2b2b2b;fill-opacity:1"
           fill="#606060"
           d="m 160.5,324.5 c -10,0 -20,0 -30,0 0,1 0,2 0,3 -0.934,-1.068 -1.268,-2.401 -1,-4 10.514,-0.328 20.847,0.006 31,1 z"
           id="path38" />
      </g>
      <g
         id="g44"
         style="fill:#2b2b2b;fill-opacity:1">
        <path
           style="opacity:1;fill:#2b2b2b;fill-opacity:1"
           fill="#5e5e5e"
           d="m 738.5,324.5 c 11.822,-0.995 23.822,-1.328 36,-1 0.284,1.915 -0.049,3.581 -1,5 0,-1.333 0,-2.667 0,-4 -11.667,0 -23.333,0 -35,0 z"
           id="path42" />
      </g>
      <g
         id="g48"
         style="fill:#2b2b2b;fill-opacity:1">
        <path
           style="opacity:1;fill:#2b2b2b;fill-opacity:1"
           fill="#bebebe"
           d="m 160.5,324.5 c 5.88,-0.452 11.547,0.382 17,2.5 3.095,4.185 6.428,8.185 10,12 5.236,1.057 9.07,3.891 11.5,8.5 1.621,31.299 1.954,62.632 1,94 -7.136,6.135 -13.969,12.635 -20.5,19.5 -4.435,3.368 -9.435,5.368 -15,6 -11.37,0.174 -22.703,0.841 -34,2 -1.41,0.368 -2.41,1.201 -3,2.5 2.382,1.571 5.049,2.404 8,2.5 8,0.333 16,0.667 24,1 8.399,-0.091 15.733,2.576 22,8 6.167,6.167 12.333,12.333 18.5,18.5 0.944,30.364 0.611,60.697 -1,91 -0.36,2.108 -1.027,4.108 -2,6 -3.972,1.821 -7.639,4.155 -11,7 -1.908,2.715 -3.241,5.715 -4,9 -3.677,4.249 -6.343,3.582 -8,-2 -1.774,-8.313 -3.441,-16.646 -5,-25 -2.681,-10.343 -8.181,-18.843 -16.5,-25.5 -11.966,-5.325 -23.966,-10.659 -36,-16 -14.724,-9.391 -27.5577,-20.891 -38.5,-34.5 -9.4269,-16.66 -11.7603,-34.326 -7,-53 2.4476,-10.013 6.4476,-19.346 12,-28 3.2508,-3.922 7.0841,-7.088 11.5,-9.5 11.264,-3.304 21.764,-8.137 31.5,-14.5 4.3,-5.561 6.633,-11.895 7,-19 0.42,-20.048 -0.414,-40.048 -2.5,-60 0,-1 0,-2 0,-3 10,0 20,0 30,0 z"
           id="path46" />
      </g>
      <g
         id="g52"
         style="fill:#2b2b2b;fill-opacity:1">
        <path
           style="opacity:1;fill:#2b2b2b;fill-opacity:1"
           fill="#bdbdbd"
           d="m 351.5,348.5 c -0.673,35.569 -1.34,71.236 -2,107 -25.469,-9.054 -49.469,-6.221 -72,8.5 -11.448,3.31 -23.115,4.31 -35,3 -4.428,-0.697 -8.428,-2.363 -12,-5 -7.47,-6.468 -14.636,-13.302 -21.5,-20.5 -0.667,-30.333 -0.667,-60.667 0,-91 0.36,-2.108 1.027,-4.108 2,-6 3.815,-2.164 7.649,-4.331 11.5,-6.5 3,-3.667 6,-7.333 9,-11 6.84,-1.99 13.84,-2.99 21,-3 25,-0.667 50,-0.667 75,0 8.202,8.035 16.202,16.202 24,24.5 z"
           id="path50" />
      </g>
      <g
         id="g56"
         style="fill:#2b2b2b;fill-opacity:1">
        <path
           style="opacity:1;fill:#2b2b2b;fill-opacity:1"
           fill="#bdbdbd"
           d="m 384.5,324.5 c 44.668,-0.167 89.335,0 134,0.5 7.5,7.5 15,15 22.5,22.5 0.5,39.999 0.667,79.999 0.5,120 -59.667,0 -119.333,0 -179,0 -0.167,-40.001 0,-80.001 0.5,-120 7.739,-7.235 14.905,-14.902 21.5,-23 z"
           id="path54" />
      </g>
      <g
         id="g60"
         style="fill:#2b2b2b;fill-opacity:1">
        <path
           style="opacity:1;fill:#2b2b2b;fill-opacity:1"
           fill="#bebebe"
           d="m 573.5,324.5 c 31.696,-0.438 63.362,0.062 95,1.5 5.073,1.406 8.573,4.572 10.5,9.5 3.472,3.607 7.639,6.107 12.5,7.5 2.104,2.042 3.271,4.542 3.5,7.5 0.667,30.333 0.667,60.667 0,91 -7.942,8.948 -16.775,16.781 -26.5,23.5 -20.993,5.933 -40.326,2.6 -58,-10 -19.438,-6.161 -38.772,-5.994 -58,0.5 -0.167,-32.335 0,-64.668 0.5,-97 0.528,-4.443 1.528,-8.777 3,-13 5.668,-7.165 11.501,-14.165 17.5,-21 z"
           id="path58" />
      </g>
      <g
         id="g64"
         style="fill:#2b2b2b;fill-opacity:1">
        <path
           style="opacity:1;fill:#2b2b2b;fill-opacity:1"
           fill="#bebebe"
           d="m 738.5,324.5 c 11.667,0 23.333,0 35,0 0,1.333 0,2.667 0,4 -1.066,15.661 -2.066,31.328 -3,47 -2.287,12.717 1.713,22.884 12,30.5 3.672,2.838 7.672,5.171 12,7 16.603,3.924 28.437,13.757 35.5,29.5 11.694,37.406 2.527,68.573 -27.5,93.5 -13.884,10.61 -29.217,18.61 -46,24 -9.221,4.888 -16.055,12.055 -20.5,21.5 -2.919,9.928 -5.586,19.928 -8,30 -0.756,3.292 -2.589,4.292 -5.5,3 -1.101,-4.038 -3.101,-7.538 -6,-10.5 -3.278,-1.648 -6.445,-3.481 -9.5,-5.5 -0.973,-1.892 -1.64,-3.892 -2,-6 -1.602,-30.306 -1.935,-60.639 -1,-91 8.274,-9.28 17.441,-17.447 27.5,-24.5 3.253,-1.036 6.586,-1.703 10,-2 9.333,-0.333 18.667,-0.667 28,-1 2.51,-0.376 4.843,-1.21 7,-2.5 -0.209,-0.586 -0.543,-1.086 -1,-1.5 -2.667,-0.667 -5.333,-1.333 -8,-2 -11.382,-0.116 -22.715,-0.783 -34,-2 -3.161,-1.413 -6.161,-3.08 -9,-5 -6.531,-6.865 -13.364,-13.365 -20.5,-19.5 -0.954,-31.034 -0.62,-62.034 1,-93 1.983,-5.309 5.816,-8.476 11.5,-9.5 3.572,-3.815 6.905,-7.815 10,-12 3.798,-1.783 7.798,-2.616 12,-2.5 z"
           id="path62" />
      </g>
      <g
         id="g68"
         style="fill:#2b2b2b;fill-opacity:1">
        <path
           style="opacity:1;fill:#2b2b2b;fill-opacity:1"
           fill="#e5e5e5"
           d="m 351.5,348.5 c 0.66,36.016 -0.006,71.682 -2,107 0.66,-35.764 1.327,-71.431 2,-107 z"
           id="path66" />
      </g>
      <g
         id="g72"
         style="fill:#2b2b2b;fill-opacity:1">
        <path
           style="opacity:1;fill:#2b2b2b;fill-opacity:1"
           fill="#bdbdbd"
           d="m 239.5,475.5 c 8.007,-0.166 16.007,0 24,0.5 0.5,0.5 1,1 1.5,1.5 -11.085,26.825 -7.419,51.492 11,74 14.639,14.546 32.139,20.046 52.5,16.5 7.648,-2.328 15.314,-4.494 23,-6.5 0.166,8.34 0,16.673 -0.5,25 -0.91,5.151 -2.91,9.818 -6,14 -5.833,5.833 -11.667,11.667 -17.5,17.5 -28.667,0.667 -57.333,0.667 -86,0 -8.684,0.914 -14.518,-2.586 -17.5,-10.5 -2.687,-3.694 -6.187,-6.194 -10.5,-7.5 -1.987,-1.319 -3.154,-3.152 -3.5,-5.5 -1.613,-31.303 -1.946,-62.636 -1,-94 6.167,-6.167 12.333,-12.333 18.5,-18.5 3.647,-2.987 7.647,-5.154 12,-6.5 z"
           id="path70" />
      </g>
      <g
         id="g76"
         style="fill:#2b2b2b;fill-opacity:1">
        <path
           style="opacity:1;fill:#2b2b2b;fill-opacity:1"
           fill="#bdbdbd"
           d="m 398.5,474.5 c 41.013,-0.355 82.013,0.145 123,1.5 3.403,0.1 6.57,0.934 9.5,2.5 -1.445,6.219 -2.778,12.552 -4,19 -1.502,12.98 -0.168,25.646 4,38 11.23,19.828 13.23,40.494 6,62 -6.135,7.136 -12.635,13.969 -19.5,20.5 -43.667,0.667 -87.333,0.667 -131,0 -8.284,-7.278 -15.451,-15.444 -21.5,-24.5 -4.989,-20.409 -2.322,-39.742 8,-58 6.154,-18.57 5.988,-37.07 -0.5,-55.5 1.501,-2.59 3.835,-3.923 7,-4 6.513,-0.172 12.847,-0.672 19,-1.5 z"
           id="path74" />
      </g>
      <g
         id="g80"
         style="fill:#2b2b2b;fill-opacity:1">
        <path
           style="opacity:1;fill:#2b2b2b;fill-opacity:1"
           fill="#bebebe"
           d="m 640.5,475.5 c 9.068,-0.381 18.068,0.119 27,1.5 2.496,1.08 4.83,2.414 7,4 6.531,6.865 13.364,13.365 20.5,19.5 0.938,31.361 0.604,62.694 -1,94 -1.549,4.542 -4.716,7.375 -9.5,8.5 -3.741,3.498 -6.741,7.498 -9,12 -5.161,1.797 -10.495,2.797 -16,3 -27.667,0.667 -55.333,0.667 -83,0 -8.284,-7.278 -15.451,-15.444 -21.5,-24.5 -0.92,-2.601 -1.587,-5.268 -2,-8 -0.5,-7.993 -0.666,-15.993 -0.5,-24 7.328,2.052 14.661,4.219 22,6.5 28.159,4.169 49.326,-5.997 63.5,-30.5 9.286,-19.282 9.786,-38.782 1.5,-58.5 0.148,-1.256 0.482,-2.423 1,-3.5 z"
           id="path78" />
      </g>
      <g
         id="g92"
         style="fill:#2b2b2b;fill-opacity:1">
        <path
           style="opacity:1;fill:#2b2b2b;fill-opacity:1"
           fill="#bdbdbd"
           d="m 242.5,629.5 c 28.335,-0.167 56.669,0 85,0.5 7.833,7.833 15.667,15.667 23.5,23.5 0.667,31 0.667,62 0,93 -8.833,8.833 -17.667,17.667 -26.5,26.5 -31.005,0.833 -62.005,0.667 -93,-0.5 -7.601,-10.868 -14.434,-22.201 -20.5,-34 -0.774,-3.647 -1.441,-7.314 -2,-11 -0.667,-23.667 -0.667,-47.333 0,-71 0.715,-5.715 3.882,-9.215 9.5,-10.5 4.313,-3.648 7.646,-7.981 10,-13 4.638,-1.777 9.305,-2.944 14,-3.5 z"
           id="path90" />
      </g>
      <g
         id="g96"
         style="fill:#2b2b2b;fill-opacity:1">
        <path
           style="opacity:1;fill:#2b2b2b;fill-opacity:1"
           fill="#bcbcbc"
           d="m 425.5,629.5 c 30.668,-0.167 61.335,0 92,0.5 7.833,7.833 15.667,15.667 23.5,23.5 0.887,30.019 0.554,60.019 -1,90 -0.803,2.744 -1.803,5.411 -3,8 -7.638,4.302 -13.138,10.469 -16.5,18.5 -7.202,1.862 -14.535,2.862 -22,3 -36.019,0.916 -72.019,0.583 -108,-1 -7.018,-0.683 -11.185,-4.516 -12.5,-11.5 -3.086,-3.757 -6.752,-6.757 -11,-9 -2.624,-7.072 -3.957,-14.405 -4,-22 -0.667,-19.667 -0.667,-39.333 0,-59 0.105,-6.16 1.105,-12.16 3,-18 5.076,-7.747 10.909,-14.913 17.5,-21.5 14.173,-0.169 28.173,-0.669 42,-1.5 z"
           id="path94" />
      </g>
      <g
         id="g100"
         style="fill:#2b2b2b;fill-opacity:1">
        <path
           style="opacity:1;fill:#2b2b2b;fill-opacity:1"
           fill="#bebebe"
           d="m 573.5,630.5 c 32.002,-0.167 64.002,0 96,0.5 5.715,0.715 9.215,3.882 10.5,9.5 1.833,1.833 3.667,3.667 5.5,5.5 5.618,1.285 8.785,4.785 9.5,10.5 0.912,17.372 0.579,34.706 -1,52 -2.117,6.236 -4.784,12.236 -8,18 -8.582,14.833 -17.415,29.499 -26.5,44 -26.653,1.599 -53.319,2.432 -80,2.5 -8.833,-8.833 -17.667,-17.667 -26.5,-26.5 -0.951,-29.701 -0.618,-59.368 1,-89 0.803,-2.744 1.803,-5.411 3,-8 5.709,-6.205 11.209,-12.539 16.5,-19 z"
           id="path98" />
      </g>
      <g
         id="g104"
         style="fill:#2b2b2b;fill-opacity:1">
        <path
           style="opacity:1;fill:#2b2b2b;fill-opacity:1"
           fill="#bdbdbd"
           d="m 199.5,658.5 c 0.33,18.508 -0.003,36.841 -1,55 -10.52,-25.241 -17.853,-51.408 -22,-78.5 -0.396,-5.829 1.104,-6.662 4.5,-2.5 1.481,3.456 3.148,6.789 5,10 3.862,2.927 7.862,5.593 12,8 1.079,2.563 1.579,5.229 1.5,8 z"
           id="path102" />
      </g>
      <g
         id="g108"
         style="fill:#2b2b2b;fill-opacity:1">
        <path
           style="opacity:1;fill:#2b2b2b;fill-opacity:1"
           fill="#bdbdbd"
           d="m 705.5,684.5 c -0.993,-8.818 -1.327,-17.818 -1,-27 0.449,-8.113 4.782,-12.113 13,-12 0.164,2.687 -0.003,5.354 -0.5,8 -3.291,10.573 -7.124,20.906 -11.5,31 z"
           id="path106" />
      </g>
      <g
         id="g112"
         style="fill:#2b2b2b;fill-opacity:1">
        <path
           style="opacity:1;fill:#2b2b2b;fill-opacity:1"
           fill="#686868"
           d="m 704.5,657.5 c -0.327,9.182 0.007,18.182 1,27 -0.06,0.543 -0.393,0.876 -1,1 -1.322,-9.492 -1.322,-18.825 0,-28 z"
           id="path110" />
      </g>
      <g
         id="g116"
         style="fill:#2b2b2b;fill-opacity:1">
        <path
           style="opacity:1;fill:#2b2b2b;fill-opacity:1"
           fill="#919191"
           d="m 199.5,658.5 c 1.162,19.162 1.329,38.496 0.5,58 -0.513,-1.027 -1.013,-2.027 -1.5,-3 0.997,-18.159 1.33,-36.492 1,-55 z"
           id="path114" />
      </g>
      <g
         id="g120"
         style="fill:#2b2b2b;fill-opacity:1">
        <path
           style="opacity:1;fill:#2b2b2b;fill-opacity:1"
           fill="#bdbdbd"
           d="m 257.5,780.5 c 22.688,-0.327 45.355,0.173 68,1.5 2.108,0.36 4.108,1.027 6,2 2.019,3.055 3.852,6.222 5.5,9.5 3.361,2.845 7.028,5.179 11,7 1.846,3.069 2.846,6.402 3,10 0.934,22.065 0.434,44.065 -1.5,66 -0.5,0.333 -1,0.667 -1.5,1 -11.251,-5.707 -21.751,-12.54 -31.5,-20.5 -24.355,-19.013 -47.522,-39.513 -69.5,-61.5 -2.333,-3 -4.667,-6 -7,-9 -0.667,-1 -0.667,-2 0,-3 5.859,-1.429 11.692,-2.429 17.5,-3 z"
           id="path118" />
      </g>
      <g
         id="g124"
         style="fill:#2b2b2b;fill-opacity:1">
        <path
           style="opacity:1;fill:#2b2b2b;fill-opacity:1"
           fill="#bdbdbd"
           d="m 583.5,780.5 c 22.01,-0.333 44.01,0 66,1 -11.028,15.202 -23.361,29.368 -37,42.5 -15.628,14.141 -31.628,27.807 -48,41 -2.612,1.889 -5.445,3.389 -8.5,4.5 -0.945,-0.405 -1.612,-1.072 -2,-2 -1.785,-21.025 -1.785,-42.025 0,-63 0.346,-2.348 1.513,-4.181 3.5,-5.5 3.707,-0.936 6.874,-2.769 9.5,-5.5 1.648,-3.278 3.481,-6.445 5.5,-9.5 3.661,-1.593 7.328,-2.759 11,-3.5 z"
           id="path122" />
      </g>
      <g
         id="g128"
         style="fill:#2b2b2b;fill-opacity:1">
        <path
           style="opacity:1;fill:#2b2b2b;fill-opacity:1"
           fill="#bdbdbd"
           d="m 413.5,780.5 c 34.668,-0.167 69.335,0 104,0.5 5.5,5.5 11,11 16.5,16.5 3.054,3.442 5.054,7.442 6,12 1.403,23.638 1.903,47.304 1.5,71 -16.067,7.698 -32.4,14.865 -49,21.5 -13.581,5.216 -27.581,8.716 -42,10.5 -28.461,-4.448 -55.794,-12.615 -82,-24.5 -2.438,-2.295 -3.938,-5.128 -4.5,-8.5 -1.482,-19.979 -1.815,-39.979 -1,-60 0.084,-5.517 1.084,-10.851 3,-16 5.076,-7.747 10.909,-14.913 17.5,-21.5 10.175,-0.17 20.175,-0.67 30,-1.5 z"
           id="path126" />
      </g>
    </g>
  </g>
</svg>
