<?xml version="1.0" encoding="UTF-8" standalone="no"?>
<svg
   xmlns:dc="http://purl.org/dc/elements/1.1/"
   xmlns:cc="http://creativecommons.org/ns#"
   xmlns:rdf="http://www.w3.org/1999/02/22-rdf-syntax-ns#"
   xmlns:svg="http://www.w3.org/2000/svg"
   xmlns="http://www.w3.org/2000/svg"
   width="200"
   height="200"
   viewBox="0 0 52.916665 52.916668"
   version="1.1"
   id="svg871">
  <defs
     id="defs865">
    <marker
       style="overflow:visible"
       id="marker1835"
       refX="0.0"
       refY="0.0"
       orient="auto">
      <path
         transform="scale(0.8) translate(12.5,0)"
         style="fill-rule:evenodd;stroke:#000000;stroke-width:1.0pt"
         d="M 0.0,0.0 L 5.0,-5.0 L -12.5,0.0 L 5.0,5.0 L 0.0,0.0 z "
         id="path1833" />
    </marker>
    <marker
       style="overflow:visible"
       id="marker1813"
       refX="0.0"
       refY="0.0"
       orient="auto">
      <path
         transform="scale(0.8) translate(12.5,0)"
         style="fill-rule:evenodd;stroke:#000000;stroke-width:1.0pt"
         d="M 0.0,0.0 L 5.0,-5.0 L -12.5,0.0 L 5.0,5.0 L 0.0,0.0 z "
         id="path1811" />
    </marker>
    <marker
       style="overflow:visible"
       id="marker1797"
       refX="0.0"
       refY="0.0"
       orient="auto">
      <path
         transform="scale(0.8) translate(12.5,0)"
         style="fill-rule:evenodd;stroke:#000000;stroke-width:1.0pt"
         d="M 0.0,0.0 L 5.0,-5.0 L -12.5,0.0 L 5.0,5.0 L 0.0,0.0 z "
         id="path1795" />
    </marker>
    <marker
       style="overflow:visible"
       id="Arrow1Lstart"
       refX="0.0"
       refY="0.0"
       orient="auto">
      <path
         transform="scale(0.8) translate(12.5,0)"
         style="fill-rule:evenodd;stroke:#000000;stroke-width:1.0pt"
         d="M 0.0,0.0 L 5.0,-5.0 L -12.5,0.0 L 5.0,5.0 L 0.0,0.0 z "
         id="path1525" />
    </marker>
    <rect
       x="63.672427"
       y="80.077325"
       width="93.552958"
       height="78.357871"
       id="rect1521" />
    <rect
       x="-35.456863"
       y="47.917857"
       width="102.51818"
       height="82.785147"
       id="rect1473" />
    <rect
       x="-9.0714285"
       y="-5.6696428"
       width="78.997024"
       height="84.28869"
       id="rect1456" />
    <rect
       x="7.4835467"
       y="9.621703"
       width="38.486812"
       height="35.814117"
       id="rect1450" />
  </defs>
  <metadata
     id="metadata868">
    <rdf:RDF>
      <cc:Work
         rdf:about="">
        <dc:format>image/svg+xml</dc:format>
        <dc:type
           rdf:resource="http://purl.org/dc/dcmitype/StillImage" />
        <dc:title></dc:title>
      </cc:Work>
    </rdf:RDF>
  </metadata>
  <g
     id="layer1">
    <text
       xml:space="preserve"
       id="text1448"
       style="font-size:35.27777767px;line-height:1.25;font-family:Miriam;-inkscape-font-specification:Miriam;white-space:pre;shape-inside:url(#rect1450);"><tspan
         style="visibility:hidden"
         x="7.484375"
         y="75.95319"><tspan
           dx="0 21.170113"
           style="font-size:35.2778px">Ai</tspan></tspan></text>
  </g>
  <g
     id="layer2">
    <g
       aria-label="Ai"
       transform="matrix(0.77168541,0,0,0.82003188,20.412536,10.685231)"
       id="text1454"
       style="font-size:45.8611px;line-height:1.25;font-family:Miriam;-inkscape-font-specification:Miriam;white-space:pre;shape-inside:url(#rect1456);stroke:none;stroke-opacity:1;fill:#2b2b2f;fill-opacity:1" />
    <g
       id="g1021"
       style="font-size:45.8611px;line-height:1.25;font-family:Miriam;-inkscape-font-specification:Miriam;white-space:pre;shape-inside:url(#rect1456);stroke:none;stroke-opacity:1;fill:#2b2b2f;fill-opacity:1;clip-rule:evenodd;fill-rule:evenodd;image-rendering:optimizeQuality;shape-rendering:geometricPrecision;text-rendering:geometricPrecision"
       transform="matrix(0.04859694,0,0,0.04859694,4.4643087,2.3953844)">
      <g
         id="g7390"
         style="clip-rule:evenodd;fill-rule:evenodd;image-rendering:optimizeQuality;shape-rendering:geometricPrecision;text-rendering:geometricPrecision;fill:#d9d9d9;fill-opacity:1"
         transform="matrix(2.1030042,0,0,3.234234,-482.20493,-250.50164)">
        <g
           id="g1804"
           style="clip-rule:evenodd;fill-rule:evenodd;image-rendering:optimizeQuality;shape-rendering:geometricPrecision;text-rendering:geometricPrecision;fill:#d9d9d9;fill-opacity:1">
          <path
             style="opacity:1;fill:#d9d9d9;fill-opacity:1"
             fill="#010101"
             d="m 299.5,108.5 c 96.667,0 193.333,0 290,0 -0.333,15.681 10e-4,31.348 1,47 1.69,-2.019 3.356,-4.019 5,-6 1.372,-1.012 2.705,-2.012 4,-3 4.707,-4.01 9.374,-8.01 14,-12 0.333,0 0.667,0 1,0 2.524,-1.427 5.19,-2.594 8,-3.5 16.009,-0.611 32.009,-0.444 48,0.5 0.333,0 0.667,0 1,0 1.765,0.961 3.765,1.295 6,1 0,5.667 0,11.333 0,17 -9.182,-0.327 -18.182,0.007 -27,1 -5.195,-0.321 -10.195,0.013 -15,1 -1.935,0.65 -3.935,0.983 -6,1 -6.284,1.617 -10.284,5.617 -12,12 -4.488,9.667 -8.488,19.667 -12,30 -1.74,3.591 -3.74,7.091 -6,10.5 -3.188,1.316 -6.522,1.816 -10,1.5 0,36 0,72 0,108 -0.146,4.019 -0.479,8.019 -1,12 -6.136,16.802 -17.803,27.802 -35,33 -1.667,0 -3.333,0 -5,0 -4,0 -8,0 -12,0 0.332,-64.835 -10e-4,-129.502 -1,-194 -1.699,-0.16 -3.366,0.006 -5,0.5 -6.824,7.293 -11.49,15.793 -14,25.5 -2.582,5.651 -4.249,11.651 -5,18 -2.403,8.063 -4.07,16.396 -5,25 -1.539,6.437 -2.206,13.104 -2,20 -0.973,2.448 -1.306,5.115 -1,8 -1.904,15.311 -2.237,30.644 -1,46 2.291,1.265 4.625,2.598 7,4 1,0.667 2,1.333 3,2 3.629,5.375 4.962,11.375 4,18 -0.256,3.098 -0.922,6.098 -2,9 -0.99,5.81 -1.323,11.81 -1,18 -13.667,0 -27.333,0 -41,0 0.33,-18.174 -0.003,-36.174 -1,-54 -2.755,-11.897 -3.421,-23.897 -2,-36 2.132,-4.925 4.798,-9.592 8,-14 1.333,-0.667 2.333,-1.667 3,-3 3.368,-3.404 5.701,-7.404 7,-12 1.386,-2.715 2.053,-5.715 2,-9 -0.347,-5.189 -1.014,-10.189 -2,-15 -1.302,-15.718 -2.969,-31.385 -5,-47 -2.333,0 -4.667,0 -7,0 0.809,11.982 1.142,23.982 1,36 0.786,10.982 1.119,21.982 1,33 -2.667,0 -5.333,0 -8,0 0,-4.667 0,-9.333 0,-14 0,-5 0,-10 0,-15 0,-5 0,-10 0,-15 0,-8.333 0,-16.667 0,-25 -1.915,-0.284 -3.581,0.049 -5,1 -0.997,22.494 -1.331,45.161 -1,68 -2,0 -4,0 -6,0 0,-14.667 0,-29.333 0,-44 0,-8.333 0,-16.667 0,-25 -2.235,-0.295 -4.235,0.039 -6,1 -0.997,22.494 -1.331,45.161 -1,68 -2.333,0 -4.667,0 -7,0 0,-1.333 0,-2.667 0,-4 0,-3.333 0,-6.667 0,-10 0.553,-4.982 0.887,-9.982 1,-15 -0.111,-13.348 0.223,-26.681 1,-40 -2.292,-0.256 -4.459,0.077 -6.5,1 -0.499,3.986 -0.666,7.986 -0.5,12 -0.878,3.836 -1.544,7.836 -2,12 -0.903,2.891 -1.236,5.891 -1,9 -2.623,11.735 -3.456,23.735 -2.5,36 2.759,6.509 6.759,12.176 12,17 3.017,4.034 5.517,8.367 7.5,13 1.541,4.865 2.208,9.865 2,15 -0.585,5.015 -1.252,10.015 -2,15 -0.958,1.802 -1.625,3.802 -2,6 -0.997,17.826 -1.33,35.826 -1,54 0,0.333 0,0.667 0,1 -5,0 -10,0 -15,0 -5,0 -10,0 -15,0 -5,0 -10,0 -15,0 -3.542,0.313 -6.875,-0.021 -10,-1 0,-15 0,-30 0,-45 0.164,-2.687 -0.003,-5.354 -0.5,-8 -2.562,-7.179 -4.395,-14.512 -5.5,-22 0,-5 0,-10 0,-15 0.841,-1.879 1.175,-3.879 1,-6 0.864,-1.188 1.864,-2.355 3,-3.5 3.133,-0.86 5.8,-2.36 8,-4.5 1.667,-1 3,-2.333 4,-4 4.457,-2.918 7.457,-6.918 9,-12 1.953,-2.641 3.453,-5.641 4.5,-9 0.494,-1.634 0.66,-3.301 0.5,-5 0.722,-0.418 1.222,-1.084 1.5,-2 0.816,-5.184 0.65,-10.184 -0.5,-15 0.377,-4.953 -0.289,-9.619 -2,-14 -3.298,-15.629 -12.631,-25.296 -28,-29 -5,-1.333 -10,-1.333 -15,0 -15.123,4.46 -24.456,14.46 -28,30 -0.65,1.935 -0.983,3.935 -1,6 -0.665,3.317 -0.999,6.817 -1,10.5 -0.174,5.421 0.493,10.587 2,15.5 3.507,15.334 12.34,26.334 26.5,33 1.604,2.959 2.771,5.959 3.5,9 0,3.333 0,6.667 0,10 -0.823,9.946 -2.823,19.613 -6,29 -0.997,16.825 -1.33,33.825 -1,51 -10,0 -20,0 -30,0 -8.919,-1.126 -16.919,-4.459 -24,-10 -1.667,-2.333 -3.667,-4.333 -6,-6 -6.438,-8.554 -9.771,-18.221 -10,-29 0,-35 0,-70 0,-105 0,-1 0,-2 0,-3 -3.018,0.165 -6.018,-0.002 -9,-0.5 -1.801,-2.443 -3.468,-4.943 -5,-7.5 -0.16,-1.653 -0.826,-2.986 -2,-4 -1.234,-5.383 -3.234,-10.383 -6,-15 -2.347,-9.562 -6.681,-18.062 -13,-25.5 -3.226,-1.199 -6.559,-1.699 -10,-1.5 0,-0.667 -0.333,-1 -1,-1 -5.475,-0.989 -11.142,-1.322 -17,-1 -8.517,0.326 -16.85,-0.007 -25,-1 0,-5.667 0,-11.333 0,-17 1.915,0.284 3.581,-0.049 5,-1 2.885,0.306 5.552,-0.027 8,-1 14.363,-0.264 28.696,0.069 43,1 2.478,1.383 5.145,2.383 8,3 2.708,2.709 5.708,5.042 9,7 2.38,3.381 5.38,6.047 9,8 1.644,1.981 3.31,3.981 5,6 0.999,-15.652 1.333,-31.319 1,-47 z"
             id="path1802" />
        </g>
        <path
           style="opacity:1;fill:#d9d9d9;fill-opacity:1"
           fill="#0f0f0f"
           d="m 360.5,222.5 c 0,0.667 0,1.333 0,2 1.609,5.159 3.609,10.159 6,15 1.834,3.979 3.334,7.979 4.5,12 -8.386,-7.463 -14.22,-16.463 -17.5,-27 0,-5 0,-10 0,-15 1.475,-4.894 2.808,-9.894 4,-15 0.722,-0.418 1.222,-1.084 1.5,-2 0.17,10.175 0.67,20.175 1.5,30 z"
           id="path2586" />
      </g>
    </g>
  </g>
</svg>
