<?xml version="1.0" encoding="UTF-8" standalone="no"?>
<svg
   xmlns:dc="http://purl.org/dc/elements/1.1/"
   xmlns:cc="http://creativecommons.org/ns#"
   xmlns:rdf="http://www.w3.org/1999/02/22-rdf-syntax-ns#"
   xmlns:svg="http://www.w3.org/2000/svg"
   xmlns="http://www.w3.org/2000/svg"
   xmlns:sodipodi="http://sodipodi.sourceforge.net/DTD/sodipodi-0.dtd"
   xmlns:inkscape="http://www.inkscape.org/namespaces/inkscape"
   width="200"
   height="200"
   viewBox="0 0 52.916665 52.916668"
   version="1.1"
   id="svg871"
   inkscape:version="1.0.2-2 (e86c870879, 2021-01-15)"
   sodipodi:docname="coding.svg">
  <defs
     id="defs865">
    <marker
       style="overflow:visible"
       id="marker1835"
       refX="0.0"
       refY="0.0"
       orient="auto"
       inkscape:stockid="Arrow1Lstart"
       inkscape:isstock="true">
      <path
         transform="scale(0.8) translate(12.5,0)"
         style="fill-rule:evenodd;stroke:#000000;stroke-width:1.0pt"
         d="M 0.0,0.0 L 5.0,-5.0 L -12.5,0.0 L 5.0,5.0 L 0.0,0.0 z "
         id="path1833" />
    </marker>
    <marker
       style="overflow:visible"
       id="marker1813"
       refX="0.0"
       refY="0.0"
       orient="auto"
       inkscape:stockid="Arrow1Lstart"
       inkscape:isstock="true">
      <path
         transform="scale(0.8) translate(12.5,0)"
         style="fill-rule:evenodd;stroke:#000000;stroke-width:1.0pt"
         d="M 0.0,0.0 L 5.0,-5.0 L -12.5,0.0 L 5.0,5.0 L 0.0,0.0 z "
         id="path1811" />
    </marker>
    <marker
       style="overflow:visible"
       id="marker1797"
       refX="0.0"
       refY="0.0"
       orient="auto"
       inkscape:stockid="Arrow1Lstart"
       inkscape:isstock="true">
      <path
         transform="scale(0.8) translate(12.5,0)"
         style="fill-rule:evenodd;stroke:#000000;stroke-width:1.0pt"
         d="M 0.0,0.0 L 5.0,-5.0 L -12.5,0.0 L 5.0,5.0 L 0.0,0.0 z "
         id="path1795" />
    </marker>
    <marker
       style="overflow:visible"
       id="Arrow1Lstart"
       refX="0.0"
       refY="0.0"
       orient="auto"
       inkscape:stockid="Arrow1Lstart"
       inkscape:isstock="true">
      <path
         transform="scale(0.8) translate(12.5,0)"
         style="fill-rule:evenodd;stroke:#000000;stroke-width:1.0pt"
         d="M 0.0,0.0 L 5.0,-5.0 L -12.5,0.0 L 5.0,5.0 L 0.0,0.0 z "
         id="path1525" />
    </marker>
    <rect
       x="63.672427"
       y="80.077325"
       width="93.552958"
       height="78.357871"
       id="rect1521" />
    <rect
       x="-35.456863"
       y="47.917857"
       width="102.51818"
       height="82.785147"
       id="rect1473" />
    <rect
       x="-9.0714285"
       y="-5.6696428"
       width="78.997024"
       height="84.28869"
       id="rect1456" />
    <rect
       x="7.4835467"
       y="9.621703"
       width="38.486812"
       height="35.814117"
       id="rect1450" />
  </defs>
  <sodipodi:namedview
     id="base"
     pagecolor="#ffffff"
     bordercolor="#666666"
     borderopacity="1.0"
     inkscape:pageopacity="0.0"
     inkscape:pageshadow="2"
     inkscape:zoom="0.98994949"
     inkscape:cx="104.10266"
     inkscape:cy="199.31839"
     inkscape:document-units="px"
     inkscape:current-layer="g1021"
     inkscape:document-rotation="0"
     showgrid="false"
     units="px"
     inkscape:window-width="1304"
     inkscape:window-height="746"
     inkscape:window-x="-8"
     inkscape:window-y="-8"
     inkscape:window-maximized="1" />
  <metadata
     id="metadata868">
    <rdf:RDF>
      <cc:Work
         rdf:about="">
        <dc:format>image/svg+xml</dc:format>
        <dc:type
           rdf:resource="http://purl.org/dc/dcmitype/StillImage" />
        <dc:title></dc:title>
      </cc:Work>
    </rdf:RDF>
  </metadata>
  <g
     inkscape:label="Capa 1"
     inkscape:groupmode="layer"
     id="layer1">
    <text
       xml:space="preserve"
       id="text1448"
       style="font-size:35.27777767px;line-height:1.25;font-family:Miriam;-inkscape-font-specification:Miriam;white-space:pre;shape-inside:url(#rect1450);"><tspan
         style="visibility:hidden"
         x="7.484375"
         y="75.95319"><tspan
           dx="0 21.170113"
           style="font-size:35.2778px">Ai</tspan></tspan></text>
  </g>
  <g
     inkscape:groupmode="layer"
     id="layer2"
     inkscape:label="Capa 2">
    <g
       aria-label="Ai"
       transform="matrix(0.77168541,0,0,0.82003188,20.412536,10.685231)"
       id="text1454"
       style="font-size:45.8611px;line-height:1.25;font-family:Miriam;-inkscape-font-specification:Miriam;white-space:pre;shape-inside:url(#rect1456);stroke:none;stroke-opacity:1;fill:#2b2b2f;fill-opacity:1" />
    <g
       id="g1021"
       style="font-size:45.8611px;line-height:1.25;font-family:Miriam;-inkscape-font-specification:Miriam;white-space:pre;shape-inside:url(#rect1456);stroke:none;stroke-opacity:1;fill:#2b2b2f;fill-opacity:1;clip-rule:evenodd;fill-rule:evenodd;image-rendering:optimizeQuality;shape-rendering:geometricPrecision;text-rendering:geometricPrecision"
       transform="matrix(0.04859694,0,0,0.04859694,4.4643087,2.3953844)">
      <g
         id="g2397"
         transform="matrix(0.25,0,0,0.25,254.85202,249.99049)">
        <path
           d="m 1518.2764,98.143572 c 0,-408.858292 -331.4423,-740.278822 -740.28974,-740.278822 -408.84741,0 -740.267942,331.42053 -740.267942,740.278822 0,408.825638 331.420532,740.257058 740.267942,740.257058 408.84194,0 740.28974,-331.43142 740.28974,-740.257058 z"
           id="path4"
           style="fill:#d9d9d9;fill-opacity:1;stroke-width:5.44187" />
        <path
           d="m 2524.1672,2634.6627 c 1.785,-0.4843 3.5481,-1.0176 5.3167,-1.5183 2.7536,-0.7836 5.4963,-1.5237 8.2173,-2.3835 1.9264,-0.5932 3.8474,-1.2843 5.7792,-1.9373 2.6665,-0.9088 5.3439,-1.7795 8.005,-2.7482 1.9863,-0.7564 3.9671,-1.5563 5.9534,-2.3617 2.5414,-0.985 5.0936,-1.9645 7.5914,-3.0148 2.019,-0.8816 4.0379,-1.8503 6.0677,-2.7482 2.3999,-1.0883 4.8378,-2.1604 7.2268,-3.3141 1.9754,-0.9632 3.9562,-2.0134 5.9316,-3.0474 2.3836,-1.2244 4.7725,-2.389 7.1234,-3.7059 1.8612,-1.0068 3.7005,-2.1223 5.5399,-3.1672 2.4325,-1.3931 4.8595,-2.7862 7.2485,-4.2283 1.6924,-1.0503 3.3577,-2.1659 5.0392,-3.2434 2.4978,-1.6053 5.0065,-3.2107 7.4608,-4.8759 1.54,-1.0775 3.0583,-2.1876 4.582,-3.2597 2.5523,-1.823 5.0719,-3.6134 7.5588,-5.5343 1.4475,-1.0884 2.8787,-2.2475 4.3372,-3.374 2.4651,-1.9482 4.9085,-3.9453 7.3138,-5.9588 0.566,-0.4735 1.17,-0.9197 1.7523,-1.4095 0.936,-0.8163 1.8067,-1.6543 2.7318,-2.4651 2.1768,-1.8884 4.3372,-3.8311 6.4432,-5.7793 1.6979,-1.5836 3.3903,-3.1889 5.0609,-4.8215 1.7197,-1.6706 3.4556,-3.3848 5.1208,-5.1099 1.9319,-1.97 3.8257,-3.9182 5.6868,-5.9262 1.3169,-1.4203 2.623,-2.8515 3.9018,-4.3045 2.0951,-2.34 4.1358,-4.6691 6.1221,-7.069 1.0122,-1.1863 1.9972,-2.3835 2.9767,-3.5971 2.1495,-2.6338 4.2501,-5.2949 6.2799,-7.9886 0.8054,-1.0612 1.5836,-2.1441 2.389,-3.2162 2.0842,-2.8406 4.1358,-5.6922 6.1112,-8.6036 0.7455,-1.0666 1.4693,-2.1822 2.1985,-3.2814 1.9156,-2.9114 3.793,-5.801 5.5997,-8.7288 0.7945,-1.3006 1.5618,-2.6066 2.3509,-3.9453 1.638,-2.7373 3.2433,-5.5017 4.7943,-8.2825 0.936,-1.6979 1.8284,-3.4447 2.7427,-5.1698 1.2625,-2.4162 2.5413,-4.8487 3.744,-7.3139 1.0938,-2.2475 2.1549,-4.4841 3.178,-6.786 0.9251,-1.9591 1.8611,-3.9562 2.7101,-5.9479 1.2244,-2.7863 2.3617,-5.6106 3.4882,-8.4349 0.6041,-1.5455 1.2353,-3.0584 1.8067,-4.5821 1.2462,-3.2651 2.3835,-6.5302 3.51,-9.8552 0.3918,-1.1863 0.8163,-2.3346 1.2027,-3.5155 1.1482,-3.5426 2.2202,-7.1342 3.2651,-10.7476 0.2775,-0.9959 0.5659,-1.9646 0.8271,-2.955 1.0013,-3.6624 1.9156,-7.3519 2.7754,-11.047 0.234,-1.0121 0.4789,-2.0298 0.702,-3.0583 0.7945,-3.5535 1.4965,-7.1397 2.1659,-10.7422 0.2231,-1.268 0.4571,-2.5305 0.6802,-3.793 0.5659,-3.3141 1.0503,-6.6554 1.5074,-9.9967 0.2231,-1.6544 0.4245,-3.2978 0.6367,-4.9412 0.3374,-2.9767 0.6476,-5.9534 0.9142,-8.9519 0.1905,-2.1278 0.3374,-4.261 0.5007,-6.4105 0.1687,-2.574 0.321,-5.1535 0.4244,-7.7492 0.1089,-2.6067 0.1579,-5.1807 0.2123,-7.7765 0.022,-1.4094 0.098,-2.808 0.098,-4.212 0,-0.8761 -0.054,-1.7305 -0.054,-2.6012 -0.022,-2.8243 -0.1088,-5.6214 -0.2122,-8.4294 -0.065,-2.1605 -0.1361,-4.3318 -0.2667,-6.465 -0.1469,-2.7427 -0.37,-5.5071 -0.6149,-8.2498 -0.1796,-2.2258 -0.3592,-4.4515 -0.5823,-6.6609 -0.2775,-2.5522 -0.6258,-5.1045 -0.9686,-7.6349 -0.3211,-2.3836 -0.6041,-4.7562 -0.9796,-7.0962 -0.3483,-2.3346 -0.8054,-4.631 -1.2462,-6.933 -0.4571,-2.5413 -0.8815,-5.099 -1.4257,-7.6186 -0.4354,-2.0951 -0.9469,-4.1739 -1.4367,-6.269 -0.6258,-2.672 -1.2135,-5.3711 -1.8938,-8.0104 -0.5333,-1.9863 -1.1482,-3.9726 -1.6978,-5.9698 -0.7673,-2.6991 -1.4965,-5.3928 -2.34,-8.0539 -0.6258,-2.0244 -1.3605,-4.0161 -2.0407,-6.0242 -0.8598,-2.6012 -1.6979,-5.1806 -2.6556,-7.7546 -0.7891,-2.1006 -1.6381,-4.1794 -2.4761,-6.2908 -0.9469,-2.3944 -1.872,-4.8378 -2.8896,-7.2323 -0.9143,-2.1495 -1.9264,-4.2882 -2.8897,-6.4322 -1.0502,-2.2911 -2.0515,-4.6039 -3.1345,-6.8514 -1.0394,-2.1223 -2.155,-4.2174 -3.2324,-6.3343 -1.17,-2.2257 -2.2856,-4.5004 -3.51,-6.6989 -1.0939,-1.9917 -2.2747,-3.9617 -3.4121,-5.9534 -1.3169,-2.2856 -2.6121,-4.5603 -3.9726,-6.835 -1.1373,-1.8122 -2.34,-3.5916 -3.4991,-5.3929 -1.5183,-2.389 -3.0311,-4.7507 -4.6256,-7.0635 -1.1482,-1.6979 -2.3509,-3.3141 -3.5154,-4.9848 -1.7088,-2.3944 -3.4338,-4.778 -5.2079,-7.1397 -1.2135,-1.5836 -2.476,-3.1454 -3.744,-4.729 -1.8284,-2.3128 -3.6678,-4.6256 -5.5561,-6.9003 -0.5333,-0.6149 -1.0231,-1.2788 -1.5618,-1.8992 l -954.721,-1118.0423 c -59.3055,-69.44365 -143.551,-104.87564 -228.2482,-104.66885 v 414.52325 h 128.5858 c 84.2836,0 152.8729,68.5893 152.8729,152.862 v 652.0608 c 82.33,51.4637 137.1296,142.8707 137.1296,247.1151 0,99.3522 -49.7659,187.0206 -125.6853,239.5836 h -160.6494 c 47.2028,-11.4605 82.2974,-53.9017 82.2974,-104.6199 V 1521.578 c 0,-59.5286 -48.2639,-107.7925 -107.7871,-107.7925 H -17.396503 c -59.523133,0 -107.776157,48.253 -107.776157,107.7925 v 1008.4594 c 0,50.7073 35.083708,93.1484 82.281014,104.6199 H -203.53009 c -75.92492,-52.563 -125.69623,-140.2424 -125.69623,-239.5836 0,-104.2444 54.80503,-195.6514 137.13503,-247.1097 v -652.0662 c 0,-84.2673 68.56751,-152.862 152.856578,-152.862 H 89.362028 V 928.04449 H 76.443037 v 0.60405 c -80.2892935,3.25968 -159.043981,38.62092 -215.329207,104.52736 l -954.69923,1118.0913 c -0.5279,0.6095 -1.0176,1.2734 -1.5401,1.8992 -1.8937,2.2747 -3.744,4.5875 -5.5887,6.9003 -1.2408,1.5836 -2.5033,3.1454 -3.7168,4.729 -1.7795,2.3617 -3.4992,4.7344 -5.2025,7.1397 -1.1917,1.6706 -2.3889,3.2869 -3.5317,4.9847 -1.5891,2.3128 -3.1073,4.6637 -4.6256,7.0636 -1.1646,1.8012 -2.3564,3.5807 -3.4774,5.3929 -1.3713,2.2747 -2.6774,4.5494 -3.9943,6.835 -1.1428,1.9917 -2.3237,3.9616 -3.4121,5.9534 -1.2081,2.1985 -2.3345,4.4732 -3.4882,6.6989 -1.0829,2.1169 -2.2094,4.212 -3.2488,6.3343 -1.0775,2.2475 -2.0842,4.5603 -3.1236,6.8513 -0.985,2.1441 -1.9917,4.2828 -2.9114,6.4323 -1.0176,2.3944 -1.9264,4.8378 -2.8896,7.2323 -0.8218,2.1223 -1.6979,4.1956 -2.4761,6.2908 -0.9414,2.574 -1.7849,5.1534 -2.6611,7.7546 -0.6802,2.0081 -1.3931,3.9998 -2.0407,6.0242 -0.8326,2.661 -1.5727,5.3548 -2.3345,8.0539 -0.566,1.9863 -1.1755,3.978 -1.6925,5.9697 -0.6856,2.6285 -1.2842,5.3276 -1.8992,8.0105 -0.4897,2.106 -1.0176,4.1848 -1.4529,6.269 -0.5279,2.5305 -0.9578,5.0882 -1.4149,7.6186 -0.4299,2.3128 -0.8762,4.6093 -1.2408,6.933 -0.3537,2.34 -0.6639,4.7072 -0.9632,7.0961 -0.3374,2.5414 -0.6965,5.0936 -0.9632,7.635 -0.2449,2.1985 -0.4081,4.4242 -0.5986,6.6608 -0.2231,2.7427 -0.4571,5.5072 -0.6204,8.2499 -0.1142,2.1387 -0.1796,4.2991 -0.2557,6.4649 -0.098,2.808 -0.1959,5.6052 -0.2068,8.4295 -0.011,0.8598 -0.06,1.7087 -0.06,2.6012 0,1.4149 0.087,2.8134 0.1034,4.212 0.043,2.5958 0.1088,5.1589 0.2068,7.7764 0.1088,2.5958 0.2558,5.1752 0.4299,7.7492 0.1361,2.1496 0.3102,4.2828 0.4898,6.4106 0.2666,2.9984 0.5768,5.9751 0.9196,8.9518 0.2068,1.6435 0.4191,3.2869 0.6367,4.9413 0.4572,3.3413 0.9633,6.6826 1.5183,9.9967 0.2123,1.2625 0.4517,2.525 0.6803,3.7929 0.6639,3.5917 1.3659,7.1833 2.1604,10.7423 0.2231,1.0285 0.4843,2.057 0.7074,3.0583 0.8598,3.7059 1.7795,7.3846 2.7699,11.047 0.2721,0.9904 0.566,1.9591 0.8435,2.9549 1.0177,3.6134 2.0897,7.1942 3.2543,10.7477 0.3863,1.1863 0.7945,2.3346 1.1754,3.5155 1.1374,3.3141 2.2801,6.5901 3.5209,9.8552 0.5768,1.5128 1.2026,3.0365 1.8012,4.582 1.132,2.8244 2.2693,5.6487 3.4774,8.4349 0.8761,1.9918 1.7958,3.978 2.71,5.948 1.0503,2.3019 2.0897,4.5385 3.189,6.786 1.2026,2.4652 2.476,4.8868 3.7494,7.3139 0.9088,1.725 1.8122,3.4719 2.7482,5.1697 1.5291,2.7917 3.1454,5.5562 4.7725,8.2826 0.7836,1.3278 1.5564,2.6338 2.3618,3.9453 1.7958,2.9277 3.6895,5.8174 5.6051,8.7288 0.7237,1.0883 1.4475,2.2039 2.1822,3.2814 1.9862,2.9114 4.0433,5.7629 6.133,8.6036 0.7945,1.072 1.5781,2.155 2.378,3.2161 2.0353,2.6938 4.1413,5.344 6.2963,7.9887 0.985,1.2244 1.9591,2.4108 2.9549,3.5971 2.0026,2.389 4.0433,4.729 6.1221,7.069 1.2952,1.4529 2.5958,2.8842 3.9073,4.3045 1.8611,2.008 3.744,3.9562 5.6704,5.9262 1.6924,1.725 3.4175,3.4501 5.1426,5.1099 1.6706,1.6325 3.3358,3.2379 5.0555,4.8215 2.1168,1.9427 4.2718,3.8964 6.454,5.7792 0.9306,0.8109 1.7958,1.6489 2.7264,2.4652 0.5932,0.4898 1.1809,0.936 1.7577,1.4094 2.3999,2.0135 4.8433,3.9998 7.3248,5.9589 1.4257,1.1265 2.8678,2.2856 4.3208,3.3739 2.4761,1.921 5.012,3.7114 7.5479,5.5344 1.5291,1.0612 3.042,2.1713 4.5984,3.2597 2.4488,1.6707 4.9412,3.276 7.4499,4.8759 1.6706,1.0666 3.3413,2.1822 5.0391,3.2434 2.3781,1.4529 4.8161,2.8352 7.2377,4.2283 1.8502,1.0448 3.6842,2.1604 5.5453,3.1672 2.3509,1.306 4.7398,2.4815 7.1234,3.7059 1.9699,1.023 3.93445,2.0842 5.93161,3.0474 2.3781,1.1537 4.80517,2.2257 7.2268,3.3141 2.02438,0.8979 4.03787,1.8666 6.07312,2.7482 2.49238,1.0339 5.03917,2.0298 7.56964,3.0148 1.99172,0.7945 3.97256,1.6053 5.96429,2.3617 2.64474,0.9687 5.32758,1.8394 8.00498,2.7482 1.92642,0.653 3.84196,1.3441 5.79015,1.9373 2.69916,0.8489 5.44186,1.5999 8.19545,2.3835 1.7686,0.5115 3.53721,1.034 5.32214,1.5183 H -1386.864 v 172.1752 h 4355.5554 v -172.1752 h -444.5243 z"
           id="path6"
           style="fill:#d9d9d9;fill-opacity:1;stroke-width:5.44187" />
        <g
           id="g8"
           style="clip-rule:evenodd;fill:#d9d9d9;fill-opacity:1;fill-rule:evenodd;image-rendering:optimizeQuality;shape-rendering:geometricPrecision;text-rendering:geometricPrecision"
           transform="matrix(13.101317,0,0,11.660038,-760.63155,-1935.0681)">
          <path
             style="opacity:1;fill:#d9d9d9;fill-opacity:1"
             fill="#111111"
             d="m 100.5,93.5 c 10.672,-0.1665 21.339,2e-4 32,0.5 6.894,0.8146 13.561,2.4813 20,5 0.833,0.8333 1.667,1.667 2.5,2.5 1.686,10.628 3.019,21.294 4,32 0.5,0.5 1,1 1.5,1.5 7.748,0.427 15.415,1.427 23,3 1.581,0.707 3.081,1.54 4.5,2.5 0.667,1 0.667,2 0,3 -7.04,3.641 -14.54,6.141 -22.5,7.5 -34.052,4.825 -68.0519,4.492 -102,-1 -4.8676,-1.067 -9.5342,-2.734 -14,-5 -2.9754,-3.716 -1.9754,-6.049 3,-7 7.5086,-2.033 15.1752,-3.033 23,-3 0.5,-0.5 1,-1 1.5,-1.5 1.0026,-10.696 2.3359,-21.363 4,-32 1.7309,-2.1166 3.8976,-3.6166 6.5,-4.5 4.4738,-1.1198 8.8071,-2.2865 13,-3.5 z"
             id="path6-6" />
        </g>
      </g>
    </g>
  </g>
</svg>
