<?xml version="1.0" encoding="UTF-8" standalone="no"?>
<svg
   xmlns:dc="http://purl.org/dc/elements/1.1/"
   xmlns:cc="http://creativecommons.org/ns#"
   xmlns:rdf="http://www.w3.org/1999/02/22-rdf-syntax-ns#"
   xmlns:svg="http://www.w3.org/2000/svg"
   xmlns="http://www.w3.org/2000/svg"
   width="200"
   height="200"
   viewBox="0 0 52.916665 52.916668"
   version="1.1"
   id="svg871">
  <defs
     id="defs865">
    <marker
       style="overflow:visible"
       id="marker1835"
       refX="0.0"
       refY="0.0"
       orient="auto">
      <path
         transform="scale(0.8) translate(12.5,0)"
         style="fill-rule:evenodd;stroke:#000000;stroke-width:1.0pt"
         d="M 0.0,0.0 L 5.0,-5.0 L -12.5,0.0 L 5.0,5.0 L 0.0,0.0 z "
         id="path1833" />
    </marker>
    <marker
       style="overflow:visible"
       id="marker1813"
       refX="0.0"
       refY="0.0"
       orient="auto">
      <path
         transform="scale(0.8) translate(12.5,0)"
         style="fill-rule:evenodd;stroke:#000000;stroke-width:1.0pt"
         d="M 0.0,0.0 L 5.0,-5.0 L -12.5,0.0 L 5.0,5.0 L 0.0,0.0 z "
         id="path1811" />
    </marker>
    <marker
       style="overflow:visible"
       id="marker1797"
       refX="0.0"
       refY="0.0"
       orient="auto">
      <path
         transform="scale(0.8) translate(12.5,0)"
         style="fill-rule:evenodd;stroke:#000000;stroke-width:1.0pt"
         d="M 0.0,0.0 L 5.0,-5.0 L -12.5,0.0 L 5.0,5.0 L 0.0,0.0 z "
         id="path1795" />
    </marker>
    <marker
       style="overflow:visible"
       id="Arrow1Lstart"
       refX="0.0"
       refY="0.0"
       orient="auto">
      <path
         transform="scale(0.8) translate(12.5,0)"
         style="fill-rule:evenodd;stroke:#000000;stroke-width:1.0pt"
         d="M 0.0,0.0 L 5.0,-5.0 L -12.5,0.0 L 5.0,5.0 L 0.0,0.0 z "
         id="path1525" />
    </marker>
    <rect
       x="63.672427"
       y="80.077325"
       width="93.552958"
       height="78.357871"
       id="rect1521" />
    <rect
       x="-35.456863"
       y="47.917857"
       width="102.51818"
       height="82.785147"
       id="rect1473" />
    <rect
       x="-9.0714285"
       y="-5.6696428"
       width="78.997024"
       height="84.28869"
       id="rect1456" />
    <rect
       x="7.4835467"
       y="9.621703"
       width="38.486812"
       height="35.814117"
       id="rect1450" />
  </defs>
  <metadata
     id="metadata868">
    <rdf:RDF>
      <cc:Work
         rdf:about="">
        <dc:format>image/svg+xml</dc:format>
        <dc:type
           rdf:resource="http://purl.org/dc/dcmitype/StillImage" />
        <dc:title></dc:title>
      </cc:Work>
    </rdf:RDF>
  </metadata>
  <g
     id="layer1">
    <text
       xml:space="preserve"
       id="text1448"
       style="font-size:35.27777767px;line-height:1.25;font-family:Miriam;-inkscape-font-specification:Miriam;white-space:pre;shape-inside:url(#rect1450);"><tspan
         style="visibility:hidden"
         x="7.484375"
         y="75.95319"><tspan
           dx="0 21.170113"
           style="font-size:35.2778px">Ai</tspan></tspan></text>
  </g>
  <g
     id="layer2">
    <g
       aria-label="Ai"
       transform="matrix(0.77168541,0,0,0.82003188,20.412536,10.685231)"
       id="text1454"
       style="font-size:45.8611px;line-height:1.25;font-family:Miriam;-inkscape-font-specification:Miriam;white-space:pre;shape-inside:url(#rect1456);stroke:none;stroke-opacity:1;fill:#2b2b2f;fill-opacity:1" />
    <g
       id="g1021"
       style="font-size:45.8611px;line-height:1.25;font-family:Miriam;-inkscape-font-specification:Miriam;white-space:pre;shape-inside:url(#rect1456);stroke:none;stroke-opacity:1;fill:#2b2b2f;fill-opacity:1;clip-rule:evenodd;fill-rule:evenodd;image-rendering:optimizeQuality;shape-rendering:geometricPrecision;text-rendering:geometricPrecision"
       transform="matrix(0.04859694,0,0,0.04859694,4.4643087,2.3953844)">
      <g
         id="g8"
         style="clip-rule:evenodd;fill-rule:evenodd;image-rendering:optimizeQuality;shape-rendering:geometricPrecision;text-rendering:geometricPrecision;fill:#d9d9d9;fill-opacity:1"
         transform="matrix(3.7692307,0,0,3.7692307,2.157328,-30.654113)">
        <path
           style="opacity:1;fill:#d9d9d9;fill-opacity:1"
           fill="#020202"
           d="m 9.5,9.5 c 73.329,0.8947 146.662,1.228 220,1 -4.039,76.3852 -8.872,152.719 -14.5,229 -0.903,1.201 -2.069,2.035 -3.5,2.5 -31.107,9.369 -62.274,18.536 -93.5,27.5 C 87.162,259.943 56.3286,250.277 25.5,240.5 19.6687,163.526 14.3354,86.5262 9.5,9.5 Z"
           id="path6" />
      </g>
      <g
         id="g12"
         style="clip-rule:evenodd;fill-rule:evenodd;image-rendering:optimizeQuality;shape-rendering:geometricPrecision;text-rendering:geometricPrecision;fill:#2b2b2b;fill-opacity:1"
         transform="matrix(3.7692307,0,0,3.7692307,2.157328,-30.654113)">
        <path
           style="opacity:1;fill:#2b2b2b;fill-opacity:1"
           fill="#f3f3f3"
           d="m 149.5,143.5 c -20.16,-0.997 -40.493,-1.33 -61,-1 0,-9.333 0,-18.667 0,-28 22.673,-0.408 45.339,-1.075 68,-2 1.479,-8.973 2.812,-17.9729 4,-27 -36.667,0 -73.3333,0 -110,0 -0.2384,-8.6712 -0.5718,-17.3378 -1,-26 46.9981,0.5476 93.998,0.8809 141,1 -4.007,47.401 -8.673,94.735 -14,142 -19.23,5.975 -38.563,11.641 -58,17 -19.0823,-5.194 -38.0823,-10.694 -57,-16.5 -1.4168,-14.751 -2.4168,-29.585 -3,-44.5 9.3333,0 18.6667,0 28,0 -0.3132,7.255 0.0201,14.421 1,21.5 10.3634,3.899 20.863,7.399 31.5,10.5 10.723,-2.847 21.39,-5.847 32,-9 1.465,-12.684 2.965,-25.351 4.5,-38 -2,0 -4,0 -6,0 z"
           id="path10" />
      </g>
      <g
         id="g16"
         style="clip-rule:evenodd;fill-rule:evenodd;image-rendering:optimizeQuality;shape-rendering:geometricPrecision;text-rendering:geometricPrecision;fill:#2b2b2b;fill-opacity:1"
         transform="matrix(3.7692307,0,0,3.7692307,2.157328,-30.654113)">
        <path
           style="opacity:1;fill:#2b2b2b;fill-opacity:1"
           fill="#a3a3a3"
           d="m 88.5,114.5 c 0,9.333 0,18.667 0,28 20.507,-0.33 40.84,0.003 61,1 -20.667,0 -41.333,0 -62,0 -0.3271,-9.848 0.0062,-19.514 1,-29 z"
           id="path14" />
      </g>
    </g>
  </g>
</svg>
