<?xml version="1.0" encoding="UTF-8"?>
<!DOCTYPE svg PUBLIC "-//W3C//DTD SVG 1.1//EN" "http://www.w3.org/Graphics/SVG/1.1/DTD/svg11.dtd">
<svg xmlns="http://www.w3.org/2000/svg" version="1.1" width="1200px" height="630px" style="shape-rendering:geometricPrecision; text-rendering:geometricPrecision; image-rendering:optimizeQuality; fill-rule:evenodd; clip-rule:evenodd" xmlns:xlink="http://www.w3.org/1999/xlink">
<g><path style="opacity:1" fill="#fefefe" d="M -0.5,-0.5 C 399.5,-0.5 799.5,-0.5 1199.5,-0.5C 1199.5,209.5 1199.5,419.5 1199.5,629.5C 799.5,629.5 399.5,629.5 -0.5,629.5C -0.5,419.5 -0.5,209.5 -0.5,-0.5 Z"/></g>
<g><path style="opacity:1" fill="#010101" d="M 689.5,26.5 C 689.334,31.8437 689.501,37.1771 690,42.5C 690.232,43.7375 690.732,44.7375 691.5,45.5C 691.261,47.4672 691.594,49.3005 692.5,51C 727.24,53.9502 761.907,57.4502 796.5,61.5C 801.269,62.889 806.269,63.5557 811.5,63.5C 838.492,66.2216 865.492,68.8883 892.5,71.5C 891.994,85.6258 890.66,99.6258 888.5,113.5C 887.357,123.341 886.357,133.341 885.5,143.5C 884.577,147.064 884.244,150.731 884.5,154.5C 882.864,158.21 882.198,162.21 882.5,166.5C 878.833,203.167 875.167,239.834 871.5,276.5C 869.772,283.601 868.772,290.934 868.5,298.5C 865.172,330.479 861.838,362.479 858.5,394.5C 857.111,399.269 856.444,404.269 856.5,409.5C 850.171,467.439 844.171,525.439 838.5,583.5C 824.293,582.803 810.293,581.47 796.5,579.5C 796.5,421.167 796.5,262.833 796.5,104.5C 656.5,104.5 516.5,104.5 376.5,104.5C 376.5,252.167 376.5,399.833 376.5,547.5C 364.877,548.466 353.211,549.133 341.5,549.5C 339.283,513.685 336.949,478.018 334.5,442.5C 334.898,433.932 334.231,425.599 332.5,417.5C 332.064,407.764 331.398,398.097 330.5,388.5C 330.607,377.966 329.94,367.633 328.5,357.5C 328.898,348.932 328.231,340.599 326.5,332.5C 325.827,316.994 324.827,301.661 323.5,286.5C 323.58,273.93 322.58,261.596 320.5,249.5C 319.6,230.492 318.6,211.492 317.5,192.5C 317.18,184.656 316.513,176.989 315.5,169.5C 313.946,148.869 312.613,128.202 311.5,107.5C 311.246,97.6088 310.246,87.9421 308.5,78.5C 307.958,64.1604 307.291,49.8271 306.5,35.5C 331.189,34.5515 355.856,33.2181 380.5,31.5C 391.431,31.8016 402.098,30.8016 412.5,28.5C 425.835,27.865 439.169,27.1983 452.5,26.5C 465.013,25.8902 477.346,24.8902 489.5,23.5C 513.189,22.0546 536.856,20.388 560.5,18.5C 568.079,18.9056 575.412,18.2389 582.5,16.5C 603.66,15.2549 624.66,13.9216 645.5,12.5C 653.079,12.9056 660.412,12.2389 667.5,10.5C 674.496,10.1064 681.496,9.77308 688.5,9.5C 688.907,15.1613 689.24,20.828 689.5,26.5 Z"/></g>
<g><path style="opacity:1" fill="#686868" d="M 667.5,10.5 C 660.412,12.2389 653.079,12.9056 645.5,12.5C 652.653,11.4624 659.986,10.7957 667.5,10.5 Z"/></g>
<g><path style="opacity:1" fill="#646464" d="M 582.5,16.5 C 575.412,18.2389 568.079,18.9056 560.5,18.5C 567.653,17.4624 574.986,16.7957 582.5,16.5 Z"/></g>
<g><path style="opacity:1" fill="#6c6c6c" d="M 489.5,23.5 C 477.346,24.8902 465.013,25.8902 452.5,26.5C 464.596,24.4202 476.93,23.4202 489.5,23.5 Z"/></g>
<g><path style="opacity:1" fill="#454545" d="M 412.5,28.5 C 402.098,30.8016 391.431,31.8016 380.5,31.5C 390.958,29.8418 401.625,28.8418 412.5,28.5 Z"/></g>
<g><path style="opacity:1" fill="#434343" d="M 689.5,26.5 C 690.636,32.641 691.303,38.9744 691.5,45.5C 690.732,44.7375 690.232,43.7375 690,42.5C 689.501,37.1771 689.334,31.8437 689.5,26.5 Z"/></g>
<g><path style="opacity:1" fill="#7d7d7d" d="M 796.5,61.5 C 801.731,61.4443 806.731,62.111 811.5,63.5C 806.269,63.5557 801.269,62.889 796.5,61.5 Z"/></g>
<g><path style="opacity:1" fill="#686868" d="M 308.5,78.5 C 310.246,87.9421 311.246,97.6088 311.5,107.5C 309.797,98.051 308.797,88.3844 308.5,78.5 Z"/></g>
<g><path style="opacity:1" fill="#bababa" d="M 796.5,579.5 C 795.5,421.668 795.167,263.668 795.5,105.5C 656.167,105.5 516.833,105.5 377.5,105.5C 377.833,253.001 377.5,400.334 376.5,547.5C 376.5,399.833 376.5,252.167 376.5,104.5C 516.5,104.5 656.5,104.5 796.5,104.5C 796.5,262.833 796.5,421.167 796.5,579.5 Z"/></g>
<g><path style="opacity:1" fill="#b8b8b8" d="M 888.5,113.5 C 888.904,123.782 887.904,133.782 885.5,143.5C 886.357,133.341 887.357,123.341 888.5,113.5 Z"/></g>
<g><path style="opacity:1" fill="#010101" d="M 412.5,140.5 C 528.5,140.5 644.5,140.5 760.5,140.5C 760.5,300.167 760.5,459.833 760.5,619.5C 644.5,619.5 528.5,619.5 412.5,619.5C 412.5,459.833 412.5,300.167 412.5,140.5 Z"/></g>
<g><path style="opacity:1" fill="#707070" d="M 884.5,154.5 C 884.802,158.79 884.136,162.79 882.5,166.5C 882.198,162.21 882.864,158.21 884.5,154.5 Z"/></g>
<g><path style="opacity:1" fill="#6c6c6c" d="M 315.5,169.5 C 316.513,176.989 317.18,184.656 317.5,192.5C 315.803,185.07 315.136,177.403 315.5,169.5 Z"/></g>
<g><path style="opacity:1" fill="#fbfbfb" d="M 543.5,223.5 C 545.515,224.924 547.848,225.59 550.5,225.5C 560.319,229.006 568.819,234.673 576,242.5C 576.667,243.5 576.667,244.5 576,245.5C 568.649,252.352 561.149,259.019 553.5,265.5C 549.101,260.314 543.767,256.647 537.5,254.5C 534.814,253.009 531.814,252.343 528.5,252.5C 526.304,252.505 524.304,252.838 522.5,253.5C 519.575,253.46 516.909,254.293 514.5,256C 509.318,259.662 505.984,264.495 504.5,270.5C 503.883,270.611 503.383,270.944 503,271.5C 502.183,277.016 502.349,282.35 503.5,287.5C 509.259,307.211 521.926,313.378 541.5,306C 545.962,303.203 550.128,300.036 554,296.5C 560.869,303.017 568.035,309.184 575.5,315C 576.517,316.049 576.684,317.216 576,318.5C 565.615,331.202 552.115,338.035 535.5,339C 507.83,342.235 486.33,332.402 471,309.5C 456.698,277.533 463.531,251.366 491.5,231C 507.789,222.598 525.122,220.098 543.5,223.5 Z"/></g>
<g><path style="opacity:1" fill="#676767" d="M 543.5,223.5 C 546.152,223.41 548.485,224.076 550.5,225.5C 547.848,225.59 545.515,224.924 543.5,223.5 Z"/></g>
<g><path style="opacity:1" fill="#3f3f3f" d="M 671.5,224.5 C 684.006,223.175 696.673,223.175 709.5,224.5C 709.376,225.107 709.043,225.44 708.5,225.5C 696.345,224.505 684.011,224.171 671.5,224.5 Z"/></g>
<g><path style="opacity:1" fill="#c2c2c2" d="M 617.5,225.5 C 603.791,224.852 590.458,225.519 577.5,227.5C 576.596,226.791 576.263,225.791 576.5,224.5C 590.344,224.171 604.01,224.504 617.5,225.5 Z"/></g>
<g><path style="opacity:1" fill="#c0c0c0" d="M 671.5,224.5 C 684.011,224.171 696.345,224.505 708.5,225.5C 708.5,226.167 708.167,226.5 707.5,226.5C 695.265,225.18 682.931,225.18 670.5,226.5C 670.328,225.508 670.662,224.842 671.5,224.5 Z"/></g>
<g><path style="opacity:1" fill="#fbfbfb" d="M 617.5,225.5 C 626.225,246.834 635.059,268.167 644,289.5C 652.739,268.446 661.573,247.446 670.5,226.5C 682.931,225.18 695.265,225.18 707.5,226.5C 692.916,263.873 677.582,300.873 661.5,337.5C 648.833,337.5 636.167,337.5 623.5,337.5C 608.717,300.6 593.383,263.934 577.5,227.5C 590.458,225.519 603.791,224.852 617.5,225.5 Z"/></g>
<g><path style="opacity:1" fill="#585858" d="M 522.5,253.5 C 524.304,252.838 526.304,252.505 528.5,252.5C 531.814,252.343 534.814,253.009 537.5,254.5C 532.537,253.746 527.537,253.413 522.5,253.5 Z"/></g>
<g><path style="opacity:1" fill="#7a7a7a" d="M 320.5,249.5 C 322.58,261.596 323.58,273.93 323.5,286.5C 322.05,274.351 321.05,262.018 320.5,249.5 Z"/></g>
<g><path style="opacity:1" fill="#5f5f5f" d="M 504.5,270.5 C 503.593,276.106 503.26,281.773 503.5,287.5C 502.349,282.35 502.183,277.016 503,271.5C 503.383,270.944 503.883,270.611 504.5,270.5 Z"/></g>
<g><path style="opacity:1" fill="#989898" d="M 871.5,276.5 C 871.228,284.066 870.228,291.399 868.5,298.5C 868.772,290.934 869.772,283.601 871.5,276.5 Z"/></g>
<g><path style="opacity:1" fill="#626262" d="M 326.5,332.5 C 328.231,340.599 328.898,348.932 328.5,357.5C 327.527,349.34 326.86,341.007 326.5,332.5 Z"/></g>
<g><path style="opacity:1" fill="#9a9a9a" d="M 328.5,357.5 C 329.94,367.633 330.607,377.966 330.5,388.5C 329.137,378.362 328.47,368.029 328.5,357.5 Z"/></g>
<g><path style="opacity:1" fill="#f9f9f9" d="M 469.5,380.5 C 547.167,380.333 624.834,380.5 702.5,381C 703.488,392.753 703.821,404.586 703.5,416.5C 625.5,416.5 547.5,416.5 469.5,416.5C 469.5,404.5 469.5,392.5 469.5,380.5 Z"/></g>
<g><path style="opacity:1" fill="#838383" d="M 858.5,394.5 C 858.556,399.731 857.889,404.731 856.5,409.5C 856.444,404.269 857.111,399.269 858.5,394.5 Z"/></g>
<g><path style="opacity:1" fill="#5e5e5e" d="M 332.5,417.5 C 334.231,425.599 334.898,433.932 334.5,442.5C 333.527,434.34 332.86,426.007 332.5,417.5 Z"/></g>
<g><path style="opacity:1" fill="#afafaf" d="M 470.5,444.5 C 470.5,456.167 470.5,467.833 470.5,479.5C 547.833,479.5 625.167,479.5 702.5,479.5C 702.5,467.833 702.5,456.167 702.5,444.5C 703.495,456.322 703.828,468.322 703.5,480.5C 625.5,480.5 547.5,480.5 469.5,480.5C 469.172,468.322 469.505,456.322 470.5,444.5 Z"/></g>
<g><path style="opacity:1" fill="#fdfdfd" d="M 470.5,444.5 C 547.833,444.5 625.167,444.5 702.5,444.5C 702.5,456.167 702.5,467.833 702.5,479.5C 625.167,479.5 547.833,479.5 470.5,479.5C 470.5,467.833 470.5,456.167 470.5,444.5 Z"/></g>
<g><path style="opacity:1" fill="#c8c8c8" d="M 469.5,508.5 C 547.5,508.5 625.5,508.5 703.5,508.5C 703.821,520.414 703.488,532.247 702.5,544C 624.834,544.5 547.167,544.667 469.5,544.5C 469.5,532.5 469.5,520.5 469.5,508.5 Z"/></g>
<g><path style="opacity:1" fill="#fefefe" d="M 470.5,509.5 C 547.833,509.5 625.167,509.5 702.5,509.5C 702.5,520.5 702.5,531.5 702.5,542.5C 625.167,542.5 547.833,542.5 470.5,542.5C 470.5,531.5 470.5,520.5 470.5,509.5 Z"/></g>
</svg>
