<?xml version="1.0" encoding="UTF-8" standalone="no"?>
<svg
   xmlns:dc="http://purl.org/dc/elements/1.1/"
   xmlns:cc="http://creativecommons.org/ns#"
   xmlns:rdf="http://www.w3.org/1999/02/22-rdf-syntax-ns#"
   xmlns:svg="http://www.w3.org/2000/svg"
   xmlns="http://www.w3.org/2000/svg"
   width="50"
   height="50"
   viewBox="0 0 13.229166 13.229167"
   version="1.1"
   id="svg124">
  <defs
     id="defs118" />
  <metadata
     id="metadata121">
    <rdf:RDF>
      <cc:Work
         rdf:about="">
        <dc:format>image/svg+xml</dc:format>
        <dc:type
           rdf:resource="http://purl.org/dc/dcmitype/StillImage" />
        <dc:title></dc:title>
      </cc:Work>
    </rdf:RDF>
  </metadata>
  <g
     id="layer1"
     style="fill:#d9d9d9;fill-opacity:1">
    <g
       id="g24"
       style="clip-rule:evenodd;fill-rule:evenodd;image-rendering:optimizeQuality;shape-rendering:geometricPrecision;text-rendering:geometricPrecision;fill:#d9d9d9;stroke:#d9d9d9;fill-opacity:1;stroke-opacity:1"
       transform="matrix(0.07092559,0,0,0.07294658,-9.9841514,-2.9700223)">
      <path
         style="opacity:1;fill:#d9d9d9;stroke:#d9d9d9;fill-opacity:1;stroke-opacity:1"
         fill="#040404"
         d="m 320.5,129.5 c 0.858,37.466 -15.142,64.966 -48,82.5 -4.099,2.09 -8.433,3.256 -13,3.5 -1.431,-1.28 -2.098,-2.947 -2,-5 0.166,-9.672 0,-19.339 -0.5,-29 -0.849,-3.061 -2.349,-5.728 -4.5,-8 29.664,-4.982 41.831,-22.316 36.5,-52 -1.476,-4.955 -3.976,-9.288 -7.5,-13 2.728,-7.046 2.562,-14.0463 -0.5,-21 -2.401,-1.1023 -4.901,-1.269 -7.5,-0.5 -3.704,1.3812 -7.037,3.2145 -10,5.5 -0.992,-0.1716 -1.658,0.1618 -2,1 -4.564,1.9835 -9.23,1.8168 -14,-0.5 -10.705,-1.1584 -21.205,-0.325 -31.5,2.5 -4.739,-2.62 -9.573,-5.12 -14.5,-7.5 -5.967,-3.2322 -9.8,-1.7322 -11.5,4.5 -0.814,4.5204 -0.647,8.854 0.5,13 0.039,1.083 0.373,2.083 1,3 -1.752,1.746 -3.085,3.746 -4,6 -5.223,9.02 -6.39,18.687 -3.5,29 4.732,18.812 16.898,28.812 36.5,30 -2.526,3.073 -4.193,6.573 -5,10.5 -5.488,2.915 -11.155,3.248 -17,1 -4.566,-4.476 -8.899,-9.143 -13,-14 -2.139,-1.404 -4.472,-2.237 -7,-2.5 -1.819,-0.158 -3.152,0.509 -4,2 3.22,2.875 6.387,5.875 9.5,9 5.191,15.142 15.691,20.808 31.5,17 0.329,6.037 -0.004,12.037 -1,18 -1.272,0.546 -2.606,0.879 -4,1 -14.134,-4.806 -26.467,-12.473 -37,-23 -6.225,-7.567 -11.225,-15.901 -15,-25 -12.235,-35.718 -5.235,-67.052 21,-94 0.667,0 1,-0.3333 1,-1 6.334,-4.8343 13,-9.1677 20,-13 32.725,-12.7664 63.059,-8.5997 91,12.5 17.244,15.3218 26.911,34.488 29,57.5 z"
         id="path22" />
    </g>
    <g
       id="g56"
       style="clip-rule:evenodd;fill-rule:evenodd;image-rendering:optimizeQuality;shape-rendering:geometricPrecision;text-rendering:geometricPrecision;fill:#d9d9d9;stroke:#d9d9d9;fill-opacity:1;stroke-opacity:1"
       transform="matrix(0.07092559,0,0,0.07294658,-9.9841514,-2.9700223)">
      <path
         style="opacity:1;fill:#d9d9d9;stroke:#d9d9d9;fill-opacity:1;stroke-opacity:1"
         fill="#292929"
         d="m 185.5,174.5 c 1.837,0.139 2.17,0.806 1,2 -0.798,-0.457 -1.131,-1.124 -1,-2 z"
         id="path54" />
    </g>
    <g
       id="g64"
       style="clip-rule:evenodd;fill-rule:evenodd;image-rendering:optimizeQuality;shape-rendering:geometricPrecision;text-rendering:geometricPrecision;fill:#d9d9d9;stroke:#d9d9d9;fill-opacity:1;stroke-opacity:1"
       transform="matrix(0.07092559,0,0,0.07294658,-9.9841514,-2.9700223)">
      <path
         style="opacity:1;fill:#d9d9d9;stroke:#d9d9d9;fill-opacity:1;stroke-opacity:1"
         fill="#323232"
         d="m 188.5,178.5 c 1.495,-0.085 2.495,0.581 3,2 -1.896,1.139 -2.896,0.473 -3,-2 z"
         id="path62" />
    </g>
    <g
       id="g68"
       style="clip-rule:evenodd;fill-rule:evenodd;image-rendering:optimizeQuality;shape-rendering:geometricPrecision;text-rendering:geometricPrecision;fill:#d9d9d9;stroke:#d9d9d9;fill-opacity:1;stroke-opacity:1"
       transform="matrix(0.07092559,0,0,0.07294658,-9.9841514,-2.9700223)">
      <path
         style="opacity:1;fill:#d9d9d9;stroke:#d9d9d9;fill-opacity:1;stroke-opacity:1"
         fill="#303030"
         d="m 192.5,183.5 c 1,0 2,0 3,0 -0.746,3.81 -1.746,3.81 -3,0 z"
         id="path66" />
    </g>
    <g
       id="g80"
       style="clip-rule:evenodd;fill-rule:evenodd;image-rendering:optimizeQuality;shape-rendering:geometricPrecision;text-rendering:geometricPrecision;fill:#d9d9d9;stroke:#d9d9d9;fill-opacity:1;stroke-opacity:1"
       transform="matrix(0.07092559,0,0,0.07294658,-9.9841514,-2.9700223)">
      <path
         style="opacity:1;fill:#d9d9d9;stroke:#d9d9d9;fill-opacity:1;stroke-opacity:1"
         fill="#1c1c1c"
         d="m 211.5,187.5 c 1.175,-0.219 2.175,0.114 3,1 -1.552,1.298 -2.552,0.965 -3,-1 z"
         id="path78" />
    </g>
    <g
       id="g88"
       style="clip-rule:evenodd;fill-rule:evenodd;image-rendering:optimizeQuality;shape-rendering:geometricPrecision;text-rendering:geometricPrecision;fill:#d9d9d9;stroke:#d9d9d9;fill-opacity:1;stroke-opacity:1"
       transform="matrix(0.07092559,0,0,0.07294658,-9.9841514,-2.9700223)">
      <path
         style="opacity:1;fill:#d9d9d9;stroke:#d9d9d9;fill-opacity:1;stroke-opacity:1"
         fill="#333333"
         d="m 198.5,187.5 c 1.175,-0.219 2.175,0.114 3,1 -1.552,1.298 -2.552,0.965 -3,-1 z"
         id="path86" />
    </g>
    <g
       id="g92"
       style="clip-rule:evenodd;fill-rule:evenodd;image-rendering:optimizeQuality;shape-rendering:geometricPrecision;text-rendering:geometricPrecision;fill:#d9d9d9;stroke:#d9d9d9;fill-opacity:1;stroke-opacity:1"
       transform="matrix(0.07092559,0,0,0.07294658,-9.9841514,-2.9700223)">
      <path
         style="opacity:1;fill:#d9d9d9;stroke:#d9d9d9;fill-opacity:1;stroke-opacity:1"
         fill="#303030"
         d="m 205.5,188.5 c 1.175,-0.219 2.175,0.114 3,1 -1.552,1.298 -2.552,0.965 -3,-1 z"
         id="path90" />
    </g>
    <path
       style="opacity:0.751613;fill:#d9d9d9;stroke-width:0.178571;stroke:#d9d9d9;fill-opacity:1;stroke-opacity:1"
       d="M 16.983012,47.399017 C 13.023309,45.689589 9.5339219,42.929651 7.5166544,39.911583 4.6665155,35.647442 3.3517442,31.240487 3.3505706,25.947369 3.349863,22.755915 3.7591721,20.52004 4.8593585,17.705528 5.9799896,14.838714 8.1310408,11.517203 10.238377,9.3996021 c 0.91542,-0.9198782 3.19703,-2.5773055 5.053499,-3.6710071 1.182485,-0.6966373 3.853128,-1.575597 6.12607,-2.0162066 3.424134,-0.663768 7.767538,-0.4059753 10.910616,0.6475743 5.12274,1.7171264 9.316136,4.8877766 12.018699,9.0874063 1.711366,2.659367 2.742696,5.270305 3.367201,8.524491 0.330406,1.721684 0.371188,2.396836 0.283277,4.689795 -0.195841,5.108159 -1.569018,9.421005 -4.17038,13.09825 -2.476231,3.50036 -7.733059,7.489866 -10.684991,8.109041 -1.646438,0.345343 -1.585463,0.501478 -1.734161,-4.440602 -0.148748,-4.943693 -0.177971,-5.171146 -0.778029,-6.055379 -0.247792,-0.365142 -0.426471,-0.677341 -0.397064,-0.693773 0.02941,-0.01643 0.656148,-0.174868 1.392755,-0.352077 0.736608,-0.17721 2.072327,-0.673466 2.968268,-1.102789 4.193729,-2.009589 6.027556,-5.837109 5.428638,-11.330528 -0.218141,-2.00084 -0.629757,-3.160249 -1.603182,-4.515718 -0.488563,-0.68031 -0.524734,-0.819011 -0.359707,-1.379256 0.413251,-1.402944 0.180392,-4.252693 -0.413911,-5.065451 -0.423647,-0.579372 -1.885123,-0.426185 -3.300177,0.345914 -2.624825,1.432188 -2.803512,1.505868 -3.653814,1.50662 -0.464531,4.11e-4 -1.169715,-0.129336 -1.567073,-0.288328 -0.954965,-0.382101 -5.718765,-0.267666 -7.609645,0.182798 l -1.271317,0.302865 -2.427547,-1.259008 c -1.335152,-0.692454 -2.653661,-1.259008 -2.930021,-1.259008 -1.223891,0 -1.833898,1.08187 -1.827575,3.241273 0.0024,0.819979 0.08556,1.843054 0.184797,2.273502 0.142556,0.618343 0.127106,0.843255 -0.0736,1.071428 -0.363448,0.413189 -1.258313,2.263176 -1.651302,3.413797 -0.497852,1.457645 -0.461449,4.4481 0.07707,6.331238 0.500217,1.749201 1.443607,3.577073 2.416786,4.682662 1.336544,1.518397 3.658695,2.719357 5.827596,3.013893 1.281889,0.174082 1.284986,0.176925 0.905893,0.831825 -0.186823,0.322746 -0.441069,0.933171 -0.56499,1.3565 -0.180374,0.61618 -0.352585,0.8258 -0.863464,1.051032 -0.739563,0.32605 -2.72984,0.377341 -3.43895,0.08862 -0.263652,-0.107348 -1.261092,-1.0796 -2.216532,-2.160559 -1.780284,-2.014167 -2.505902,-2.516642 -3.634244,-2.516642 -0.28564,0 -0.6518884,0.132542 -0.8138852,0.294539 -0.273672,0.273673 -0.2004359,0.390698 1.0337012,1.651786 0.827645,0.845719 1.441795,1.652612 1.629537,2.14095 1.175985,3.058855 3.955055,4.591675 7.229026,3.98723 l 0.962521,-0.177702 -0.122122,2.042673 c -0.06717,1.12347 -0.196974,2.239547 -0.288458,2.48017 -0.231358,0.608516 -0.993205,0.561691 -2.675176,-0.164427 z"
       id="path214"
       transform="scale(0.26458333)" />
    <path
       style="opacity:0.751613;fill:#d9d9d9;stroke-width:0.178571;stroke:#d9d9d9;fill-opacity:1;stroke-opacity:1"
       d="M 32.04033,47.857792 C 31.700134,47.64754 31.631339,47.038239 31.452593,42.652287 31.292502,38.724069 31.254578,38.411655 30.841116,37.614721 l -0.440802,-0.849623 1.550277,-0.472215 c 4.679766,-1.425452 7.162248,-3.844635 8.00683,-7.802677 0.200473,-0.9395 0.250688,-1.878489 0.183725,-3.435694 -0.106444,-2.47535 -0.481469,-3.881714 -1.456235,-5.46096 l -0.64344,-1.042454 0.198481,-1.139752 c 0.229842,-1.319857 -0.01925,-3.68363 -0.458881,-4.354593 -0.593455,-0.905729 -1.916144,-0.703059 -4.499112,0.689381 -1.818202,0.980165 -2.712956,1.130188 -4.069813,0.682385 -0.864525,-0.285319 -6.5523,-0.129483 -7.943419,0.217638 l -0.982143,0.24507 -2.398792,-1.213001 c -3.185799,-1.610967 -3.976174,-1.62025 -4.574434,-0.05373 -0.251608,0.658825 -0.291763,1.197843 -0.21966,2.948565 l 0.08823,2.14236 -0.844886,1.684611 c -1.052945,2.09946 -1.334234,3.481347 -1.190128,5.846737 0.178894,2.93641 1.378513,5.823432 3.173472,7.637325 1.279648,1.293144 3.608532,2.385385 5.89971,2.76695 l 0.647801,0.107882 -0.482999,1.192373 c -0.588835,1.453647 -1.02338,1.800668 -2.437717,1.946725 -1.704139,0.175986 -2.139125,-0.05457 -4.101926,-2.174187 -0.947983,-1.023718 -1.985266,-2.023022 -2.305074,-2.220674 -0.704041,-0.435121 -2.085681,-0.487489 -2.4143146,-0.09151 -0.2608084,0.314255 -0.2385945,0.348876 1.2977766,2.022616 0.57037,0.621366 1.271887,1.626821 1.558927,2.234343 0.620185,1.312623 1.717323,2.477094 2.946868,3.127719 0.819618,0.433709 1.06557,0.472465 2.998394,0.472465 h 2.105536 l -0.09127,0.892857 c -0.0502,0.491071 -0.138373,1.41775 -0.195938,2.059284 -0.05757,0.641535 -0.172193,1.275691 -0.254727,1.409234 -0.255645,0.413642 -1.602849,0.124021 -3.320944,-0.713936 C 8.3750037,43.114187 3.9248673,36.218467 3.4723772,27.239848 3.2614713,23.054906 3.9152436,19.82172 5.7196842,16.12594 7.9275382,11.603907 10.26473,9.013898 14.585214,6.3014148 17.873628,4.236885 22.861943,3.1718032 27.479919,3.5481969 36.432703,4.2779042 44.190003,10.45748 46.85553,18.983083 c 0.909502,2.909011 1.072745,4.193165 0.964764,7.589286 -0.102773,3.23232 -0.32248,4.624959 -1.140425,7.228729 -0.558235,1.777039 -1.793273,4.276307 -2.869578,5.806985 -1.652022,2.349443 -5.274805,5.552722 -7.958309,7.036766 -1.545209,0.85454 -3.424127,1.452449 -3.811652,1.212943 z"
       id="path216"
       transform="scale(0.26458333)" />
    <path
       style="opacity:0.751613;fill:#d9d9d9;stroke-width:0.178571;stroke:#d9d9d9;fill-opacity:1;stroke-opacity:1"
       d="M 18.167769,47.624371 C 17.199832,47.397023 14.460338,45.985226 12.911231,44.915417 7.8734351,41.436328 4.6900604,36.104331 3.7676265,29.600328 3.4489737,27.353533 3.5298455,23.439065 3.9349996,21.498906 4.8871126,16.939524 7.8846914,11.646531 11.022032,8.9849332 13.792434,6.634633 16.660461,5.0720941 19.543993,4.3420569 c 6.554078,-1.6593266 12.81673,-0.6783121 18.292803,2.8654804 2.098175,1.3578161 5.328731,4.6464127 6.6234,6.7424027 1.107682,1.793267 2.139759,4.199505 2.733247,6.372429 0.375153,1.373543 0.414569,1.891375 0.414569,5.446429 0,2.629233 -0.08189,4.341996 -0.247607,5.178571 -0.644878,3.255548 -2.320525,7.009679 -4.136268,9.266921 -2.500769,3.108838 -6.304485,6.082934 -9.149176,7.153674 -1.420154,0.534544 -2.006918,0.572785 -2.177334,0.141905 -0.06798,-0.171875 -0.232361,-2.258523 -0.365299,-4.636996 -0.20296,-3.631302 -0.300707,-4.457884 -0.609796,-5.156629 -0.20245,-0.457671 -0.368091,-0.854268 -0.368091,-0.881325 0,-0.02705 0.582589,-0.225625 1.294643,-0.441264 5.645732,-1.709765 8.350887,-5.093016 8.346866,-10.439161 -0.0021,-2.750046 -0.236527,-3.881963 -1.203586,-5.810696 -0.850266,-1.695798 -0.85052,-1.696858 -0.685568,-2.850314 0.209856,-1.467443 -0.0769,-3.617077 -0.569694,-4.270601 -0.596791,-0.791446 -1.674943,-0.656452 -4.146947,0.519235 -1.950619,0.927716 -2.111761,0.973129 -3.214286,0.905849 -2.627426,-0.160333 -8.162082,-0.08077 -9.120941,0.131119 l -0.99594,0.220083 -2.396916,-1.166837 c -3.21647,-1.565801 -3.9418,-1.572531 -4.594531,-0.04263 -0.129832,0.304306 -0.2131,1.439715 -0.2131,2.905749 v 2.406276 l -0.716852,1.425748 c -0.93848,1.866542 -1.247434,3.115257 -1.247434,5.041805 0,1.998886 0.391844,3.760748 1.240584,5.578091 0.849257,1.818448 1.84323,3.063712 3.124077,3.913891 1.083469,0.719164 3.27493,1.588977 4.525961,1.796395 0.680071,0.112755 0.752312,0.169953 0.646516,0.511898 -0.307339,0.993348 -1.008498,2.094343 -1.493483,2.345139 -0.667828,0.345347 -2.546935,0.355223 -3.186451,0.01675 -0.265212,-0.140371 -1.285775,-1.070168 -2.267918,-2.066216 -0.982143,-0.996048 -2.002706,-1.925845 -2.267918,-2.066212 -0.642058,-0.339822 -1.9993381,-0.332349 -2.2856066,0.01259 -0.2572606,0.30998 -0.2325248,0.351966 1.1970526,2.031825 0.511084,0.600562 1.246798,1.634634 1.634921,2.297937 0.819728,1.400924 1.750187,2.386277 2.882265,3.052315 0.71464,0.420444 1.04107,0.482777 2.949586,0.56323 l 2.146014,0.09046 -0.196517,2.024583 c -0.180213,1.856614 -0.365711,2.402317 -0.79194,2.329741 -0.04911,-0.0084 -0.399895,-0.08816 -0.779529,-0.177326 z"
       id="path218"
       transform="scale(0.26458333)" />
    <path
       style="opacity:0.751613;fill:#d9d9d9;stroke-width:0.178571;stroke:#d9d9d9;fill-opacity:1;stroke-opacity:1"
       d="M 18.411584,47.697821 C 17.774815,47.589544 14.579415,46.004524 13.375177,45.199603 8.6164973,42.018869 5.5292412,37.511812 4.1951888,31.797823 3.638945,29.41533 3.4330271,25.168273 3.756306,22.745864 4.2728926,18.874951 6.4937694,14.046926 9.240971,10.8226 10.274688,9.6093502 12.299427,7.8979754 14.068831,6.7419362 17.84906,4.2721261 23.539837,3.0710568 28.354019,3.7269698 c 5.57282,0.7592742 10.392054,3.3597214 14.043361,7.5777662 2.076097,2.398337 3.419729,4.794081 4.389122,7.825966 0.810107,2.533696 0.967062,3.985606 0.843071,7.79881 -0.142768,4.390677 -0.587534,6.260827 -2.357004,9.910714 -1.936082,3.993557 -5.898575,7.905293 -10.141498,10.011589 -1.92535,0.955793 -3.026378,1.188072 -3.221489,0.679622 -0.06981,-0.18193 -0.237839,-2.277997 -0.373389,-4.657925 -0.206984,-3.634095 -0.305688,-4.461045 -0.616272,-5.163168 -0.203396,-0.459814 -0.348748,-0.85043 -0.323003,-0.868039 0.02574,-0.01761 0.810201,-0.292966 1.743237,-0.611909 4.37217,-1.49455 6.640534,-3.73587 7.605854,-7.51517 0.235296,-0.921211 0.27578,-1.658146 0.196194,-3.571428 -0.108064,-2.597956 -0.297814,-3.41135 -1.211642,-5.193924 -0.570736,-1.113315 -0.587684,-1.210315 -0.6057,-3.466791 -0.03451,-4.321246 -0.782306,-4.801659 -4.64542,-2.984374 l -1.785714,0.840036 -4.910715,0.0067 c -3.384093,0.0046 -5.188282,0.07776 -5.803571,0.23521 l -0.892857,0.228472 -2.300368,-1.120972 c -1.865621,-0.909119 -2.468789,-1.122173 -3.191528,-1.127326 -0.771908,-0.0055 -0.941791,0.06084 -1.269519,0.495747 -0.335444,0.445151 -0.389994,0.819858 -0.480937,3.303572 -0.102202,2.791231 -0.104989,2.806198 -0.762541,4.095351 -0.879158,1.72362 -1.191536,3.011824 -1.191536,4.913742 0,2.099539 0.398178,3.800061 1.358425,5.8015 1.344407,2.802141 3.526251,4.497066 6.855861,5.325848 0.638393,0.158904 1.218522,0.342957 1.289176,0.409005 0.194799,0.182104 -0.642568,1.840275 -1.178703,2.334092 -0.359765,0.331367 -0.72602,0.453548 -1.534982,0.512064 -0.584362,0.04227 -1.285325,0.02092 -1.557696,-0.04744 -0.288252,-0.07235 -1.354462,-0.967577 -2.551151,-2.142045 -1.130761,-1.109764 -2.231451,-2.107921 -2.445976,-2.218128 -0.56355,-0.289509 -1.9339069,-0.252225 -2.1927476,0.05966 -0.2561263,0.308613 -0.1944834,0.425302 0.9003016,1.70425 0.462395,0.540179 1.279499,1.665179 1.815787,2.5 1.013063,1.577002 2.163178,2.77487 3.194498,3.327136 0.456067,0.244221 1.119165,0.338084 2.752886,0.389677 l 2.152107,0.06796 -0.223825,1.962836 c -0.201502,1.767063 -0.431591,2.51233 -0.75404,2.442357 -0.06163,-0.01338 -0.312957,-0.05848 -0.558492,-0.10023 z"
       id="path220"
       transform="scale(0.26458333)" />
    <path
       style="opacity:0.751613;fill:#d9d9d9;stroke-width:0.178571;stroke:#d9d9d9;fill-opacity:1;stroke-opacity:1"
       d="M 17.786584,47.486208 C 14.916122,46.446903 11.285497,43.983315 9.2859566,41.718046 6.2374923,38.264458 4.4964166,34.428156 3.7800713,29.58633 3.518464,27.818108 3.6570054,22.587798 4.0018065,21.215226 5.1756776,16.542324 7.6850601,12.098828 10.707994,9.3402261 14.70594,5.6918687 18.988334,3.9068753 24.483012,3.5985032 34.427137,3.0404195 43.704119,9.4822689 46.767105,19.072369 c 0.749147,2.345546 0.872179,3.16893 0.912207,6.104855 0.06122,4.490525 -0.46361,7.378236 -1.950419,10.731479 -1.972316,4.448218 -6.185982,8.792743 -10.605588,10.934948 -1.955516,0.947848 -3.026127,1.176657 -3.214062,0.686904 -0.06945,-0.180984 -0.241056,-2.285068 -0.381345,-4.675738 -0.210645,-3.589584 -0.317636,-4.488109 -0.614264,-5.158689 -0.417907,-0.94475 -0.417986,-0.945188 -0.169116,-0.945188 0.104541,0 1.04326,-0.321509 2.086041,-0.714466 4.175253,-1.573382 6.301509,-3.800675 7.113821,-7.451862 0.237873,-1.069191 0.281229,-1.852589 0.199709,-3.608598 -0.110453,-2.379268 -0.360671,-3.380225 -1.298239,-5.193373 -0.473775,-0.916227 -0.507366,-1.125045 -0.530779,-3.299558 -0.04637,-4.307183 -0.86185,-4.840524 -4.577689,-2.993918 l -1.665084,0.827473 -5,0.0267 c -3.194141,0.01706 -5.325693,0.10451 -5.901766,0.242142 l -0.901767,0.215445 -2.265726,-1.095266 c -2.522794,-1.219535 -3.451223,-1.443592 -4.132398,-0.997268 -0.624024,0.408876 -0.814061,1.30524 -0.815204,3.845136 l -9.96e-4,2.213299 -0.78332,1.715273 c -1.040402,2.278221 -1.250443,3.308559 -1.137625,5.58053 0.153173,3.084654 1.327558,5.952952 3.215298,7.852993 0.982378,0.988779 3.213917,2.153379 4.955647,2.586264 0.638393,0.158665 1.215871,0.321372 1.283284,0.361573 0.217767,0.129863 -0.586556,1.801774 -1.106393,2.299809 -0.400225,0.38344 -0.727485,0.502061 -1.584334,0.57427 -0.593955,0.05006 -1.294838,0.03707 -1.557519,-0.02886 -0.264428,-0.06637 -1.403027,-1.021503 -2.550962,-2.139925 -1.140349,-1.11103 -2.248883,-2.111157 -2.463408,-2.222503 -0.561261,-0.291315 -1.9330853,-0.255288 -2.1927476,0.05759 -0.2561263,0.308613 -0.1944834,0.425302 0.9003016,1.70425 0.462395,0.540179 1.279499,1.665179 1.815787,2.5 1.016549,1.582427 2.170702,2.782602 3.194498,3.321877 0.446876,0.235388 1.152002,0.335977 2.752546,0.392657 l 2.151767,0.0762 -0.223485,1.959854 c -0.215438,1.889275 -0.414986,2.470948 -0.842986,2.457253 -0.110742,-0.0035 -0.603135,-0.151916 -1.094206,-0.329718 z"
       id="path222"
       transform="scale(0.26458333)" />
    <path
       style="opacity:0.751613;fill:#d9d9d9;stroke-width:0.178571;stroke:#d9d9d9;fill-opacity:1;stroke-opacity:1"
       d="M 17.748481,47.474394 C 15.168723,46.545835 12.083255,44.541228 10.00085,42.440812 7.0299662,39.44423 5.2966412,36.284569 4.1925528,31.852924 3.5791085,29.390651 3.4071094,24.613871 3.8422226,22.12351 4.6009445,17.780985 7.1087549,12.895998 10.110306,9.9138538 14.084478,5.9653775 18.695087,3.9249853 24.376382,3.6005031 c 4.772391,-0.2725709 9.375445,0.976794 13.378743,3.6312712 5.123523,3.3972657 8.4756,8.3739137 9.696355,14.3956557 0.460384,2.270978 0.260382,7.951376 -0.365869,10.391368 -1.096734,4.273076 -2.764333,7.224075 -5.799817,10.263417 -2.147753,2.150483 -3.722876,3.32692 -5.99921,4.480718 -2.03499,1.031468 -3.175847,1.292709 -3.375316,0.772899 -0.06889,-0.179513 -0.24692,-2.297854 -0.395634,-4.707426 -0.218361,-3.538067 -0.337265,-4.532375 -0.617956,-5.167562 -0.191162,-0.432588 -0.326505,-0.80628 -0.30076,-0.830427 0.02574,-0.02415 0.688539,-0.258598 1.472878,-0.521003 5.876009,-1.96585 8.336429,-5.39932 8.065254,-11.254902 -0.108739,-2.348047 -0.387563,-3.499822 -1.275177,-5.26756 -0.560893,-1.117055 -0.583032,-1.242141 -0.584748,-3.303869 -0.0021,-2.464137 -0.244616,-3.422089 -0.969316,-3.828091 -0.625782,-0.350584 -1.615886,-0.105502 -3.715654,0.919741 l -1.517857,0.741117 -4.910714,0.02457 c -3.095015,0.01548 -5.278698,0.104782 -5.905957,0.241514 l -0.995242,0.216948 -2.219044,-1.076843 c -3.26933,-1.586518 -4.035769,-1.63825 -4.637387,-0.313008 -0.280207,0.617237 -0.342375,1.175172 -0.345591,3.101549 l -0.0039,2.348921 -0.709667,1.490364 c -1.262399,2.651153 -1.537364,4.713314 -1.001739,7.512773 0.867415,4.533568 3.439226,7.385282 7.701596,8.5398 0.781288,0.211623 1.478332,0.438434 1.548986,0.504027 0.195007,0.181037 -0.642959,1.839803 -1.178703,2.333261 -0.359765,0.331367 -0.72602,0.453548 -1.534982,0.512064 -0.584362,0.04227 -1.27602,0.02325 -1.53702,-0.04225 -0.260999,-0.06551 -1.32866,-0.943945 -2.372579,-1.952084 C 12.926436,36.749317 11.840501,35.748824 11.557167,35.53414 10.997831,35.110324 9.8876214,35.010278 9.2904532,35.329872 8.86294,35.55867 9.0042925,35.881011 10.109388,37.197374 c 0.412258,0.491071 1.238514,1.625587 1.836125,2.521148 1.078849,1.616727 2.134806,2.697495 3.162521,3.236825 0.367698,0.192964 1.217065,0.307586 2.708169,0.365468 l 2.172455,0.08433 -0.07439,0.556829 c -0.04091,0.306255 -0.155689,1.192668 -0.255055,1.969805 -0.178416,1.395393 -0.385531,1.896722 -0.778401,1.884152 -0.110742,-0.0035 -0.620281,-0.157232 -1.132309,-0.341532 z"
       id="path224"
       transform="scale(0.26458333)" />
    <path
       style="opacity:0.751613;fill:#d9d9d9;stroke-width:0.178571;stroke:#d9d9d9;fill-opacity:1;stroke-opacity:1"
       d="M 17.748481,47.474394 C 17.236453,47.290096 16.103924,46.763057 15.231748,46.303196 9.4047823,43.23089 5.4786973,37.949096 4.0164975,31.215226 3.7551164,30.011487 3.6865989,28.921312 3.6854132,25.947369 3.6840696,22.577246 3.7258886,22.04361 4.0982346,20.679512 5.3724805,16.011285 8.0061894,11.613875 11.140158,8.9218627 15.372076,5.2867345 20.0988,3.5366546 25.684861,3.5366546 c 10.456835,0 19.744144,7.6865104 21.756882,18.0067804 0.30361,1.55675 0.34018,6.055439 0.06705,8.247904 -0.736961,5.915682 -3.910347,11.142959 -9.188611,15.135705 -2.289207,1.73167 -6.036998,3.346907 -6.400616,2.758559 -0.06036,-0.09767 -0.230187,-2.059021 -0.377389,-4.358561 -0.287586,-4.492603 -0.371018,-5.152736 -0.745381,-5.897591 -0.133294,-0.265212 -0.242353,-0.519773 -0.242353,-0.565693 0,-0.04592 0.662946,-0.301048 1.473214,-0.566955 3.503018,-1.149591 5.816716,-2.87748 6.974759,-5.208811 0.929948,-1.872136 1.106357,-2.725875 1.099116,-5.319194 -0.0077,-2.741538 -0.206509,-3.734947 -1.151136,-5.750729 -0.68698,-1.465977 -0.703705,-1.54888 -0.706178,-3.500405 -0.0055,-4.326988 -0.77662,-4.812989 -4.654061,-2.933186 l -1.517857,0.735865 -4.732143,0.02463 c -2.898307,0.01508 -5.185318,0.110114 -5.901546,0.245226 L 20.269208,14.8108 18.418975,13.905993 c -4.663433,-2.280525 -5.204316,-2.028163 -5.332068,2.48781 -0.06587,2.328346 -0.118443,2.678627 -0.52171,3.475817 -1.173241,2.319299 -1.363837,3.078108 -1.369607,5.452754 -0.0062,2.540466 0.248006,3.712504 1.275646,5.882102 1.218401,2.572339 3.688992,4.48116 6.833207,5.27945 0.638393,0.162082 1.22206,0.353832 1.297039,0.42611 0.07498,0.07228 -0.116341,0.637047 -0.425156,1.25504 -0.658005,1.316784 -1.182556,1.621584 -2.7907,1.621584 -1.263735,0 -1.35856,-0.06037 -3.848673,-2.450379 -1.060512,-1.017877 -2.130476,-1.927589 -2.377696,-2.021582 -0.630719,-0.239798 -1.5509529,-0.212596 -1.9192833,0.05673 -0.3492844,0.255404 -0.4180446,0.130684 1.3686763,2.482557 0.471778,0.621006 1.257015,1.711207 1.744971,2.422673 1.113798,1.623975 2.352353,2.627617 3.56307,2.887268 0.497932,0.106788 1.62554,0.194159 2.505795,0.194159 h 1.600463 l -0.09145,0.669643 c -0.0503,0.368304 -0.165852,1.256939 -0.256783,1.974745 -0.162977,1.286536 -0.399189,1.826086 -0.793921,1.813455 -0.110742,-0.0035 -0.620281,-0.157232 -1.132309,-0.341532 z"
       id="path226"
       transform="scale(0.26458333)" />
    <path
       style="opacity:0.751613;fill:#d9d9d9;stroke-width:0.178571;stroke:#d9d9d9;fill-opacity:1;stroke-opacity:1"
       d="M 17.518606,47.411369 C 14.630965,46.257292 12.003888,44.491485 9.7437924,42.185478 6.8768816,39.26033 4.9439372,35.548262 3.9905287,31.13679 3.7502965,30.025223 3.6795032,28.843242 3.6797148,25.947369 3.679972,22.426117 3.7090866,22.093887 4.1570054,20.50094 6.0994664,13.592909 10.288702,8.3928827 16.179441,5.5776987 c 7.194966,-3.4384743 16.278523,-2.4705055 22.72835,2.4219958 4.568968,3.4657795 7.754341,8.6329075 8.615625,13.9757725 0.284914,1.767429 0.128866,7.760147 -0.245595,9.431554 -1.215537,5.425553 -4.188066,9.912077 -8.957641,13.520023 -2.321373,1.756004 -6.036986,3.346925 -6.409409,2.74433 -0.0652,-0.105494 -0.238712,-2.075092 -0.385585,-4.376885 -0.237417,-3.720802 -0.449531,-5.238368 -0.868342,-6.2125 -0.102887,-0.239315 0.09989,-0.366733 1.090967,-0.685516 4.465819,-1.436454 6.943226,-3.668522 8.030032,-7.234818 0.250462,-0.821877 0.324039,-1.63292 0.315898,-3.482143 -0.01159,-2.632772 -0.344163,-4.167263 -1.295538,-5.977639 -0.424398,-0.807591 -0.481485,-1.147457 -0.570659,-3.397361 -0.168487,-4.251094 -0.717457,-4.576486 -4.58586,-2.718186 l -1.569386,0.7539 -4.642857,0.01261 c -2.812639,0.0076 -5.135732,0.09904 -5.893172,0.231872 l -1.250315,0.219264 -2.070387,-0.984127 c -1.138713,-0.54127 -2.447728,-1.08505 -2.908922,-1.208401 -0.934795,-0.25002 -1.202352,-0.156599 -1.784451,0.623059 -0.304803,0.40825 -0.363151,0.826321 -0.421755,3.021905 -0.06753,2.530114 -0.07306,2.559225 -0.783406,4.122637 -0.97801,2.152529 -1.290136,3.718929 -1.152201,5.782297 0.257133,3.846437 2.086103,7.276914 4.738872,8.888385 0.573018,0.348091 1.873939,0.9065 2.890937,1.240913 2.082129,0.68465 2.061006,0.648627 1.254347,2.139232 -0.565138,1.044304 -1.178539,1.356786 -2.663364,1.356786 -1.260257,0 -1.343911,-0.05318 -3.86898,-2.459574 -1.99212,-1.898491 -2.424714,-2.183283 -3.316366,-2.183283 -1.3701113,0 -1.382785,0.415251 -0.06268,2.053571 0.553967,0.6875 1.441388,1.908582 1.972048,2.713516 1.775003,2.69242 2.744415,3.261796 5.792594,3.402236 l 2.112332,0.09732 -0.08727,0.643463 c -0.048,0.353905 -0.161665,1.23076 -0.252596,1.948566 -0.247777,1.955937 -0.452549,2.089744 -2.156105,1.408898 z"
       id="path228"
       transform="scale(0.26458333)" />
    <path
       style="opacity:0.751613;fill:#d9d9d9;stroke-width:0.178571;stroke:#d9d9d9;fill-opacity:1;stroke-opacity:1"
       d="M 17.608012,47.461114 C 13.153826,45.742257 8.9704533,42.179676 6.6042151,38.090226 5.6421105,36.427469 4.7442532,34.17038 4.1890353,32.018798 3.7021475,30.132008 3.6824761,29.892474 3.6904275,25.947369 3.6984155,21.984178 3.7159582,21.783898 4.1909454,20.233083 6.2989733,13.350459 10.396573,8.3413311 16.179441,5.5776987 18.056601,4.680604 19.800739,4.1621289 22.161584,3.7994032 32.833936,2.1596787 43.000034,8.3155498 46.684287,18.64862 c 0.781547,2.191972 1.013011,3.746815 1.013011,6.804835 0,5.00768 -0.534432,7.589418 -2.320155,11.2082 -2.119288,4.294755 -5.944322,8.090493 -10.292922,10.214084 -1.667784,0.814444 -2.960727,1.13983 -3.171844,0.798237 -0.06432,-0.104066 -0.239702,-2.061909 -0.389749,-4.350764 -0.243242,-3.710472 -0.465667,-5.318252 -0.862451,-6.234148 -0.100915,-0.232938 0.188032,-0.395465 1.536776,-0.864408 2.342234,-0.814366 3.618511,-1.536689 4.97955,-2.81823 2.149511,-2.023953 2.923954,-4.057805 2.908229,-7.637628 -0.01155,-2.631093 -0.250039,-3.791458 -1.196588,-5.822136 -0.585664,-1.256453 -0.619476,-1.438031 -0.694853,-3.731436 -0.08667,-2.636843 -0.26415,-3.253496 -1.027418,-3.569652 -0.635434,-0.263205 -1.146786,-0.127275 -3.397146,0.903053 l -1.875,0.858468 -4.553572,-0.01785 c -2.840412,-0.01113 -5.023893,0.06351 -5.803684,0.198403 l -1.250111,0.21625 -2.091497,-0.986532 c -2.492539,-1.175698 -3.509592,-1.472954 -4.05004,-1.183715 -0.821109,0.439444 -0.973657,0.970103 -1.047891,3.645231 l -0.07009,2.525627 -0.784236,1.785714 c -1.242715,2.829677 -1.429644,5.492859 -0.589095,8.392857 1.142492,3.94174 3.430962,6.211286 7.479074,7.417229 0.732911,0.218337 1.393912,0.451911 1.468891,0.519055 0.252622,0.226225 -0.941741,2.323356 -1.482447,2.602966 -0.717986,0.371284 -2.647208,0.348813 -3.212359,-0.03742 -0.242835,-0.165955 -1.24509,-1.06253 -2.227233,-1.992385 -2.058804,-1.949199 -2.638903,-2.34714 -3.422895,-2.348065 -1.377783,-0.0016 -1.4519943,0.418947 -0.3152005,1.786313 0.4485115,0.539482 1.3795525,1.803277 2.0689795,2.808432 1.989883,2.901166 2.817402,3.395314 5.968739,3.564198 l 2.04468,0.109577 -0.107955,0.91005 c -0.443495,3.738588 -0.511612,3.831213 -2.307777,3.138079 z"
       id="path230"
       transform="scale(0.26458333)" />
    <path
       style="opacity:0.751613;fill:#d9d9d9;stroke-width:0.178571;stroke:#d9d9d9;fill-opacity:1;stroke-opacity:1"
       d="M 17.400327,47.381223 C 14.355405,46.20898 10.773237,43.620558 8.6579774,41.064131 6.6152091,38.595314 5.1705405,35.706406 4.2718953,32.293273 3.7983298,30.494628 3.7177068,29.83586 3.6368271,27.104151 3.496022,22.348467 3.9274373,20.114307 5.724389,16.293345 8.801051,9.7512613 14.109549,5.4513346 20.940579,3.9681075 22.736687,3.5781172 26.534761,3.442444 28.461725,3.6994402 c 4.915464,0.655568 9.003732,2.6828796 12.635559,6.2657859 3.084535,3.0429879 4.760246,5.8148949 5.991353,9.9107139 0.427515,1.422309 0.492549,1.98215 0.565481,4.867849 0.09401,3.719755 -0.109549,5.89618 -0.765872,8.188573 -0.612105,2.137948 -2.153978,5.248869 -3.461602,6.984219 -1.324339,1.757531 -3.783326,4.115788 -5.592903,5.363797 -2.445363,1.686489 -5.573097,2.957105 -5.91548,2.403118 -0.06108,-0.09883 -0.194263,-1.413814 -0.295965,-2.922193 -0.3097,-4.593282 -0.52836,-6.529127 -0.814964,-7.215068 -0.150596,-0.360429 -0.249016,-0.678757 -0.218709,-0.707396 0.03031,-0.02864 0.858675,-0.349256 1.840818,-0.712479 4.179007,-1.545509 6.4799,-3.76725 7.354368,-7.101375 0.346607,-1.321525 0.384194,-5.097852 0.0644,-6.470473 C 39.7338,22.06344 39.3338,20.978619 38.959321,20.143798 38.30013,18.674269 38.275884,18.548289 38.197826,16.187134 38.064355,12.149729 37.480092,11.824654 33.590153,13.623487 l -1.696428,0.784484 -4.553572,-0.0079 c -2.82393,-0.0049 -5.014382,0.07449 -5.766734,0.209032 l -1.213161,0.216952 -2.358726,-1.074738 c -2.953145,-1.345582 -3.4782,-1.460243 -4.116989,-0.899067 -0.598284,0.525593 -0.830104,1.689756 -0.830104,4.168647 0,1.705962 -0.04144,1.91927 -0.619166,3.187004 -1.001556,2.19777 -1.233353,3.200718 -1.223308,5.293059 0.02682,5.587408 2.863391,9.453743 8.003188,10.908611 0.785714,0.222404 1.460471,0.428795 1.49946,0.458648 0.03899,0.02985 -0.187386,0.578907 -0.503054,1.220122 -0.380303,0.772502 -0.74765,1.255669 -1.088806,1.432087 -0.614323,0.317679 -2.533963,0.354082 -3.088982,0.05858 -0.214526,-0.114216 -1.311863,-1.078145 -2.438528,-2.142061 -1.180791,-1.115028 -2.301394,-2.017862 -2.645568,-2.13145 -0.764251,-0.252226 -1.8238076,-0.06763 -1.8238076,0.317738 0,0.156564 0.427475,0.815869 0.9499446,1.465123 0.52247,0.649254 1.37375,1.810761 1.891733,2.581125 1.962014,2.917977 2.864913,3.465318 5.992959,3.632954 1.310899,0.07025 2.05696,0.181432 2.054749,0.3062 -0.01474,0.83185 -0.541966,3.742448 -0.715857,3.951975 -0.290788,0.350376 -0.598558,0.321309 -1.899071,-0.179366 z"
       id="path232"
       transform="scale(0.26458333)" />
    <path
       style="opacity:0.751613;fill:#d9d9d9;stroke-width:0.178571;fill-opacity:1"
       d=""
       id="path234"
       transform="scale(0.26458333)" />
    <path
       style="opacity:0.751613;fill:#d9d9d9;stroke-width:0.178571;fill-opacity:1"
       d=""
       id="path236"
       transform="scale(0.26458333)" />
    <path
       style="opacity:0.751613;fill:#d9d9d9;stroke-width:0.178571;fill-opacity:1"
       d=""
       id="path238"
       transform="scale(0.26458333)" />
    <path
       style="fill:#d9d9d9;stroke:#d9d9d9;stroke-width:0.252538;fill-opacity:1;stroke-opacity:1"
       d="M 16.836416,47.14853 C 11.703971,45.017123 7.148469,40.25561 5.0354419,34.813888 3.6224724,31.175041 3.1114577,25.211187 3.8956763,21.512131 5.4605155,14.13099 10.791967,7.5988909 17.320704,5.0637743 22.266314,3.1433879 28.065456,3.0607161 33.185482,4.8376081 c 6.869199,2.3839371 12.665523,9.0188609 14.21271,16.2689699 0.492217,2.306533 0.321011,8.88587 -0.290002,11.144601 -1.056534,3.905676 -3.000161,7.287051 -5.812966,10.112955 -2.72203,2.734705 -7.057221,5.417436 -8.755184,5.417941 -0.772203,2.3e-4 -0.827805,-0.258917 -1.110718,-5.176832 -0.155023,-2.694777 -0.416185,-4.620057 -0.740515,-5.459026 -0.122847,-0.317779 0.136083,-0.504397 1.168282,-0.842011 3.490478,-1.141679 6.113178,-3.135995 7.26956,-5.527817 1.360703,-2.814435 1.275916,-7.333744 -0.200707,-10.698093 -0.676608,-1.541589 -0.791164,-2.104834 -0.794349,-3.905617 -0.0065,-3.700827 -0.770388,-4.164479 -4.323842,-2.624573 l -2.07482,0.899134 -4.690625,0.01455 c -2.579843,0.008 -5.145193,0.09766 -5.700777,0.199224 -0.875397,0.160036 -1.32632,0.0378 -3.380223,-0.916297 -4.117039,-1.912486 -4.63583,-1.639843 -4.837694,2.54238 -0.114065,2.363215 -0.249812,3.077398 -0.81993,4.31376 -1.492584,3.236834 -1.47755,6.8988 0.04166,10.147052 1.309178,2.799178 3.19001,4.418907 6.317121,5.440159 0.917903,0.299768 1.763353,0.63109 1.878779,0.73627 0.232882,0.212212 -0.608105,2.016332 -1.14927,2.465459 -0.329147,0.273168 -1.724978,0.444154 -2.886457,0.353583 -0.298577,-0.02328 -1.562154,-0.995901 -2.807951,-2.16138 -2.371699,-2.21879 -2.979949,-2.572121 -3.991015,-2.318358 -0.7919263,0.19876 -0.7725286,0.449644 0.1129843,1.461297 0.3993567,0.456245 1.3471617,1.738674 2.1062317,2.849842 0.759071,1.111168 1.862427,2.361231 2.451902,2.777919 0.964837,0.682025 1.29942,0.766532 3.353382,0.846998 l 2.281609,0.08938 -0.177061,1.796887 c -0.290034,2.943385 -0.511457,3.09566 -2.999181,2.062557 z"
       id="path240"
       transform="scale(0.26458333)" />
  </g>
</svg>
