<?xml version="1.0" encoding="UTF-8" standalone="no"?>
<svg
   xmlns:dc="http://purl.org/dc/elements/1.1/"
   xmlns:cc="http://creativecommons.org/ns#"
   xmlns:rdf="http://www.w3.org/1999/02/22-rdf-syntax-ns#"
   xmlns:svg="http://www.w3.org/2000/svg"
   xmlns="http://www.w3.org/2000/svg"
   width="200"
   height="200"
   viewBox="0 0 52.916665 52.916668"
   version="1.1"
   id="svg871">
  <defs
     id="defs865">
    <marker
       style="overflow:visible"
       id="marker1835"
       refX="0.0"
       refY="0.0"
       orient="auto">
      <path
         transform="scale(0.8) translate(12.5,0)"
         style="fill-rule:evenodd;stroke:#000000;stroke-width:1.0pt"
         d="M 0.0,0.0 L 5.0,-5.0 L -12.5,0.0 L 5.0,5.0 L 0.0,0.0 z "
         id="path1833" />
    </marker>
    <marker
       style="overflow:visible"
       id="marker1813"
       refX="0.0"
       refY="0.0"
       orient="auto">
      <path
         transform="scale(0.8) translate(12.5,0)"
         style="fill-rule:evenodd;stroke:#000000;stroke-width:1.0pt"
         d="M 0.0,0.0 L 5.0,-5.0 L -12.5,0.0 L 5.0,5.0 L 0.0,0.0 z "
         id="path1811" />
    </marker>
    <marker
       style="overflow:visible"
       id="marker1797"
       refX="0.0"
       refY="0.0"
       orient="auto">
      <path
         transform="scale(0.8) translate(12.5,0)"
         style="fill-rule:evenodd;stroke:#000000;stroke-width:1.0pt"
         d="M 0.0,0.0 L 5.0,-5.0 L -12.5,0.0 L 5.0,5.0 L 0.0,0.0 z "
         id="path1795" />
    </marker>
    <marker
       style="overflow:visible"
       id="Arrow1Lstart"
       refX="0.0"
       refY="0.0"
       orient="auto">
      <path
         transform="scale(0.8) translate(12.5,0)"
         style="fill-rule:evenodd;stroke:#000000;stroke-width:1.0pt"
         d="M 0.0,0.0 L 5.0,-5.0 L -12.5,0.0 L 5.0,5.0 L 0.0,0.0 z "
         id="path1525" />
    </marker>
    <rect
       x="63.672427"
       y="80.077325"
       width="93.552958"
       height="78.357871"
       id="rect1521" />
    <rect
       x="-35.456863"
       y="47.917857"
       width="102.51818"
       height="82.785147"
       id="rect1473" />
    <rect
       x="-9.0714285"
       y="-5.6696428"
       width="78.997024"
       height="84.28869"
       id="rect1456" />
    <rect
       x="7.4835467"
       y="9.621703"
       width="38.486812"
       height="35.814117"
       id="rect1450" />
  </defs>
  <metadata
     id="metadata868">
    <rdf:RDF>
      <cc:Work
         rdf:about="">
        <dc:format>image/svg+xml</dc:format>
        <dc:type
           rdf:resource="http://purl.org/dc/dcmitype/StillImage" />
        <dc:title></dc:title>
      </cc:Work>
    </rdf:RDF>
  </metadata>
  <g
     id="layer2"
     style="display:inline">
    <g
       aria-label="Ai"
       transform="matrix(0.77168541,0,0,0.82003188,20.412536,10.685231)"
       id="text1454"
       style="font-size:45.8611px;line-height:1.25;font-family:Miriam;-inkscape-font-specification:Miriam;white-space:pre;shape-inside:url(#rect1456);fill:#2b2b2f;fill-opacity:1;stroke:none;stroke-opacity:1" />
    <g
       id="g140"
       style="font-size:45.8611px;line-height:1.25;font-family:Miriam;-inkscape-font-specification:Miriam;white-space:pre;clip-rule:evenodd;fill:#d9d9d9;fill-opacity:1;fill-rule:evenodd;stroke:none;stroke-opacity:1;image-rendering:optimizeQuality;shape-rendering:geometricPrecision;text-rendering:geometricPrecision"
       transform="matrix(0.09303996,0,0,0.09303996,-15.368859,2.684962)">
      <path
         style="opacity:1;fill:#d9d9d9;fill-opacity:1"
         fill="#e85823"
         d="m 431.5,-0.5 c 10.667,0 21.333,0 32,0 58.124,4.03583 109.457,24.7025 154,62 41.941,37.1833 69.608,83.183 83,138 1.229,6.812 2.562,13.479 4,20 0.554,6.653 0.888,13.32 1,20 0,6.667 0,13.333 0,20 0,6.667 0,13.333 0,20 -2.699,27.843 -9.699,54.51 -21,80 -6.189,13.83 -13.189,27.163 -21,40 C 595.169,490.793 504.503,526.293 391.5,506 307.789,483.951 248.289,433.451 213,354.5 176.905,257.142 191.238,168.142 256,87.5 303.159,35.6704 361.659,6.33706 431.5,-0.5 Z"
         id="path138" />
    </g>
    <g
       id="g348"
       style="font-size:45.8611px;line-height:1.25;font-family:Miriam;-inkscape-font-specification:Miriam;white-space:pre;clip-rule:evenodd;fill:#2b2b2b;fill-opacity:1;fill-rule:evenodd;stroke:#2b2b2b;stroke-opacity:1;image-rendering:optimizeQuality;shape-rendering:geometricPrecision;text-rendering:geometricPrecision"
       transform="matrix(0.09303996,0,0,0.09303996,-15.368859,2.684962)">
      <path
         style="opacity:1;fill:#2b2b2b;fill-opacity:1;stroke:#2b2b2b;stroke-opacity:1"
         fill="#fefdfd"
         d="m 303.5,89.5 c 97.667,0 195.333,0 293,0 -8.998,99.989 -17.998,199.989 -27,300 -39.984,10.663 -79.984,21.33 -120,32 -40.045,-10.302 -79.878,-21.302 -119.5,-33 -8.558,-99.696 -17.391,-199.362 -26.5,-299 z"
         id="path346" />
    </g>
  </g>
  <g
     id="layer1">
    <text
       xml:space="preserve"
       id="text1448"
       style="font-size:35.2778px;line-height:1.25;font-family:Miriam;-inkscape-font-specification:Miriam;white-space:pre;shape-inside:url(#rect1450);"><tspan
         style="visibility:hidden"
         x="7.484375"
         y="75.953209"><tspan
           dx="0 21.170126"
           style="font-size:35.2778px">Ai</tspan></tspan></text>
    <path
       style="fill:#d9d9df;fill-opacity:1;stroke:#d9d9d9;stroke-width:0.264583px;stroke-linecap:butt;stroke-linejoin:miter;stroke-opacity:1"
       d="m 35.012278,16.780516 -17.119351,-0.09304 0.930399,10.327434 11.909115,0.09304 -0.465201,4.419399 -3.814637,0.976918 -3.814638,-1.02344 -0.18608,-2.698157 h -3.442479 l 0.55824,5.349796 6.884957,1.90732 6.977996,-1.90732 0.930402,-10.466994 H 21.986685 l -0.27912,-3.535519 h 13.025593 z"
       id="path6334" />
  </g>
</svg>
