<?xml version="1.0" encoding="UTF-8"?>
<!DOCTYPE svg PUBLIC "-//W3C//DTD SVG 1.1//EN" "http://www.w3.org/Graphics/SVG/1.1/DTD/svg11.dtd">
<svg xmlns="http://www.w3.org/2000/svg" version="1.1" width="512px" height="512px" style="shape-rendering:geometricPrecision; text-rendering:geometricPrecision; image-rendering:optimizeQuality; fill-rule:evenodd; clip-rule:evenodd" xmlns:xlink="http://www.w3.org/1999/xlink">
<g><path style="opacity:1" fill="#0277b5" d="M 28.5,-0.5 C 179.833,-0.5 331.167,-0.5 482.5,-0.5C 496.732,4.06453 506.398,13.3979 511.5,27.5C 511.5,179.5 511.5,331.5 511.5,483.5C 506.398,497.602 496.732,506.935 482.5,511.5C 331.167,511.5 179.833,511.5 28.5,511.5C 13.9378,507.272 4.2711,497.938 -0.5,483.5C -0.5,331.5 -0.5,179.5 -0.5,27.5C 4.2711,13.0617 13.9378,3.72837 28.5,-0.5 Z"/></g>
<g><path style="opacity:1" fill="#fdfefe" d="M 102.5,70.5 C 128.884,67.262 146.717,77.9287 156,102.5C 159.575,120.374 154.741,135.541 141.5,148C 124.77,159.357 107.437,160.357 89.5,151C 73.6685,139.527 67.1685,124.027 70,104.5C 75.2843,87.7186 86.1176,76.3853 102.5,70.5 Z"/></g>
<g><path style="opacity:1" fill="#fefefe" d="M 275.5,301.5 C 274.501,345.997 274.168,390.664 274.5,435.5C 249.5,435.5 224.5,435.5 199.5,435.5C 199.5,354.167 199.5,272.833 199.5,191.5C 223.5,191.5 247.5,191.5 271.5,191.5C 271.168,202.52 271.501,213.52 272.5,224.5C 273.107,224.376 273.44,224.043 273.5,223.5C 287.231,201.983 306.898,189.483 332.5,186C 396.483,180.32 430.65,209.487 435,273.5C 435.5,327.499 435.667,381.499 435.5,435.5C 410.5,435.5 385.5,435.5 360.5,435.5C 360.667,389.832 360.5,344.165 360,298.5C 358.248,260.046 338.748,245.546 301.5,255C 288.944,260.56 281.111,270.06 278,283.5C 276.559,289.419 275.726,295.419 275.5,301.5 Z"/></g>
<g><path style="opacity:1" fill="#fefffe" d="M 75.5,191.5 C 100.833,191.5 126.167,191.5 151.5,191.5C 151.5,272.833 151.5,354.167 151.5,435.5C 126.167,435.5 100.833,435.5 75.5,435.5C 75.5,354.167 75.5,272.833 75.5,191.5 Z"/></g>
<g><path style="opacity:1" fill="#56a4cd" d="M 271.5,191.5 C 272.167,202.167 272.833,212.833 273.5,223.5C 273.44,224.043 273.107,224.376 272.5,224.5C 271.501,213.52 271.168,202.52 271.5,191.5 Z"/></g>
<g><path style="opacity:1" fill="#56a1cc" d="M 275.5,301.5 C 275.5,346.5 275.5,391.5 275.5,436.5C 249.995,436.831 224.661,436.498 199.5,435.5C 224.5,435.5 249.5,435.5 274.5,435.5C 274.168,390.664 274.501,345.997 275.5,301.5 Z"/></g>
</svg>
