<?xml version="1.0" encoding="UTF-8" standalone="no"?>
<svg
   xmlns:dc="http://purl.org/dc/elements/1.1/"
   xmlns:cc="http://creativecommons.org/ns#"
   xmlns:rdf="http://www.w3.org/1999/02/22-rdf-syntax-ns#"
   xmlns:svg="http://www.w3.org/2000/svg"
   xmlns="http://www.w3.org/2000/svg"
   width="200"
   height="200"
   viewBox="0 0 52.916665 52.916668"
   version="1.1"
   id="svg871">
  <defs
     id="defs865">
    <marker
       style="overflow:visible"
       id="marker1835"
       refX="0.0"
       refY="0.0"
       orient="auto">
      <path
         transform="scale(0.8) translate(12.5,0)"
         style="fill-rule:evenodd;stroke:#000000;stroke-width:1.0pt"
         d="M 0.0,0.0 L 5.0,-5.0 L -12.5,0.0 L 5.0,5.0 L 0.0,0.0 z "
         id="path1833" />
    </marker>
    <marker
       style="overflow:visible"
       id="marker1813"
       refX="0.0"
       refY="0.0"
       orient="auto">
      <path
         transform="scale(0.8) translate(12.5,0)"
         style="fill-rule:evenodd;stroke:#000000;stroke-width:1.0pt"
         d="M 0.0,0.0 L 5.0,-5.0 L -12.5,0.0 L 5.0,5.0 L 0.0,0.0 z "
         id="path1811" />
    </marker>
    <marker
       style="overflow:visible"
       id="marker1797"
       refX="0.0"
       refY="0.0"
       orient="auto">
      <path
         transform="scale(0.8) translate(12.5,0)"
         style="fill-rule:evenodd;stroke:#000000;stroke-width:1.0pt"
         d="M 0.0,0.0 L 5.0,-5.0 L -12.5,0.0 L 5.0,5.0 L 0.0,0.0 z "
         id="path1795" />
    </marker>
    <marker
       style="overflow:visible"
       id="Arrow1Lstart"
       refX="0.0"
       refY="0.0"
       orient="auto">
      <path
         transform="scale(0.8) translate(12.5,0)"
         style="fill-rule:evenodd;stroke:#000000;stroke-width:1.0pt"
         d="M 0.0,0.0 L 5.0,-5.0 L -12.5,0.0 L 5.0,5.0 L 0.0,0.0 z "
         id="path1525" />
    </marker>
    <rect
       x="63.672427"
       y="80.077325"
       width="93.552958"
       height="78.357871"
       id="rect1521" />
    <rect
       x="-35.456863"
       y="47.917857"
       width="102.51818"
       height="82.785147"
       id="rect1473" />
    <rect
       x="-9.0714285"
       y="-5.6696428"
       width="78.997024"
       height="84.28869"
       id="rect1456" />
    <rect
       x="7.4835467"
       y="9.621703"
       width="38.486812"
       height="35.814117"
       id="rect1450" />
  </defs>
  <metadata
     id="metadata868">
    <rdf:RDF>
      <cc:Work
         rdf:about="">
        <dc:format>image/svg+xml</dc:format>
        <dc:type
           rdf:resource="http://purl.org/dc/dcmitype/StillImage" />
        <dc:title></dc:title>
      </cc:Work>
    </rdf:RDF>
  </metadata>
  <g
     id="layer2"
     style="display:inline;opacity:0.999">
    <g
       aria-label="Ai"
       transform="matrix(0.77168541,0,0,0.82003188,20.412536,10.685231)"
       id="text1454"
       style="font-size:45.8611px;line-height:1.25;font-family:Miriam;-inkscape-font-specification:Miriam;white-space:pre;shape-inside:url(#rect1456);fill:#2b2b2f;fill-opacity:1;stroke:none;stroke-opacity:1" />
  </g>
  <g
     id="layer3"
     style="display:inline;opacity:0.988">
    <g
       id="g2628"
       style="clip-rule:evenodd;fill:#828282;fill-opacity:1;fill-rule:evenodd;image-rendering:optimizeQuality;shape-rendering:geometricPrecision;text-rendering:geometricPrecision"
       transform="matrix(0.087687,0,0,0.087687,-5.4652145,-5.6331127)">
      <path
         style="opacity:1;fill:#828282;fill-opacity:1"
         fill="#80bc08"
         d="m 357.5,269.5 c 0.667,0 1.333,0 2,0 3.667,0 7.333,0 11,0 1.419,0.951 3.085,1.284 5,1 5.294,2.982 10.627,5.982 16,9 9.302,5.53 18.635,10.864 28,16 9.726,6.195 19.726,11.862 30,17 1.159,1.75 2.826,2.75 5,3 2.508,2.424 5.508,4.09 9,5 4.71,4.024 10.043,7.024 16,9 4.229,4.217 9.229,7.217 15,9 9.695,6.331 19.695,12.331 30,18 2,1.333 4,2.667 6,4 2.465,4.128 4.465,8.461 6,13 0,0.667 0,1.333 0,2 0.167,58.668 0,117.334 -0.5,176 -0.833,0.833 -1.667,1.667 -2.5,2.5 0.906,1.699 1.239,3.533 1,5.5 -1.907,3.583 -4.24,6.917 -7,10 -0.992,-0.172 -1.658,0.162 -2,1 -10.702,6.348 -21.369,12.681 -32,19 -10.301,5.15 -20.301,10.817 -30,17 -9.989,5.219 -19.656,10.885 -29,17 -3.652,1.492 -6.985,3.492 -10,6 -1.667,0.667 -3.333,1.333 -5,2 -8.28,5.192 -16.613,10.192 -25,15 -5.247,2.293 -10.247,5.126 -15,8.5 -11.908,5.302 -23.242,4.468 -34,-2.5 -4.407,-3.063 -9.074,-5.73 -14,-8 -0.342,-0.838 -1.008,-1.172 -2,-1 -4.718,-3.367 -9.718,-6.367 -15,-9 -4.936,-3.142 -9.936,-6.309 -15,-9.5 -2.667,-2 -2.667,-4 0,-6 5.133,-1.543 10.133,-3.377 15,-5.5 4.559,-4.261 9.559,-4.928 15,-2 10.436,6.726 21.103,13.226 32,19.5 2,0.667 4,0.667 6,0 0.556,-0.383 0.889,-0.883 1,-1.5 1.983,-0.971 3.983,-1.971 6,-3 10.31,-5.678 20.31,-11.678 30,-18 10.257,-5.131 20.257,-10.798 30,-17 4.5,-2.083 8.834,-4.416 13,-7 0.342,-0.838 1.008,-1.172 2,-1 10.707,-5.012 20.707,-11.012 30,-18 10.779,-5.257 21.112,-11.257 31,-18 0.997,-7.638 1.331,-15.304 1,-23 0,-40 0,-80 0,-120 0.331,-8.36 -0.002,-16.693 -1,-25 -10.191,-6.354 -20.524,-12.354 -31,-18 -1.171,-0.845 -2.505,-1.511 -4,-2 -3.992,-2.33 -7.992,-4.663 -12,-7 -4.135,-2.569 -8.468,-4.903 -13,-7 0,-0.667 -0.333,-1 -1,-1 -4.799,-3.237 -9.799,-6.237 -15,-9 -10.133,-5.725 -20.133,-11.391 -30,-17 -10,-5.667 -20,-11.333 -30,-17 -0.79,-0.901 -1.79,-1.568 -3,-2 -2.335,-2.827 -5.335,-3.993 -9,-3.5 -6.563,4.442 -13.229,8.609 -20,12.5 -3.257,1.269 -6.257,2.936 -9,5 -1.934,0.61 -3.601,1.61 -5,3 -10.163,4.911 -19.83,10.578 -29,17 -10.325,5.16 -20.325,10.827 -30,17 -3.671,1.836 -7.338,3.669 -11,5.5 -1.563,0.759 -2.563,1.926 -3,3.5 -0.333,0 -0.667,0 -1,0 -6.168,2.58 -11.835,5.914 -17,10 -2.95,0.808 -5.617,2.142 -8,4 -1.934,0.61 -3.601,1.61 -5,3 -0.667,0.333 -1.333,0.667 -2,1 -1.517,0.011 -2.684,0.677 -3.5,2 -0.832,56.168 -0.665,112.168 0.5,168 1.079,2.043 2.746,3.376 5,4 10.032,5.681 20.032,11.347 30,17 0.891,0.61 1.891,0.943 3,1 3.133,3.567 7.133,5.567 12,6 11.054,1.443 18.721,-2.89 23,-13 0.833,-56.499 1.333,-113.165 1.5,-170 4.252,-0.652 8.585,-0.986 13,-1 4.557,0.009 8.724,0.675 12.5,2 0.996,56.929 1.329,113.929 1,171 -0.951,1.419 -1.284,3.085 -1,5 0.162,2.027 -0.005,4.027 -0.5,6 -1.094,1.578 -1.928,3.245 -2.5,5 -2.149,3.77 -4.482,7.436 -7,11 -7.216,6.106 -15.549,9.772 -25,11 -5,0 -10,0 -15,0 -5.771,-1.026 -11.438,-2.526 -17,-4.5 -3.819,-3.216 -8.152,-5.383 -13,-6.5 -5.672,-3.835 -11.338,-7.668 -17,-11.5 -4.629,-1.648 -8.962,-3.814 -13,-6.5 -2.136,-1.153 -4.136,-2.486 -6,-4 -3.105,-2.775 -5.438,-6.108 -7,-10 -1.296,-31.429 -1.963,-62.929 -2,-94.5 0.167,-29.833 0.333,-59.667 0.5,-89.5 0.822,-2.617 1.322,-5.284 1.5,-8 1.333,-2.333 2.667,-4.667 4,-7 3.045,-3.047 6.378,-5.713 10,-8 4.82,-1.574 9.153,-3.907 13,-7 0.992,0.172 1.658,-0.162 2,-1 4.734,-2.696 9.401,-5.362 14,-8 4.035,-2.348 8.035,-4.682 12,-7 1.495,-0.489 2.829,-1.155 4,-2 10.362,-5.135 20.029,-11.135 29,-18 1.808,0.009 3.475,-0.491 5,-1.5 8.286,-5.128 16.619,-9.961 25,-14.5 4.694,-3.01 9.36,-6.01 14,-9 0.333,0 0.667,0 1,0 5.225,-2.773 10.225,-5.773 15,-9 4.262,-2.3 8.595,-4.3 13,-6 z"
         id="path2626" />
    </g>
    <g
       id="g3660"
       style="clip-rule:evenodd;fill:#828282;fill-opacity:1;fill-rule:evenodd;image-rendering:optimizeQuality;shape-rendering:geometricPrecision;text-rendering:geometricPrecision"
       transform="matrix(0.087687,0,0,0.087687,-5.4652145,-5.6331127)">
      <path
         style="opacity:1;fill:#828282;fill-opacity:1"
         fill="#80bc0a"
         d="m 389.5,387.5 c 8.667,0 17.333,0 26,0 1.333,0 2.667,0 4,0 9.436,1.692 18.77,4.026 28,7 5.574,3.559 10.907,7.559 16,12 3.828,5.327 6.828,10.994 9,17 0.667,3.667 1.333,7.333 2,11 0.329,2.728 -0.337,5.062 -2,7 -7.667,0 -15.333,0 -23,0 -2.203,-2.993 -3.869,-6.326 -5,-10 -0.847,-5.329 -3.847,-8.995 -9,-11 -0.333,-1 -1,-1.667 -2,-2 -4.212,-2.556 -8.878,-3.89 -14,-4 -1.208,-0.734 -2.541,-1.067 -4,-1 -8.525,-1.259 -17.192,-1.259 -26,0 -8.858,0.346 -16.025,4.012 -21.5,11 -0.498,3.317 -0.665,6.65 -0.5,10 -0.143,4.265 1.857,6.931 6,8 4.403,1.908 9.07,3.241 14,4 5.475,1.359 11.142,2.359 17,3 4.769,1.389 9.769,2.056 15,2 4.953,0.911 9.953,1.578 15,2 4.839,1.514 9.839,2.847 15,4 4.599,1.961 9.265,3.961 14,6 0.342,0.838 1.008,1.172 2,1 6.155,4.325 10.655,9.992 13.5,17 0.498,3.317 0.665,6.65 0.5,10 0.166,5.344 -10e-4,10.677 -0.5,16 -1.37,4.148 -2.87,8.148 -4.5,12 -3.36,4.027 -7.027,7.694 -11,11 -8.9,6.076 -18.567,10.41 -29,13 -6.537,0.086 -12.87,0.753 -19,2 -3.667,0 -7.333,0 -11,0 -4.953,-0.829 -9.953,-1.163 -15,-1 -4.985,-0.748 -9.985,-1.415 -15,-2 -10.671,-3.451 -20.337,-8.785 -29,-16 -0.333,-1 -1,-1.667 -2,-2 -3.967,-4.264 -6.633,-9.264 -8,-15 0,-0.333 0,-0.667 0,-1 -1.752,-6.181 -2.419,-12.514 -2,-19 0.418,-0.722 1.084,-1.222 2,-1.5 2.982,-0.498 5.982,-0.665 9,-0.5 5.095,-0.279 10.095,0.055 15,1 0.734,1.208 1.067,2.541 1,4 1.826,15.395 10.492,23.728 26,25 5.75,1.65 11.75,2.316 18,2 5.858,0.322 11.525,-0.011 17,-1 4.034,-0.172 8.034,-0.672 12,-1.5 0.556,-0.383 0.889,-0.883 1,-1.5 2.811,-0.326 5.478,-1.159 8,-2.5 1.323,-0.816 1.989,-1.983 2,-3.5 3.07,-0.743 4.736,-2.743 5,-6 1.497,-1.79 2.164,-3.956 2,-6.5 0.164,-2.544 -0.503,-4.71 -2,-6.5 -4.538,-3.437 -9.538,-6.104 -15,-8 -4.915,-1.383 -9.915,-2.383 -15,-3 -9.918,-1.72 -19.918,-2.72 -30,-3 -4.508,-1.201 -9.175,-2.201 -14,-3 -5.233,-1.648 -10.567,-3.314 -16,-5 -2.289,-1.887 -4.955,-3.221 -8,-4 -1.952,-2.618 -4.285,-4.952 -7,-7 -0.669,-3.349 -2.336,-6.016 -5,-8 0.341,-3.66 -0.325,-6.993 -2,-10 -0.321,-5.526 0.012,-10.86 1,-16 3.087,-12.135 10.087,-21.469 21,-28 4.735,-2.039 9.401,-4.039 14,-6 0.333,0 0.667,0 1,0 4.963,-0.926 9.963,-1.592 15,-2 z"
         id="path3658" />
    </g>
    <g
       id="g1696"
       style="clip-rule:evenodd;fill:#828282;fill-opacity:1;fill-rule:evenodd;image-rendering:optimizeQuality;shape-rendering:geometricPrecision;text-rendering:geometricPrecision"
       transform="matrix(0.087687,0,0,0.087687,-5.4652145,-5.6331127)">
      <path
         style="opacity:1;fill:#828282;fill-opacity:1"
         fill="#80bc07"
         d="m 299.5,146.5 c 1.09,1.357 2.424,2.357 4,3 3.625,1.93 7.292,3.93 11,6 5.054,2.808 10.054,5.808 15,9 0.333,0 0.667,0 1,0 3.479,3.128 7.479,5.461 12,7 3.206,1.564 4.54,4.231 4,8 0,5 0,10 0,15 0,5 0,10 0,15 0,5 0,10 0,15 0.226,5.062 -0.108,10.062 -1,15 -0.333,0 -0.667,0 -1,0 -10.333,5.164 -20.333,10.831 -30,17 -7.256,4.795 -14.923,8.795 -23,12 -7.509,-3.283 -14.843,-6.95 -22,-11 -1.159,-1.75 -2.826,-2.75 -5,-3 -3.333,-2.333 -6.667,-4.667 -10,-7 -5.132,-2.4 -10.132,-5.066 -15,-8 -1.187,-1.034 -2.02,-2.367 -2.5,-4 -0.5,-18.664 -0.667,-37.33 -0.5,-56 -0.09,-3.141 0.91,-5.808 3,-8 4.82,-1.574 9.153,-3.907 13,-7 0.992,0.172 1.658,-0.162 2,-1 10.335,-5.498 20.335,-11.498 30,-18 2.405,-0.366 4.738,-1.033 7,-2 2.683,1.01 5.349,2.01 8,3 z"
         id="path1694" />
    </g>
    <g
       id="g1636"
       style="clip-rule:evenodd;fill:#f2f2f2;fill-opacity:1;fill-rule:evenodd;image-rendering:optimizeQuality;shape-rendering:geometricPrecision;text-rendering:geometricPrecision"
       transform="matrix(0.087687,0,0,0.087687,-5.4652145,-5.6331127)">
      <path
         style="opacity:1;fill:#f2f2f2;fill-opacity:1"
         fill="#323232"
         d="m 149.5,143.5 c 9.494,5.916 19.161,11.582 29,17 6.387,4.371 13.054,8.371 20,12 0.833,1 1.667,2 2.5,3 0.5,21.331 0.667,42.664 0.5,64 0,5 0,10 0,15 -2.264,0.719 -4.597,1.052 -7,1 -0.333,-1 -1,-1.667 -2,-2 -3.827,-1.746 -7.493,-3.746 -11,-6 -3.476,-2.24 -7.143,-4.24 -11,-6 -1.7,-1.508 -3.366,-3.008 -5,-4.5 -0.641,-13.641 -1.308,-27.141 -2,-40.5 -4.584,-3.97 -9.584,-7.47 -15,-10.5 -1,-0.667 -2,-0.667 -3,0 -5.385,2.442 -10.551,5.275 -15.5,8.5 -1.388,4.872 -1.888,9.872 -1.5,15 0,5 0,10 0,15 0.538,4.967 -0.129,9.634 -2,14 -2.97,1.153 -5.637,2.82 -8,5 -4.949,2.307 -9.616,4.974 -14,8 -1.495,0.489 -2.829,1.155 -4,2 -2.4128,1.551 -5.0794,2.217 -8,2 0,-27 0,-54 0,-81 4.0204,-4.01 8.687,-7.01 14,-9 4.87,-3.266 9.87,-6.266 15,-9 3.538,-2.269 7.205,-4.269 11,-6 0.667,-0.667 1.333,-1.333 2,-2 3.086,-1.234 6.086,-2.734 9,-4.5 1.973,-0.495 3.973,-0.662 6,-0.5 z"
         id="path1634" />
    </g>
    <g
       id="g1016"
       style="clip-rule:evenodd;fill:#f2f2f2;fill-opacity:1;fill-rule:evenodd;image-rendering:optimizeQuality;shape-rendering:geometricPrecision;text-rendering:geometricPrecision"
       transform="matrix(0.087687,0,0,0.087687,-5.4652145,-5.6331127)">
      <path
         style="opacity:1;fill:#f2f2f2;fill-opacity:1"
         fill="#323232"
         d="m 477.5,83.5 c 3.273,2.6442 6.94,4.8109 11,6.5 1.383,1.2708 2.383,2.7708 3,4.5 -0.671,47.206 -1.338,94.539 -2,142 0.124,0.607 0.457,0.94 1,1 0,0.667 0,1.333 0,2 -4.328,1.829 -8.328,4.162 -12,7 -4.958,2.321 -9.624,4.988 -14,8 -7.843,4.755 -15.843,9.255 -24,13.5 -2.646,0.497 -5.313,0.664 -8,0.5 -4.125,-2.901 -8.459,-5.568 -13,-8 -9.667,-6.169 -19.667,-11.836 -30,-17 -2.56,-1.773 -4.893,-3.773 -7,-6 0,-4.333 0,-8.667 0,-13 0,-5 0,-10 0,-15 0,-5 0,-10 0,-15 0,-5 0,-10 0,-15 0.486,-4.481 2.819,-7.481 7,-9 3.673,-1.5 7.006,-3.5 10,-6 2.284,-0.475 4.284,-1.475 6,-3 8.945,-5.143 17.945,-10.31 27,-15.5 2.31,-0.497 4.643,-0.663 7,-0.5 4.179,2.59 8.512,4.923 13,7 1.419,-0.505 2.085,-1.505 2,-3 0,-5 0,-10 0,-15 0,-5 0,-10 0,-15 0,-5 0,-10 0,-15 0,-5 0,-10 0,-15 -0.279,-5.0947 0.055,-10.0947 1,-15 1.446,-1.1129 3.113,-1.2796 5,-0.5 5.398,3.6978 11.065,6.8645 17,9.5 z"
         id="path1014" />
    </g>
    <g
       id="g2032"
       style="clip-rule:evenodd;fill-rule:evenodd;image-rendering:optimizeQuality;shape-rendering:geometricPrecision;text-rendering:geometricPrecision"
       transform="matrix(0.087687,0,0,0.087687,-5.4652145,-5.6331127)">
      <path
         style="opacity:1;fill:#d9d9d9;fill-opacity:1"
         fill="#80bc10"
         d="m 591.5,199.5 c 0.327,4.714 -0.007,9.38 -1,14 -2.029,1.344 -4.029,2.677 -6,4 -2.357,0.163 -4.69,-0.003 -7,-0.5 -2.026,-1.594 -4.026,-3.094 -6,-4.5 -0.166,-4.346 10e-4,-8.679 0.5,-13 1.302,-0.585 2.469,-1.251 3.5,-2 1.214,-2.289 3.214,-3.623 6,-4 3.359,2.01 6.692,4.01 10,6 z"
         id="path2030" />
    </g>
    <g
       id="g1632"
       style="clip-rule:evenodd;fill:#f2f2f2;fill-opacity:1;fill-rule:evenodd;image-rendering:optimizeQuality;shape-rendering:geometricPrecision;text-rendering:geometricPrecision"
       transform="matrix(0.087687,0,0,0.087687,-5.4652145,-5.6331127)">
      <path
         style="opacity:1;fill:#f2f2f2;fill-opacity:1"
         fill="#323232"
         d="m 584.5,144.5 c 9.325,5.33 18.659,10.663 28,16 7.572,4.376 15.072,9.043 22.5,14 0.667,6.667 0.667,13.333 0,20 -1.872,2.347 -4.039,4.347 -6.5,6 -8.064,4.204 -16.064,8.704 -24,13.5 -1.293,0.49 -2.627,0.657 -4,0.5 -0.941,-1.55 -1.607,-3.216 -2,-5 0.166,-4.679 -10e-4,-9.345 -0.5,-14 -5.352,-3.283 -10.852,-6.283 -16.5,-9 -5.82,2.743 -11.486,5.743 -17,9 -1.312,7.224 -1.312,14.391 0,21.5 10.731,6.698 21.731,12.864 33,18.5 5.033,3.677 10.367,7.01 16,10 0.915,0.828 1.581,1.828 2,3 -5.015,4.17 -10.348,7.837 -16,11 -6.251,2.459 -12.251,5.459 -18,9 -8.86,-4.93 -17.86,-9.597 -27,-14 0,-0.667 -0.333,-1 -1,-1 -4.017,-2.361 -8.017,-4.694 -12,-7 -4.166,-2.584 -8.5,-4.917 -13,-7 -0.333,-0.667 -0.667,-1.333 -1,-2 0.739,0.131 1.406,-0.036 2,-0.5 -0.661,-20.598 -1.328,-41.098 -2,-61.5 1.216,-1.951 2.882,-3.451 5,-4.5 8.059,-4.022 15.725,-8.522 23,-13.5 4.364,-1.844 8.364,-4.177 12,-7 0.992,0.172 1.658,-0.162 2,-1 2.774,-1.223 5.441,-2.723 8,-4.5 2.31,-0.497 4.643,-0.663 7,-0.5 z"
         id="path1630" />
    </g>
    <g
       id="g2796"
       style="clip-rule:evenodd;fill:#828282;fill-opacity:1;fill-rule:evenodd;image-rendering:optimizeQuality;shape-rendering:geometricPrecision;text-rendering:geometricPrecision"
       transform="matrix(0.087687,0,0,0.087687,-5.4652145,-5.6331127)">
      <path
         style="opacity:1;fill:#828282;fill-opacity:1"
         fill="#85bc24"
         d="m 599.5,290.5 c 4.667,0 9.333,0 14,0 18.076,5.801 25.076,18.134 21,37 -1.635,2.646 -3.302,5.313 -5,8 -1.993,1.967 -3.993,3.967 -6,6 -3.092,1.355 -6.092,2.688 -9,4 -5,0 -10,0 -15,0 -0.709,-0.904 -1.709,-1.237 -3,-1 -4.945,-3.311 -9.278,-7.311 -13,-12 -0.667,-1.667 -1.333,-3.333 -2,-5 -0.775,-5.297 -1.108,-10.63 -1,-16 3.154,-9.823 9.487,-16.823 19,-21 z"
         id="path2794" />
    </g>
    <g
       id="g1780"
       style="clip-rule:evenodd;display:inline;fill:#f2f2f2;fill-opacity:1;fill-rule:evenodd;image-rendering:optimizeQuality;shape-rendering:geometricPrecision;text-rendering:geometricPrecision"
       transform="matrix(0.087687,0,0,0.087687,-5.4652145,-5.6331127)">
      <path
         style="opacity:1;fill:#f2f2f2;fill-opacity:1"
         fill="#191919"
         d="m 491.5,94.5 c 0,8.333 0,16.667 0,25 0,25 0,50 0,75 0.329,14.51 -0.004,28.843 -1,43 -0.543,-0.06 -0.876,-0.393 -1,-1 0.662,-47.461 1.329,-94.794 2,-142 z"
         id="path1778" />
    </g>
    <g
       id="g1940"
       style="clip-rule:evenodd;display:inline;fill:#f2f2f2;fill-opacity:1;fill-rule:evenodd;image-rendering:optimizeQuality;shape-rendering:geometricPrecision;text-rendering:geometricPrecision"
       transform="matrix(0.087687,0,0,0.087687,-5.4652145,-5.6331127)">
      <path
         style="opacity:1;fill:#f2f2f2;fill-opacity:1"
         fill="#171717"
         d="m 527.5,175.5 c 0.672,20.402 1.339,40.902 2,61.5 -0.594,0.464 -1.261,0.631 -2,0.5 0,-20.667 0,-41.333 0,-62 z"
         id="path1938" />
    </g>
    <g
       id="g2036"
       style="clip-rule:evenodd;display:inline;fill:#d9d9d9;fill-opacity:1;fill-rule:evenodd;image-rendering:optimizeQuality;shape-rendering:geometricPrecision;text-rendering:geometricPrecision"
       transform="matrix(0.087687,0,0,0.087687,-5.4652145,-5.6331127)">
      <path
         style="opacity:1;fill:#d9d9d9;fill-opacity:1"
         fill="#a8c278"
         d="m 575.5,197.5 c -1.031,0.749 -2.198,1.415 -3.5,2 -0.499,4.321 -0.666,8.654 -0.5,13 -1.148,-4.481 -1.315,-9.148 -0.5,-14 1.356,-0.88 2.856,-1.214 4.5,-1 z"
         id="path2034" />
    </g>
    <g
       id="g4400"
       style="clip-rule:evenodd;display:inline;fill:#828282;fill-opacity:1;fill-rule:evenodd;image-rendering:optimizeQuality;shape-rendering:geometricPrecision;text-rendering:geometricPrecision"
       transform="matrix(0.087687,0,0,0.087687,-5.4652145,-5.6331127)">
      <path
         style="opacity:1;fill:#828282;fill-opacity:1"
         fill="#7cad15"
         d="m 196.5,367.5 c -0.178,2.716 -0.678,5.383 -1.5,8 -0.167,29.833 -0.333,59.667 -0.5,89.5 0.037,31.571 0.704,63.071 2,94.5 -0.643,-1.576 -1.643,-2.91 -3,-4 0,-60.333 0,-120.667 0,-181 -0.134,-1.792 0.199,-3.458 1,-5 0.667,-0.667 1.333,-1.333 2,-2 z"
         id="path4398" />
    </g>
    <g
       id="g3792"
       style="clip-rule:evenodd;display:inline;fill:#828282;fill-opacity:1;fill-rule:evenodd;image-rendering:optimizeQuality;shape-rendering:geometricPrecision;text-rendering:geometricPrecision"
       transform="matrix(0.087687,0,0,0.087687,-5.4652145,-5.6331127)">
      <path
         style="opacity:1;fill:#828282;fill-opacity:1"
         fill="#b3d471"
         d="m 222.5,377.5 c -0.622,1.127 -1.455,2.127 -2.5,3 -0.5,55.666 -0.667,111.332 -0.5,167 -1.165,-55.832 -1.332,-111.832 -0.5,-168 0.816,-1.323 1.983,-1.989 3.5,-2 z"
         id="path3790" />
    </g>
    <g
       id="g4272"
       style="clip-rule:evenodd;display:inline;fill:#828282;fill-opacity:1;fill-rule:evenodd;image-rendering:optimizeQuality;shape-rendering:geometricPrecision;text-rendering:geometricPrecision"
       transform="matrix(0.087687,0,0,0.087687,-5.4652145,-5.6331127)">
      <path
         style="opacity:1;fill:#828282;fill-opacity:1"
         fill="#7fb11b"
         d="m 536.5,375.5 c 0.999,58.498 1.332,117.164 1,176 0,1 0,2 0,3 -1.187,1.572 -2.187,3.239 -3,5 0.239,-1.967 -0.094,-3.801 -1,-5.5 0.833,-0.833 1.667,-1.667 2.5,-2.5 0.5,-58.666 0.667,-117.332 0.5,-176 z"
         id="path4270" />
    </g>
  </g>
  <g
     id="layer1"
     style="display:inline;opacity:0.995">
    <text
       xml:space="preserve"
       id="text1448"
       style="font-size:35.2778px;line-height:1.25;font-family:Miriam;-inkscape-font-specification:Miriam;white-space:pre;shape-inside:url(#rect1450);"><tspan
         style="visibility:hidden"
         x="7.484375"
         y="75.953209"><tspan
           dx="0 21.170126"
           style="font-size:35.2778px">Ai</tspan></tspan></text>
  </g>
</svg>
