<?xml version="1.0" encoding="UTF-8"?>
<!DOCTYPE svg PUBLIC "-//W3C//DTD SVG 1.1//EN" "http://www.w3.org/Graphics/SVG/1.1/DTD/svg11.dtd">
<svg xmlns="http://www.w3.org/2000/svg" version="1.1" width="238px" height="250px" style="shape-rendering:geometricPrecision; text-rendering:geometricPrecision; image-rendering:optimizeQuality; fill-rule:evenodd; clip-rule:evenodd" xmlns:xlink="http://www.w3.org/1999/xlink">
<g><path style="opacity:1" fill="#fefefe" d="M -0.5,-0.5 C 78.8333,-0.5 158.167,-0.5 237.5,-0.5C 237.5,82.8333 237.5,166.167 237.5,249.5C 158.167,249.5 78.8333,249.5 -0.5,249.5C -0.5,166.167 -0.5,82.8333 -0.5,-0.5 Z"/></g>
<g><path style="opacity:1" fill="#111111" d="M 100.5,93.5 C 111.172,93.3335 121.839,93.5002 132.5,94C 139.394,94.8146 146.061,96.4813 152.5,99C 153.333,99.8333 154.167,100.667 155,101.5C 156.686,112.128 158.019,122.794 159,133.5C 159.5,134 160,134.5 160.5,135C 168.248,135.427 175.915,136.427 183.5,138C 185.081,138.707 186.581,139.54 188,140.5C 188.667,141.5 188.667,142.5 188,143.5C 180.96,147.141 173.46,149.641 165.5,151C 131.448,155.825 97.4481,155.492 63.5,150C 58.6324,148.933 53.9658,147.266 49.5,145C 46.5246,141.284 47.5246,138.951 52.5,138C 60.0086,135.967 67.6752,134.967 75.5,135C 76,134.5 76.5,134 77,133.5C 78.0026,122.804 79.3359,112.137 81,101.5C 82.7309,99.3834 84.8976,97.8834 87.5,97C 91.9738,95.8802 96.3071,94.7135 100.5,93.5 Z"/></g>
</svg>
