<?xml version="1.0" encoding="UTF-8"?>
<!DOCTYPE svg PUBLIC "-//W3C//DTD SVG 1.1//EN" "http://www.w3.org/Graphics/SVG/1.1/DTD/svg11.dtd">
<svg xmlns="http://www.w3.org/2000/svg" version="1.1" width="2130px" height="1564px" style="shape-rendering:geometricPrecision; text-rendering:geometricPrecision; image-rendering:optimizeQuality; fill-rule:evenodd; clip-rule:evenodd" xmlns:xlink="http://www.w3.org/1999/xlink">
<g><path style="opacity:0.997" fill="#5ea9dd" d="M 1454.5,-0.5 C 1468.83,-0.5 1483.17,-0.5 1497.5,-0.5C 1590.43,5.86456 1675.76,34.6979 1753.5,86C 1769.04,96.8896 1784.54,107.723 1800,118.5C 1895.23,102.925 1985.06,71.9251 2069.5,25.5C 2069.83,25.8333 2070.17,26.1667 2070.5,26.5C 2056.12,69.6137 2034.29,108.28 2005,142.5C 1970.93,180.255 1932.43,212.422 1889.5,239C 1950.36,234.695 2010.03,223.695 2068.5,206C 2088.94,199.796 2109.28,193.296 2129.5,186.5C 2129.5,187.167 2129.5,187.833 2129.5,188.5C 2073.54,256.923 2009.54,316.423 1937.5,367C 1929.63,372.364 1921.63,377.53 1913.5,382.5C 1912.28,543.771 1880.78,698.771 1819,847.5C 1724.27,1062.22 1578.44,1233.39 1381.5,1361C 1178.77,1488.53 957.439,1556.03 717.5,1563.5C 692.167,1563.5 666.833,1563.5 641.5,1563.5C 413.425,1555.25 199.758,1495.58 0.5,1384.5C 90.9214,1390.37 181.255,1386.87 271.5,1374C 397.161,1356.01 513.494,1313.34 620.5,1246C 630.341,1239.58 640.007,1232.91 649.5,1226C 589.537,1220.51 531.537,1206.84 475.5,1185C 388.291,1148.12 322.458,1087.95 278,1004.5C 268.807,986.284 260.307,967.784 252.5,949C 267.41,951.781 282.41,954.447 297.5,957C 347.166,964.592 395.499,959.592 442.5,942C 359.16,927.158 286.16,891.825 223.5,836C 144.017,758.114 103.683,663.28 102.5,551.5C 165.398,578.808 231.065,594.641 299.5,599C 248.201,563.37 203.701,520.537 166,470.5C 100.998,379.522 84.3311,280.189 116,172.5C 126.634,136.929 140.967,102.929 159,70.5C 327.326,253.144 532.493,375.644 774.5,438C 868.131,462.226 963.131,478.393 1059.5,486.5C 1032.66,401.382 1038.83,318.715 1078,238.5C 1116.52,164.289 1171.69,105.789 1243.5,63C 1308.82,24.923 1379.16,3.75629 1454.5,-0.5 Z"/></g>
</svg>
