<?xml version="1.0" encoding="UTF-8" standalone="no"?>
<svg
   xmlns:dc="http://purl.org/dc/elements/1.1/"
   xmlns:cc="http://creativecommons.org/ns#"
   xmlns:rdf="http://www.w3.org/1999/02/22-rdf-syntax-ns#"
   xmlns:svg="http://www.w3.org/2000/svg"
   xmlns="http://www.w3.org/2000/svg"
   version="1.1"
   width="200"
   height="200"
   style="clip-rule:evenodd;fill-rule:evenodd;image-rendering:optimizeQuality;shape-rendering:geometricPrecision;text-rendering:geometricPrecision"
   id="svg1594">
  <metadata
     id="metadata1600">
    <rdf:RDF>
      <cc:Work
         rdf:about="">
        <dc:format>image/svg+xml</dc:format>
        <dc:type
           rdf:resource="http://purl.org/dc/dcmitype/StillImage" />
        <dc:title></dc:title>
      </cc:Work>
    </rdf:RDF>
  </metadata>
  <defs
     id="defs1598" />
  <g
     id="layer1"
     style="display:none" />
  <g
     id="layer2"
     style="display:inline">
    <g
       id="g2716"
       transform="matrix(0.28574047,0,0,0.28574047,-22.980572,-1.5890574)"
       style="opacity:0.996">
      <g
         id="g188"
         style="clip-rule:evenodd;fill-rule:evenodd;image-rendering:optimizeQuality;shape-rendering:geometricPrecision;text-rendering:geometricPrecision">
        <path
           style="opacity:1"
           fill="#080807"
           d="m 637.5,60.5 c -21.171,-6.5093 -42.838,-8.676 -65,-6.5 -30.127,3.4943 -60.127,7.8277 -90,13 -34.997,4.6287 -69.997,4.6287 -105,0 -29.939,-4.1938 -59.939,-7.8605 -90,-11 -22.355,-2.6187 -44.021,-0.1187 -65,7.5 -1.335,-4.6843 -0.835,-9.3509 1.5,-14 9.739,-4.0434 19.906,-6.5434 30.5,-7.5 18.052,-0.7983 36.052,-0.1316 54,2 28.876,4.8394 57.876,8.8394 87,12 18.486,1.542 36.819,1.7086 55,0.5 16.475,-0.4692 32.808,-2.1359 49,-5 21.959,-3.3577 43.959,-6.5243 66,-9.5 18.385,-2.2124 36.718,-1.879 55,1 5.143,1.0356 10.143,2.5356 15,4.5 2.264,4.2756 2.93,8.609 2,13 z"
           id="path186" />
      </g>
      <g
         id="g192"
         style="clip-rule:evenodd;fill:#d9d9d9;fill-opacity:1;fill-rule:evenodd;stroke:#f2f2f2;stroke-opacity:1;image-rendering:optimizeQuality;shape-rendering:geometricPrecision;text-rendering:geometricPrecision">
        <path
           style="opacity:1;fill:#d9d9d9;fill-opacity:1;stroke:#f2f2f2;stroke-opacity:1"
           fill="#e9bc14"
           d="m 637.5,60.5 c 0.969,0.8094 1.802,1.8094 2.5,3 2.771,13.3579 5.605,26.6913 8.5,40 -0.124,0.607 -0.457,0.94 -1,1 -17.416,-7.9356 -35.75,-11.9356 -55,-12 -11.361,0.4509 -22.695,1.2842 -34,2.5 -32.532,5.317 -65.199,9.65 -98,13 -28.397,2.289 -56.731,1.622 -85,-2 -24.355,-3.241 -48.688,-6.5746 -73,-10 -22.127,-2.6059 -44.127,-1.9393 -66,2 -8.375,2.29 -16.375,5.457 -24,9.5 -0.305,-2.419 -0.305,-5.086 0,-8 1.951,-6.4227 3.285,-13.0893 4,-20 1.618,-4.7558 2.618,-9.7558 3,-15 1.291,0.2373 2.291,-0.096 3,-1 20.979,-7.6187 42.645,-10.1187 65,-7.5 30.061,3.1395 60.061,6.8062 90,11 35.003,4.6287 70.003,4.6287 105,0 29.873,-5.1723 59.873,-9.5057 90,-13 22.162,-2.176 43.829,-0.0093 65,6.5 z"
           id="path190" />
      </g>
      <g
         id="g232"
         style="clip-rule:evenodd;fill:#2b2b2b;fill-opacity:1;fill-rule:evenodd;image-rendering:optimizeQuality;shape-rendering:geometricPrecision;text-rendering:geometricPrecision">
        <path
           style="opacity:1;fill:#2b2b2b;fill-opacity:1"
           fill="#302d25"
           d="m 594.5,63.5 c 1,0 2,0 3,0 -0.166,5.6764 10e-4,11.3431 0.5,17 2.267,1.4348 4.267,1.1015 6,-1 2.298,-19.901 3.298,-19.901 3,0 -2.053,3.7916 -5.219,4.9582 -9.5,3.5 -0.833,-0.8333 -1.667,-1.6667 -2.5,-2.5 -0.499,-5.6569 -0.666,-11.3236 -0.5,-17 z"
           id="path230" />
      </g>
      <g
         id="g236"
         style="clip-rule:evenodd;fill:#f2f2f2;fill-opacity:1;fill-rule:evenodd;image-rendering:optimizeQuality;shape-rendering:geometricPrecision;text-rendering:geometricPrecision">
        <path
           style="opacity:1;fill:#f2f2f2;fill-opacity:1"
           fill="#706955"
           d="m 274.5,65.5 c -2.667,0 -5.333,0 -8,0 0,6.3333 0,12.6667 0,19 -0.991,-6.479 -1.324,-13.1457 -1,-20 3.213,-0.31 6.213,0.0233 9,1 z"
           id="path234" />
      </g>
      <g
         id="g240"
         style="clip-rule:evenodd;fill:#f2f2f2;fill-opacity:1;fill-rule:evenodd;image-rendering:optimizeQuality;shape-rendering:geometricPrecision;text-rendering:geometricPrecision">
        <path
           style="opacity:1;fill:#f2f2f2;fill-opacity:1"
           fill="#1d1b17"
           d="m 274.5,65.5 c 0.958,0.4528 1.792,1.1195 2.5,2 1.833,7.3343 -1,10.3343 -8.5,9 0.536,3.1981 -0.131,5.8647 -2,8 0,-6.3333 0,-12.6667 0,-19 2.667,0 5.333,0 8,0 z"
           id="path238" />
      </g>
      <g
         id="g244"
         style="clip-rule:evenodd;fill:#f2f2f2;fill-opacity:1;fill-rule:evenodd;image-rendering:optimizeQuality;shape-rendering:geometricPrecision;text-rendering:geometricPrecision">
        <path
           style="opacity:1;fill:#f2f2f2;fill-opacity:1"
           fill="#0b0a09"
           d="m 282.5,84.5 c -1.888,-2.4878 -2.555,-5.4878 -2,-9 -0.32,-3.3984 0.013,-6.7317 1,-10 0.996,6.2985 1.33,12.6318 1,19 z"
           id="path242" />
      </g>
      <g
         id="g248"
         style="clip-rule:evenodd;fill:#2b2b2b;fill-opacity:1;fill-rule:evenodd;image-rendering:optimizeQuality;shape-rendering:geometricPrecision;text-rendering:geometricPrecision">
        <path
           style="opacity:1;fill:#2b2b2b;fill-opacity:1"
           fill="#312e25"
           d="m 562.5,64.5 c 8.977,1.594 12.144,6.9274 9.5,16 -5.095,6.9198 -9.761,6.5865 -14,-1 -1.748,-6.2016 -0.248,-11.2016 4.5,-15 z"
           id="path246" />
      </g>
      <g
         id="g252"
         style="clip-rule:evenodd;fill:#f2f2f2;fill-opacity:1;fill-rule:evenodd;image-rendering:optimizeQuality;shape-rendering:geometricPrecision;text-rendering:geometricPrecision">
        <path
           style="opacity:1;fill:#f2f2f2;fill-opacity:1"
           fill="#312e25"
           d="m 254.5,65.5 c 1.624,-0.1399 2.79,0.5267 3.5,2 1.933,4.9671 3.767,9.9671 5.5,15 -0.233,1.4317 -0.9,1.9317 -2,1.5 -0.88,-1.3561 -1.214,-2.8561 -1,-4.5 -2.333,0 -4.667,0 -7,0 0.253,2.3273 -0.414,4.3273 -2,6 -0.31,-6.7971 0.69,-13.4638 3,-20 z"
           id="path250" />
      </g>
      <g
         id="g256"
         style="clip-rule:evenodd;fill:#2b2b2b;fill-opacity:1;fill-rule:evenodd;image-rendering:optimizeQuality;shape-rendering:geometricPrecision;text-rendering:geometricPrecision">
        <path
           style="opacity:1;fill:#2b2b2b;fill-opacity:1"
           fill="#1b1916"
           d="m 297.5,66.5 c -1.052,1.756 -2.719,2.4227 -5,2 -1,0 -2,0 -3,0 0,2 0,4 0,6 2.333,0 4.667,0 7,0 -2.667,1.3333 -5.333,2.6667 -8,4 0,1.6667 0,3.3333 0,5 10.667,0.6667 10.667,1.3333 0,2 -1.702,-2.3002 -2.368,-4.9669 -2,-8 0,-3.6667 0,-7.3333 0,-11 3.667,0 7.333,0 11,0 z"
           id="path254" />
      </g>
      <g
         id="g260"
         style="clip-rule:evenodd;fill:#2b2b2b;fill-opacity:1;fill-rule:evenodd;image-rendering:optimizeQuality;shape-rendering:geometricPrecision;text-rendering:geometricPrecision">
        <path
           style="opacity:1;fill:#2b2b2b;fill-opacity:1"
           fill="#25241f"
           d="m 237.5,67.5 c 2.357,-0.1633 4.69,0.0034 7,0.5 1.514,1.439 1.847,2.939 1,4.5 -1.76,-2.5212 -4.093,-3.3545 -7,-2.5 -1.333,1.6667 -1.333,3.3333 0,5 3.127,0.3918 6.127,1.2251 9,2.5 2.192,7.3056 -0.474,10.4723 -8,9.5 -2.559,-1.3234 -3.225,-3.1567 -2,-5.5 2.094,2.5307 4.761,3.3641 8,2.5 1.491,-2.0217 1.158,-3.6883 -1,-5 -9.037,0.1025 -11.371,-3.7308 -7,-11.5 z"
           id="path258" />
      </g>
      <g
         id="g264"
         style="clip-rule:evenodd;fill:#d9d9d9;fill-opacity:1;fill-rule:evenodd;image-rendering:optimizeQuality;shape-rendering:geometricPrecision;text-rendering:geometricPrecision">
        <path
           style="opacity:1;fill:#d9d9d9;fill-opacity:1"
           fill="#e5b91b"
           d="m 268.5,67.5 c 3.141,-0.5918 5.474,0.4082 7,3 0.047,1.5377 -0.62,2.5377 -2,3 -1.667,0 -3.333,0 -5,0 0,-2 0,-4 0,-6 z"
           id="path262" />
      </g>
      <g
         id="g268"
         style="clip-rule:evenodd;fill:#2b2b2b;fill-opacity:1;fill-rule:evenodd;image-rendering:optimizeQuality;shape-rendering:geometricPrecision;text-rendering:geometricPrecision">
        <path
           style="opacity:1;fill:#2b2b2b;fill-opacity:1"
           fill="#322e24"
           d="m 300.5,67.5 c 1.333,0 2.667,0 4,0 1.344,5.2011 3.177,10.2011 5.5,15 0.333,-4.3333 0.667,-8.6667 1,-13 0.414,-0.4574 0.914,-0.7907 1.5,-1 1.157,3.2844 1.324,6.6177 0.5,10 -0.056,3.2802 -0.889,6.2802 -2.5,9 -2.774,-4.7947 -5.274,-9.7947 -7.5,-15 -0.333,4 -0.667,8 -1,12 -0.308,0.8081 -0.808,1.4747 -1.5,2 -0.853,-6.3102 -0.853,-12.6435 0,-19 z"
           id="path266" />
      </g>
      <g
         id="g272"
         style="clip-rule:evenodd;fill:#2b2b2b;fill-opacity:1;fill-rule:evenodd;image-rendering:optimizeQuality;shape-rendering:geometricPrecision;text-rendering:geometricPrecision">
        <path
           style="opacity:1;fill:#2b2b2b;fill-opacity:1"
           fill="#24221e"
           d="m 541.5,67.5 c 12.85,-1.0085 17.017,4.6582 12.5,17 -3.173,2.1129 -6.673,3.1129 -10.5,3 -0.011,-6.7415 -0.678,-13.4082 -2,-20 z"
           id="path270" />
      </g>
      <g
         id="g276"
         style="clip-rule:evenodd;fill:#d9d9d9;fill-opacity:1;fill-rule:evenodd;image-rendering:optimizeQuality;shape-rendering:geometricPrecision;text-rendering:geometricPrecision">
        <path
           style="opacity:1;fill:#d9d9d9;fill-opacity:1"
           fill="#e8bb16"
           d="m 563.5,67.5 c 6.7,2.0802 8.533,6.4136 5.5,13 -3.012,2.7499 -5.679,2.4166 -8,-1 -0.667,-3.3333 -0.667,-6.6667 0,-10 0.995,-0.5659 1.828,-1.2326 2.5,-2 z"
           id="path274" />
      </g>
      <g
         id="g280"
         style="clip-rule:evenodd;fill:#2b2b2b;fill-opacity:1;fill-rule:evenodd;image-rendering:optimizeQuality;shape-rendering:geometricPrecision;text-rendering:geometricPrecision">
        <path
           style="opacity:1;fill:#2b2b2b;fill-opacity:1"
           fill="#2c2923"
           d="m 612.5,65.5 c 1.624,-0.1399 2.79,0.5267 3.5,2 0.573,4.3477 1.24,8.681 2,13 2.257,-4.1829 4.257,-8.5162 6,-13 1.011,-0.8366 2.178,-1.17 3.5,-1 -0.766,6.3316 -1.599,12.6649 -2.5,19 -0.414,0.4574 -0.914,0.7907 -1.5,1 -0.333,-1 -0.667,-2 -1,-3 1.588,-3.5241 2.088,-7.1908 1.5,-11 -2.386,4.1043 -4.219,8.4377 -5.5,13 -1,0 -2,0 -3,0 -0.25,-19.2811 -1.916,-19.6144 -5,-1 -0.549,-6.3963 0.118,-12.7296 2,-19 z"
           id="path278" />
      </g>
      <g
         id="g284"
         style="clip-rule:evenodd;fill:#2b2b2b;fill-opacity:1;fill-rule:evenodd;image-rendering:optimizeQuality;shape-rendering:geometricPrecision;text-rendering:geometricPrecision">
        <path
           style="opacity:1;fill:#2b2b2b;fill-opacity:1"
           fill="#a08f59"
           d="m 297.5,66.5 c 0.904,0.709 1.237,1.709 1,3 -2.235,0.2947 -4.235,-0.0386 -6,-1 2.281,0.4227 3.948,-0.244 5,-2 z"
           id="path282" />
      </g>
      <g
         id="g288"
         style="clip-rule:evenodd;fill:#2b2b2b;fill-opacity:1;fill-rule:evenodd;image-rendering:optimizeQuality;shape-rendering:geometricPrecision;text-rendering:geometricPrecision">
        <path
           style="opacity:1;fill:#2b2b2b;fill-opacity:1"
           fill="#2d2b23"
           d="m 315.5,68.5 c 4.593,0.1742 8.926,1.1742 13,3 -1.896,0.9656 -3.896,1.2989 -6,1 -0.694,5.3049 -1.028,10.6383 -1,16 -1,0 -2,0 -3,0 0.667,-5.6667 1.333,-11.3333 2,-17 -1.667,0 -3.333,0 -5,0 0,-1 0,-2 0,-3 z"
           id="path286" />
      </g>
      <g
         id="g292"
         style="clip-rule:evenodd;fill:#2b2b2b;fill-opacity:1;fill-rule:evenodd;image-rendering:optimizeQuality;shape-rendering:geometricPrecision;text-rendering:geometricPrecision">
        <path
           style="opacity:1;fill:#2b2b2b;fill-opacity:1"
           fill="#887c57"
           d="m 591.5,82.5 c -0.709,0.904 -1.709,1.2373 -3,1 0.317,-4.2016 -0.017,-8.2016 -1,-12 -0.149,-1.052 0.017,-2.052 0.5,-3 0.333,0.3333 0.667,0.6667 1,1 -0.108,4.7803 0.725,9.1136 2.5,13 z"
           id="path290" />
      </g>
      <g
         id="g296"
         style="clip-rule:evenodd;fill:#d9d9d9;fill-opacity:1;fill-rule:evenodd;image-rendering:optimizeQuality;shape-rendering:geometricPrecision;text-rendering:geometricPrecision">
        <path
           style="opacity:1;fill:#d9d9d9;fill-opacity:1"
           fill="#dbb32d"
           d="m 255.5,69.5 c 1.793,1.9261 2.793,4.2594 3,7 -1.333,0 -2.667,0 -4,0 0.174,-2.361 0.507,-4.6944 1,-7 z"
           id="path294" />
      </g>
      <g
         id="g300"
         style="clip-rule:evenodd;fill:#2b2b2b;fill-opacity:1;fill-rule:evenodd;image-rendering:optimizeQuality;shape-rendering:geometricPrecision;text-rendering:geometricPrecision">
        <path
           style="opacity:1;fill:#2b2b2b;fill-opacity:1"
           fill="#22201b"
           d="m 531.5,72.5 c 1.736,5.6097 2.069,11.2763 1,17 -1.488,-5.2394 -2.488,-10.5727 -3,-16 -0.133,-3.425 0.533,-3.7583 2,-1 z"
           id="path298" />
      </g>
      <g
         id="g304"
         style="clip-rule:evenodd;fill:#d9d9d9;fill-opacity:1;fill-rule:evenodd;image-rendering:optimizeQuality;shape-rendering:geometricPrecision;text-rendering:geometricPrecision">
        <path
           style="opacity:1;fill:#d9d9d9;fill-opacity:1"
           fill="#e4b81f"
           d="m 545.5,69.5 c 8.12,1.6603 10.12,6.1603 6,13.5 -1.845,1.128 -3.845,1.628 -6,1.5 -0.605,-5.0885 -0.605,-10.0885 0,-15 z"
           id="path302" />
      </g>
      <g
         id="g308"
         style="clip-rule:evenodd;fill:#2b2b2b;fill-opacity:1;fill-rule:evenodd;image-rendering:optimizeQuality;shape-rendering:geometricPrecision;text-rendering:geometricPrecision">
        <path
           style="opacity:1;fill:#2b2b2b;fill-opacity:1"
           fill="#322f25"
           d="m 330.5,70.5 c 1.248,0.8339 1.915,2.1672 2,4 -0.354,5.1531 -1.354,10.1531 -3,15 -1.061,-6.3931 -0.728,-12.7264 1,-19 z"
           id="path306" />
      </g>
      <g
         id="g312"
         style="clip-rule:evenodd;fill:#2b2b2b;fill-opacity:1;fill-rule:evenodd;image-rendering:optimizeQuality;shape-rendering:geometricPrecision;text-rendering:geometricPrecision">
        <path
           style="opacity:1;fill:#2b2b2b;fill-opacity:1"
           fill="#2a2720"
           d="m 514.5,71.5 c 3.018,-0.1646 6.018,0.002 9,0.5 2.18,2.4177 2.513,5.0844 1,8 2.41,0.7579 3.41,2.4246 3,5 0.146,2.0342 -0.52,3.7009 -2,5 -3.293,0.8256 -6.626,1.3256 -10,1.5 0.263,-5.9449 -0.404,-11.7783 -2,-17.5 0.243,-0.9021 0.577,-1.7354 1,-2.5 z"
           id="path310" />
      </g>
      <g
         id="g316"
         style="clip-rule:evenodd;fill:#2b2b2b;fill-opacity:1;fill-rule:evenodd;image-rendering:optimizeQuality;shape-rendering:geometricPrecision;text-rendering:geometricPrecision">
        <path
           style="opacity:1;fill:#2b2b2b;fill-opacity:1"
           fill="#877c5b"
           d="m 531.5,72.5 c -1.467,-2.7583 -2.133,-2.425 -2,1 -0.934,-1.0676 -1.268,-2.401 -1,-4 1,0 2,0 3,0 0,1 0,2 0,3 z"
           id="path314" />
      </g>
      <g
         id="g320"
         style="clip-rule:evenodd;fill:#2b2b2b;fill-opacity:1;fill-rule:evenodd;image-rendering:optimizeQuality;shape-rendering:geometricPrecision;text-rendering:geometricPrecision">
        <path
           style="opacity:1;fill:#2b2b2b;fill-opacity:1"
           fill="#2b2922"
           d="m 340.5,72.5 c 1.624,-0.1399 2.79,0.5267 3.5,2 0.833,5 1.667,10 2.5,15 -0.333,1 -0.667,2 -1,3 -1.586,-1.6727 -2.253,-3.6727 -2,-6 -4.334,-2.1639 -7.334,-0.9973 -9,3.5 -0.832,0.6877 -1.498,0.521 -2,-0.5 2.666,-5.6616 5.332,-11.3282 8,-17 z"
           id="path318" />
      </g>
      <g
         id="g324"
         style="clip-rule:evenodd;fill:#f2f2f2;fill-opacity:1;fill-rule:evenodd;image-rendering:optimizeQuality;shape-rendering:geometricPrecision;text-rendering:geometricPrecision">
        <path
           style="opacity:1;fill:#f2f2f2;fill-opacity:1"
           fill="#ae9956"
           d="m 268.5,67.5 c 0,2 0,4 0,6 1.667,0 3.333,0 5,0 -1.765,0.9614 -3.765,1.2947 -6,1 -0.302,-2.5593 0.032,-4.8926 1,-7 z"
           id="path322" />
      </g>
      <g
         id="g328"
         style="clip-rule:evenodd;fill:#2b2b2b;fill-opacity:1;fill-rule:evenodd;image-rendering:optimizeQuality;shape-rendering:geometricPrecision;text-rendering:geometricPrecision">
        <path
           style="opacity:1;fill:#2b2b2b;fill-opacity:1"
           fill="#22201a"
           d="m 507.5,73.5 c 1.747,1.4807 2.914,3.4807 3.5,6 1.268,4.3402 1.435,8.6736 0.5,13 -1.738,-6.2166 -3.071,-12.5499 -4,-19 z"
           id="path326" />
      </g>
      <g
         id="g332"
         style="clip-rule:evenodd;fill:#2b2b2b;fill-opacity:1;fill-rule:evenodd;image-rendering:optimizeQuality;shape-rendering:geometricPrecision;text-rendering:geometricPrecision">
        <path
           style="opacity:1;fill:#2b2b2b;fill-opacity:1"
           fill="#1f1e1a"
           d="m 495.5,74.5 c 3.816,-0.7113 6.816,0.4554 9,3.5 -0.333,0.5 -0.667,1 -1,1.5 -1.429,-1.435 -3.095,-2.435 -5,-3 -2.764,1.1282 -3.431,2.9615 -2,5.5 3.482,0.4888 6.649,1.6555 9.5,3.5 1.218,6.7826 -1.616,9.6159 -8.5,8.5 -2.559,-1.3234 -3.225,-3.1567 -2,-5.5 1.941,2.8342 4.607,3.6675 8,2.5 1.36,-1.9376 1.027,-3.6043 -1,-5 -8.121,-0.4165 -10.454,-4.2498 -7,-11.5 z"
           id="path330" />
      </g>
      <g
         id="g336"
         style="clip-rule:evenodd;fill:#d9d9d9;fill-opacity:1;fill-rule:evenodd;image-rendering:optimizeQuality;shape-rendering:geometricPrecision;text-rendering:geometricPrecision">
        <path
           style="opacity:1;fill:#d9d9d9;fill-opacity:1"
           fill="#e7ba19"
           d="m 516.5,74.5 c 2.333,0 4.667,0 7,0 0.214,1.6439 -0.12,3.1439 -1,4.5 -1.973,0.4955 -3.973,0.6621 -6,0.5 0,-1.6667 0,-3.3333 0,-5 z"
           id="path334" />
      </g>
      <g
         id="g340"
         style="clip-rule:evenodd;fill:#2b2b2b;fill-opacity:1;fill-rule:evenodd;image-rendering:optimizeQuality;shape-rendering:geometricPrecision;text-rendering:geometricPrecision">
        <path
           style="opacity:1;fill:#2b2b2b;fill-opacity:1"
           fill="#292720"
           d="m 591.5,82.5 c -1.775,-3.8864 -2.608,-8.2197 -2.5,-13 -0.333,-0.3333 -0.667,-0.6667 -1,-1 -0.483,0.948 -0.649,1.948 -0.5,3 -0.986,3.9432 -1.652,7.9432 -2,12 -1,0 -2,0 -3,0 -1.147,-2.91 -2.147,-5.91 -3,-9 -0.392,-1.6789 -0.892,-3.3455 -1.5,-5 -0.499,4.6548 -0.666,9.3215 -0.5,14 -1.956,-5.912 -2.623,-12.2453 -2,-19 1.175,-0.219 2.175,0.1143 3,1 1.778,3.8904 3.278,7.8904 4.5,12 1.787,-4.1369 3.121,-8.4702 4,-13 1.011,-0.8366 2.178,-1.17 3.5,-1 0.153,6.345 0.486,12.6783 1,19 z"
           id="path338" />
      </g>
      <g
         id="g344"
         style="clip-rule:evenodd;fill:#2b2b2b;fill-opacity:1;fill-rule:evenodd;image-rendering:optimizeQuality;shape-rendering:geometricPrecision;text-rendering:geometricPrecision">
        <path
           style="opacity:1;fill:#2b2b2b;fill-opacity:1"
           fill="#b79d4f"
           d="m 579.5,74.5 c -0.667,3 -1.333,6 -2,9 -0.166,-4.6785 10e-4,-9.3452 0.5,-14 0.608,1.6545 1.108,3.3211 1.5,5 z"
           id="path342" />
      </g>
      <g
         id="g348"
         style="clip-rule:evenodd;fill:#2b2b2b;fill-opacity:1;fill-rule:evenodd;image-rendering:optimizeQuality;shape-rendering:geometricPrecision;text-rendering:geometricPrecision">
        <path
           style="opacity:1;fill:#2b2b2b;fill-opacity:1"
           fill="#2c2922"
           d="m 361.5,75.5 c 1,0 2,0 3,0 1,6.6667 2,13.3333 3,20 -1,0 -2,0 -3,0 0,-2 0,-4 0,-6 -4.334,-2.1639 -7.334,-0.9973 -9,3.5 -0.832,0.6877 -1.498,0.521 -2,-0.5 2.391,-5.7829 5.058,-11.4496 8,-17 z"
           id="path346" />
      </g>
      <g
         id="g352"
         style="clip-rule:evenodd;fill:#2b2b2b;fill-opacity:1;fill-rule:evenodd;image-rendering:optimizeQuality;shape-rendering:geometricPrecision;text-rendering:geometricPrecision">
        <path
           style="opacity:1;fill:#2b2b2b;fill-opacity:1"
           fill="#968657"
           d="m 296.5,74.5 c 0.904,0.709 1.237,1.709 1,3 -3.109,-0.2359 -6.109,0.0975 -9,1 2.667,-1.3333 5.333,-2.6667 8,-4 z"
           id="path350" />
      </g>
      <g
         id="g356"
         style="clip-rule:evenodd;fill:#2b2b2b;fill-opacity:1;fill-rule:evenodd;image-rendering:optimizeQuality;shape-rendering:geometricPrecision;text-rendering:geometricPrecision">
        <path
           style="opacity:1;fill:#2b2b2b;fill-opacity:1"
           fill="#2a271f"
           d="m 373.5,96.5 c -0.709,-0.904 -1.709,-1.2373 -3,-1 0,-1.6667 0,-3.3333 0,-5 -0.063,-4.7029 0.271,-9.3696 1,-14 3.848,-0.2603 7.515,0.4064 11,2 -2.928,0.9841 -5.928,1.3174 -9,1 0,2 0,4 0,6 2.667,0 5.333,0 8,0 0,1 0,2 0,3 -3.018,-0.2038 -6.018,-0.5371 -9,-1 0,2 0,4 0,6 2.982,-0.3956 5.649,0.2711 8,2 -2.243,0.9742 -4.576,1.3076 -7,1 z"
           id="path354" />
      </g>
      <g
         id="g360"
         style="clip-rule:evenodd;fill:#2b2b2b;fill-opacity:1;fill-rule:evenodd;image-rendering:optimizeQuality;shape-rendering:geometricPrecision;text-rendering:geometricPrecision">
        <path
           style="opacity:1;fill:#2b2b2b;fill-opacity:1"
           fill="#7f7455"
           d="m 479.5,77.5 c 1.765,-0.9614 3.765,-1.2947 6,-1 0,1 0,2 0,3 -1.333,0 -2.667,0 -4,0 0.763,-0.7679 1.763,-1.2679 3,-1.5 -1.634,-0.4935 -3.301,-0.6602 -5,-0.5 z"
           id="path358" />
      </g>
      <g
         id="g364"
         style="clip-rule:evenodd;fill:#d9d9d9;fill-opacity:1;fill-rule:evenodd;image-rendering:optimizeQuality;shape-rendering:geometricPrecision;text-rendering:geometricPrecision">
        <path
           style="opacity:1;fill:#d9d9d9;fill-opacity:1"
           fill="#deb52b"
           d="m 340.5,77.5 c 1.78,1.4899 2.446,3.4899 2,6 -1.333,0 -2.667,0 -4,0 0.104,-2.2028 0.77,-4.2028 2,-6 z"
           id="path362" />
      </g>
      <g
         id="g368"
         style="clip-rule:evenodd;fill:#2b2b2b;fill-opacity:1;fill-rule:evenodd;image-rendering:optimizeQuality;shape-rendering:geometricPrecision;text-rendering:geometricPrecision">
        <path
           style="opacity:1;fill:#2b2b2b;fill-opacity:1"
           fill="#2c2921"
           d="m 479.5,77.5 c 1.699,-0.1602 3.366,0.0065 5,0.5 -1.237,0.2321 -2.237,0.7321 -3,1.5 -0.07,5.5112 -0.403,11.1779 -1,17 -1.58,-5.209 -2.58,-10.5423 -3,-16 -1.667,0 -3.333,0 -5,0 0,-1 0,-2 0,-3 2.333,0 4.667,0 7,0 z"
           id="path366" />
      </g>
      <g
         id="g372"
         style="clip-rule:evenodd;fill:#2b2b2b;fill-opacity:1;fill-rule:evenodd;image-rendering:optimizeQuality;shape-rendering:geometricPrecision;text-rendering:geometricPrecision">
        <path
           style="opacity:1;fill:#2b2b2b;fill-opacity:1"
           fill="#2a2821"
           d="m 384.5,78.5 c 11.545,-0.9527 15.378,4.0473 11.5,15 -0.465,1.4308 -1.299,2.5975 -2.5,3.5 -3.317,0.4983 -6.65,0.665 -10,0.5 0.61,-6.3154 0.943,-12.6487 1,-19 z"
           id="path370" />
      </g>
      <g
         id="g376"
         style="clip-rule:evenodd;fill:#2b2b2b;fill-opacity:1;fill-rule:evenodd;image-rendering:optimizeQuality;shape-rendering:geometricPrecision;text-rendering:geometricPrecision">
        <path
           style="opacity:1;fill:#2b2b2b;fill-opacity:1"
           fill="#2f2b21"
           d="m 468.5,78.5 c 1.545,0.7297 2.378,2.063 2.5,4 0.829,5.033 0.662,10.033 -0.5,15 -1.753,-6.1937 -2.419,-12.527 -2,-19 z"
           id="path374" />
      </g>
      <g
         id="g412"
         style="clip-rule:evenodd;fill:#2b2b2b;fill-opacity:1;fill-rule:evenodd;image-rendering:optimizeQuality;shape-rendering:geometricPrecision;text-rendering:geometricPrecision">
        <path
           style="opacity:1;fill:#2b2b2b;fill-opacity:1"
           fill="#2d2b24"
           d="m 400.5,79.5 c 1.956,5.912 2.623,12.2453 2,19 -1,0 -2,0 -3,0 0.153,-6.345 0.486,-12.6783 1,-19 z"
           id="path410" />
      </g>
      <g
         id="g416"
         style="clip-rule:evenodd;fill:#2b2b2b;fill-opacity:1;fill-rule:evenodd;image-rendering:optimizeQuality;shape-rendering:geometricPrecision;text-rendering:geometricPrecision">
        <path
           style="opacity:1;fill:#2b2b2b;fill-opacity:1"
           fill="#82795b"
           d="m 415.5,80.5 c -2.667,0 -5.333,0 -8,0 0.237,1.291 -0.096,2.291 -1,3 0,-1.3333 0,-2.6667 0,-4 3.213,-0.31 6.213,0.0233 9,1 z"
           id="path414" />
      </g>
      <g
         id="g420"
         style="clip-rule:evenodd;fill:#2b2b2b;fill-opacity:1;fill-rule:evenodd;image-rendering:optimizeQuality;shape-rendering:geometricPrecision;text-rendering:geometricPrecision">
        <path
           style="opacity:1;fill:#2b2b2b;fill-opacity:1"
           fill="#363227"
           d="m 463.5,78.5 c 1,0 2,0 3,0 -1.333,6.6667 -2.667,13.3333 -4,20 -2.092,-0.0614 -3.592,-1.0614 -4.5,-3 -1.151,-5.2912 -2.985,-10.2912 -5.5,-15 1,-1.3333 2,-1.3333 3,0 4.647,15.8343 7.314,15.1677 8,-2 z"
           id="path418" />
      </g>
      <g
         id="g424"
         style="clip-rule:evenodd;fill:#d9d9d9;fill-opacity:1;fill-rule:evenodd;image-rendering:optimizeQuality;shape-rendering:geometricPrecision;text-rendering:geometricPrecision">
        <path
           style="opacity:1;fill:#d9d9d9;fill-opacity:1"
           fill="#e3b823"
           d="m 361.5,79.5 c 1.112,2.0994 1.779,4.4327 2,7 -1.333,0 -2.667,0 -4,0 0.667,-2.3333 1.333,-4.6667 2,-7 z"
           id="path422" />
      </g>
      <g
         id="g428"
         style="clip-rule:evenodd;fill:#2b2b2b;fill-opacity:1;fill-rule:evenodd;image-rendering:optimizeQuality;shape-rendering:geometricPrecision;text-rendering:geometricPrecision">
        <path
           style="opacity:1;fill:#2b2b2b;fill-opacity:1"
           fill="#0e0d0c"
           d="m 415.5,80.5 c 0.876,-0.1309 1.543,0.2025 2,1 -2.928,0.9841 -5.928,1.3174 -9,1 0,2 0,4 0,6 9.333,0.6667 9.333,1.3333 0,2 0,1 0,2 0,3 -0.802,1.4516 -1.302,3.1183 -1.5,5 -0.495,-1.9727 -0.662,-3.9727 -0.5,-6 0,-3 0,-6 0,-9 0.904,-0.709 1.237,-1.709 1,-3 2.667,0 5.333,0 8,0 z"
           id="path426" />
      </g>
      <g
         id="g432"
         style="clip-rule:evenodd;fill:#2b2b2b;fill-opacity:1;fill-rule:evenodd;image-rendering:optimizeQuality;shape-rendering:geometricPrecision;text-rendering:geometricPrecision">
        <path
           style="opacity:1;fill:#2b2b2b;fill-opacity:1"
           fill="#0e0d0c"
           d="m 419.5,80.5 c 1.318,2.7575 1.985,5.9242 2,9.5 -0.333,3.1667 -0.667,6.3333 -1,9.5 -0.996,-6.2985 -1.33,-12.6318 -1,-19 z"
           id="path430" />
      </g>
      <g
         id="g436"
         style="clip-rule:evenodd;fill:#2b2b2b;fill-opacity:1;fill-rule:evenodd;image-rendering:optimizeQuality;shape-rendering:geometricPrecision;text-rendering:geometricPrecision">
        <path
           style="opacity:1;fill:#2b2b2b;fill-opacity:1"
           fill="#282621"
           d="m 428.5,80.5 c 4.637,-1.0584 7.97,0.4416 10,4.5 -0.333,0.5 -0.667,1 -1,1.5 -2.816,-4.7357 -5.983,-5.069 -9.5,-1 -0.85,4.0355 -0.35,7.8688 1.5,11.5 1.667,0.6667 3.333,0.6667 5,0 3.515,-5.8522 4.348,-5.3522 2.5,1.5 -5.491,3.429 -9.491,2.095 -12,-4 -1.256,-5.3576 -0.089,-10.0243 3.5,-14 z"
           id="path434" />
      </g>
      <g
         id="g440"
         style="clip-rule:evenodd;fill:#d9d9d9;fill-opacity:1;fill-rule:evenodd;image-rendering:optimizeQuality;shape-rendering:geometricPrecision;text-rendering:geometricPrecision">
        <path
           style="opacity:1;fill:#d9d9d9;fill-opacity:1"
           fill="#e8bb16"
           d="m 387.5,80.5 c 5.301,-0.4839 7.634,1.8494 7,7 0.326,5.6739 -2.341,8.3405 -8,8 0.113,-5.018 0.447,-10.018 1,-15 z"
           id="path438" />
      </g>
      <g
         id="g444"
         style="clip-rule:evenodd;fill:#2b2b2b;fill-opacity:1;fill-rule:evenodd;image-rendering:optimizeQuality;shape-rendering:geometricPrecision;text-rendering:geometricPrecision">
        <path
           style="opacity:1;fill:#2b2b2b;fill-opacity:1"
           fill="#322f25"
           d="m 444.5,80.5 c 1.478,-0.262 2.811,0.0713 4,1 2.58,5.8227 4.58,11.8227 6,18 -1,0 -2,0 -3,0 0.079,-1.4305 -0.254,-2.7638 -1,-4 -2.243,-0.9742 -4.576,-1.3076 -7,-1 0.384,2.1648 -0.283,3.8315 -2,5 -0.333,-0.5 -0.667,-1 -1,-1.5 1.731,-5.757 3.065,-11.5904 4,-17.5 z"
           id="path442" />
      </g>
      <g
         id="g448"
         style="clip-rule:evenodd;fill:#d9d9d9;fill-opacity:1;fill-rule:evenodd;image-rendering:optimizeQuality;shape-rendering:geometricPrecision;text-rendering:geometricPrecision">
        <path
           style="opacity:1;fill:#d9d9d9;fill-opacity:1"
           fill="#eabc11"
           d="m 517.5,82.5 c 2.357,-0.1633 4.69,0.0034 7,0.5 0.979,4.5166 -1.021,6.35 -6,5.5 -0.017,-2.0648 -0.35,-4.0648 -1,-6 z"
           id="path446" />
      </g>
      <g
         id="g452"
         style="clip-rule:evenodd;fill:#f2f2f2;fill-opacity:1;fill-rule:evenodd;image-rendering:optimizeQuality;shape-rendering:geometricPrecision;text-rendering:geometricPrecision">
        <path
           style="opacity:1;fill:#f2f2f2;fill-opacity:1"
           fill="#af9a56"
           d="m 280.5,75.5 c -0.555,3.5122 0.112,6.5122 2,9 -0.709,0.904 -1.709,1.2373 -3,1 -0.313,-3.5419 0.021,-6.8752 1,-10 z"
           id="path450" />
      </g>
      <g
         id="g456"
         style="clip-rule:evenodd;fill:#2b2b2b;fill-opacity:1;fill-rule:evenodd;image-rendering:optimizeQuality;shape-rendering:geometricPrecision;text-rendering:geometricPrecision">
        <path
           style="opacity:1;fill:#2b2b2b;fill-opacity:1"
           fill="#807556"
           d="m 286.5,77.5 c -0.368,3.0331 0.298,5.6998 2,8 -1,0 -2,0 -3,0 -0.306,-2.8854 0.027,-5.5521 1,-8 z"
           id="path454" />
      </g>
      <g
         id="g460"
         style="clip-rule:evenodd;fill:#d9d9d9;fill-opacity:1;fill-rule:evenodd;image-rendering:optimizeQuality;shape-rendering:geometricPrecision;text-rendering:geometricPrecision">
        <path
           style="opacity:1;fill:#d9d9d9;fill-opacity:1"
           fill="#dfb528"
           d="m 446.5,85.5 c 1.543,1.2358 2.543,2.9024 3,5 -1.189,0.9287 -2.522,1.262 -4,1 -0.175,-2.1208 0.159,-4.1208 1,-6 z"
           id="path458" />
      </g>
      <g
         id="g464"
         style="clip-rule:evenodd;fill-rule:evenodd;image-rendering:optimizeQuality;shape-rendering:geometricPrecision;text-rendering:geometricPrecision">
        <path
           style="opacity:1"
           fill="#010101"
           d="m 647.5,104.5 c 12.876,55.509 23.209,111.509 31,168 -6.023,0.169 -12.023,0.669 -18,1.5 -4.287,0.81 -7.954,2.643 -11,5.5 -7.228,8.93 -6.228,17.097 3,24.5 3.015,1.379 6.181,2.212 9.5,2.5 7.133,-1.327 14.3,-2.327 21.5,-3 3.118,26.953 3.618,53.953 1.5,81 -10.601,70.014 -45.434,124.014 -104.5,162 -14.039,7.352 -28.039,14.685 -42,22 -13.185,5.43 -26.185,11.097 -39,17 -21.625,6.457 -36.792,20.123 -45.5,41 -5.509,12.687 -10.175,25.687 -14,39 -6.333,6.667 -12.667,6.667 -19,0 -5.236,-18.042 -12.236,-35.376 -21,-52 -10.261,-14.081 -23.761,-23.748 -40.5,-29 -32.66,-12.663 -63.66,-28.496 -93,-47.5 -59.781,-45.226 -90.448,-105.559 -92,-181 0.359,-17.553 1.359,-35.053 3,-52.5 7.463,1.163 14.963,2.163 22.5,3 13.131,-2.451 18.131,-10.117 15,-23 -4.186,-5.969 -10.019,-9.136 -17.5,-9.5 -5.334,-0.567 -10.667,-1.067 -16,-1.5 5.119,-30.712 10.452,-61.379 16,-92 5.096,-24.221 10.096,-48.554 15,-73 7.625,-4.043 15.625,-7.21 24,-9.5 21.873,-3.9393 43.873,-4.6059 66,-2 24.312,3.4254 48.645,6.759 73,10 28.269,3.622 56.603,4.289 85,2 32.801,-3.35 65.468,-7.683 98,-13 11.305,-1.2158 22.639,-2.0491 34,-2.5 19.25,0.0644 37.584,4.0644 55,12 z"
           id="path462" />
      </g>
      <g
         id="g468"
         style="clip-rule:evenodd;fill:#2b2b2b;fill-opacity:1;fill-rule:evenodd;image-rendering:optimizeQuality;shape-rendering:geometricPrecision;text-rendering:geometricPrecision">
        <path
           style="opacity:1;fill:#2b2b2b;fill-opacity:1"
           fill="#8c8059"
           d="m 370.5,90.5 c 0,1.6667 0,3.3333 0,5 1.291,-0.2373 2.291,0.096 3,1 -1.333,0 -2.667,0 -4,0 -0.295,-2.2354 0.039,-4.2354 1,-6 z"
           id="path466" />
      </g>
      <g
         id="g472"
         style="clip-rule:evenodd;fill:#2b2b2b;fill-opacity:1;fill-rule:evenodd;image-rendering:optimizeQuality;shape-rendering:geometricPrecision;text-rendering:geometricPrecision">
        <path
           style="opacity:1;fill:#2b2b2b;fill-opacity:1"
           fill="#7b7259"
           d="m 406.5,92.5 c -0.162,2.0273 0.005,4.0273 0.5,6 0.198,-1.8817 0.698,-3.5484 1.5,-5 0,2 0,4 0,6 -1,0 -2,0 -3,0 -0.302,-2.5593 0.032,-4.8926 1,-7 z"
           id="path470" />
      </g>
      <g
         id="g512"
         style="clip-rule:evenodd;fill-rule:evenodd;image-rendering:optimizeQuality;shape-rendering:geometricPrecision;text-rendering:geometricPrecision">
        <path
           style="opacity:1"
           fill="#5f708f"
           d="m 410.5,117.5 c -60.405,-0.329 -120.738,0.004 -181,1 29.826,-1.333 59.993,-2 90.5,-2 30.335,0 60.502,0.333 90.5,1 z"
           id="path510" />
      </g>
      <g
         id="g516"
         style="clip-rule:evenodd;fill:#b9b9b9;fill-opacity:1;fill-rule:evenodd;image-rendering:optimizeQuality;shape-rendering:geometricPrecision;text-rendering:geometricPrecision">
        <path
           style="opacity:1;fill:#b9b9b9;fill-opacity:1"
           fill="#2f70b2"
           d="m 410.5,117.5 c 0,24.667 0,49.333 0,74 -33.333,0 -66.667,0 -100,0 0,13 0,26 0,39 33.333,0 66.667,0 100,0 0,21 0,42 0,63 -54,0 -108,0 -162,0 -4.333,0 -8.667,0 -13,0 0.19,-22.135 -10.477,-35.635 -32,-40.5 7.96,-44.969 16.627,-89.802 26,-134.5 60.262,-0.996 120.595,-1.329 181,-1 z"
           id="path514" />
      </g>
      <g
         id="g520"
         style="clip-rule:evenodd;fill:#b9b9b9;fill-opacity:1;fill-rule:evenodd;image-rendering:optimizeQuality;shape-rendering:geometricPrecision;text-rendering:geometricPrecision">
        <path
           style="opacity:1;fill:#b9b9b9;fill-opacity:1"
           fill="#2f70b2"
           d="m 630.5,117.5 c 9.859,43.799 18.526,87.966 26,132.5 -0.059,1.436 -0.392,2.769 -1,4 -18.76,3.924 -28.76,15.424 -30,34.5 0.337,2.676 0.67,5.343 1,8 -0.904,-0.709 -1.237,-1.709 -1,-3 -4.333,0 -8.667,0 -13,0 -54.164,-0.999 -108.497,-1.332 -163,-1 0,-20.667 0,-41.333 0,-62 33.837,0.332 67.504,-0.002 101,-1 0,-12.333 0,-24.667 0,-37 -33.496,-0.998 -67.163,-1.332 -101,-1 0,-24.667 0,-49.333 0,-74 60.333,0 120.667,0 181,0 z"
           id="path518" />
      </g>
      <g
         id="g660"
         style="clip-rule:evenodd;fill-rule:evenodd;image-rendering:optimizeQuality;shape-rendering:geometricPrecision;text-rendering:geometricPrecision">
        <path
           style="opacity:1"
           fill="#5f6d88"
           d="m 630.5,117.5 c -60.333,0 -120.667,0 -181,0 0,24.667 0,49.333 0,74 33.837,-0.332 67.504,0.002 101,1 -34,0 -68,0 -102,0 0,-25.333 0,-50.667 0,-76 60.836,-0.332 121.502,0.001 182,1 z"
           id="path658" />
      </g>
      <g
         id="g724"
         style="clip-rule:evenodd;fill-rule:evenodd;image-rendering:optimizeQuality;shape-rendering:geometricPrecision;text-rendering:geometricPrecision">
        <path
           style="opacity:1"
           fill="#565c69"
           d="m 410.5,191.5 c -32.829,0.998 -65.829,1.332 -99,1 0,12.333 0,24.667 0,37 33.171,-0.332 66.171,0.002 99,1 -33.333,0 -66.667,0 -100,0 0,-13 0,-26 0,-39 33.333,0 66.667,0 100,0 z"
           id="path722" />
      </g>
      <g
         id="g728"
         style="clip-rule:evenodd;fill-rule:evenodd;image-rendering:optimizeQuality;shape-rendering:geometricPrecision;text-rendering:geometricPrecision">
        <path
           style="opacity:1"
           fill="#576279"
           d="m 550.5,229.5 c -33.496,0.998 -67.163,1.332 -101,1 0,20.667 0,41.333 0,62 54.503,-0.332 108.836,10e-4 163,1 -54.667,0 -109.333,0 -164,0 0,-21.333 0,-42.667 0,-64 34,0 68,0 102,0 z"
           id="path726" />
      </g>
      <g
         id="g824"
         style="clip-rule:evenodd;fill-rule:evenodd;image-rendering:optimizeQuality;shape-rendering:geometricPrecision;text-rendering:geometricPrecision">
        <path
           style="opacity:1"
           fill="#fdfdfd"
           d="m 235.5,293.5 c 4.333,0 8.667,0 13,0 0,12.333 0,24.667 0,37 54,0 108,0 162,0 0,42.333 0,84.667 0,127 -63,0 -126,0 -189,0 -23.424,-41.558 -32.424,-86.225 -27,-134 21.71,0.584 35.377,-9.416 41,-30 z"
           id="path822" />
      </g>
      <g
         id="g828"
         style="clip-rule:evenodd;fill-rule:evenodd;image-rendering:optimizeQuality;shape-rendering:geometricPrecision;text-rendering:geometricPrecision">
        <path
           style="opacity:1"
           fill="#fefefe"
           d="m 612.5,293.5 c 4.333,0 8.667,0 13,0 -0.237,1.291 0.096,2.291 1,3 5.961,18.323 18.627,27.323 38,27 0.667,2 1.333,4 2,6 4.67,45.63 -4.33,88.297 -27,128 -63.333,0 -126.667,0 -190,0 0,-42 0,-84 0,-126 54.503,0.332 108.836,-10e-4 163,-1 0,-12.333 0,-24.667 0,-37 z"
           id="path826" />
      </g>
      <g
         id="g888"
         style="clip-rule:evenodd;fill-rule:evenodd;image-rendering:optimizeQuality;shape-rendering:geometricPrecision;text-rendering:geometricPrecision">
        <path
           style="opacity:1"
           fill="#828385"
           d="m 664.5,323.5 c 0.06,-0.543 0.393,-0.876 1,-1 0.974,2.243 1.308,4.576 1,7 -0.667,-2 -1.333,-4 -2,-6 z"
           id="path886" />
      </g>
      <g
         id="g1064"
         style="clip-rule:evenodd;fill:#d9d9d9;fill-opacity:1;fill-rule:evenodd;image-rendering:optimizeQuality;shape-rendering:geometricPrecision;text-rendering:geometricPrecision">
        <path
           style="opacity:1;fill:#d9d9d9;fill-opacity:1"
           fill="#ecbd07"
           d="m 221.5,457.5 c 63,0 126,0 189,0 0.167,45.001 0,90.001 -0.5,135 -11.689,-10.762 -24.522,-19.928 -38.5,-27.5 -21.551,-10.63 -43.551,-20.297 -66,-29 -35.245,-18.412 -63.245,-44.579 -84,-78.5 z"
           id="path1062" />
      </g>
      <g
         id="g1068"
         style="clip-rule:evenodd;fill:#d9d9d9;fill-opacity:1;fill-rule:evenodd;image-rendering:optimizeQuality;shape-rendering:geometricPrecision;text-rendering:geometricPrecision">
        <path
           style="opacity:1;fill:#d9d9d9;fill-opacity:1"
           fill="#d2b354"
           d="m 448.5,457.5 c 0.333,0 0.667,0 1,0 63.333,0 126.667,0 190,0 0,0.667 -0.333,1 -1,1 -63,0 -126,0 -189,0 -0.332,45.17 10e-4,90.17 1,135 -0.283,0.789 -0.783,1.456 -1.5,2 -0.5,-45.999 -0.667,-91.999 -0.5,-138 z"
           id="path1066" />
      </g>
      <g
         id="g1072"
         style="clip-rule:evenodd;fill:#d9d9d9;fill-opacity:1;fill-rule:evenodd;stroke:#d9d9d9;stroke-opacity:1;image-rendering:optimizeQuality;shape-rendering:geometricPrecision;text-rendering:geometricPrecision">
        <path
           style="opacity:1;fill:#d9d9d9;fill-opacity:1;stroke:#d9d9d9;stroke-opacity:1"
           fill="#ecbd04"
           d="m 638.5,458.5 c -21.258,35.424 -50.591,61.924 -88,79.5 -23.291,8.985 -45.958,19.318 -68,31 -11.636,6.975 -22.302,15.142 -32,24.5 -0.999,-44.83 -1.332,-89.83 -1,-135 63,0 126,0 189,0 z"
           id="path1070" />
      </g>
      <path
         style="fill:#2b2b2b;fill-opacity:1;stroke:none;stroke-width:0.165812"
         d="m 251.60639,81.750587 c 0.12773,-5.347046 0.76699,-9.249074 2.35934,-14.401321 l 0.58182,-1.882548 0.77654,0.114629 c 0.92195,0.136094 1.72004,0.591894 2.18861,1.249949 0.37835,0.531338 2.26499,5.422121 4.4732,11.596003 1.53465,4.290684 1.582,4.573802 0.89233,5.335874 -0.38946,0.430357 -1.14163,0.397391 -1.46711,-0.0643 -0.426,-0.604267 -0.91648,-2.410572 -0.91648,-3.37515 v -0.894498 h -3.5608 -3.5608 l 0.0975,0.487532 c 0.23884,1.194169 -0.5676,3.791877 -1.52159,4.901344 l -0.42772,0.497435 z m 6.89851,-5.693975 c 0,-0.826578 -0.58139,-2.942055 -1.0852,-3.94865 -0.50007,-0.999133 -1.66984,-2.627431 -1.88755,-2.627431 -0.22043,0 -0.70191,2.911515 -1.07626,6.508104 l -0.0647,0.621794 h 2.05687 2.05686 z"
         id="path2563" />
      <path
         style="fill:#2b2b2b;fill-opacity:1;stroke:#2b2b2b;stroke-width:0.165812;stroke-opacity:1"
         d="m 266.5904,74.745048 -0.0393,-9.3269 -0.0873,8.870919 c -0.048,4.879005 -0.1058,8.758996 -0.12844,8.622201 -0.0226,-0.136794 -0.19325,-1.666406 -0.37912,-3.399137 -0.3537,-3.297117 -0.64353,-13.209261 -0.42094,-14.395769 l 0.11447,-0.610178 h 2.04341 c 3.26443,0 6.21319,0.636641 7.79177,1.682252 1.53477,1.016592 1.81607,1.764812 1.8299,4.867305 0.009,2.030487 -0.0171,2.209906 -0.45047,3.09241 -0.86364,1.758638 -2.37887,2.508994 -5.09461,2.522901 -0.95756,0.0049 -2.07679,-0.04582 -2.48717,-0.112716 l -0.74616,-0.121632 -2e-5,1.952242 c -2e-5,1.602851 -0.0678,2.148353 -0.37879,3.048018 -0.34891,1.009387 -1.23818,2.634985 -1.44146,2.634985 -0.0476,0 -0.10423,-4.197105 -0.12583,-9.326901 z m 7.50338,-1.426246 c 1.00892,-0.536141 1.67737,-1.907322 1.42331,-2.919592 -0.15219,-0.606377 -1.71875,-2.121855 -2.66949,-2.582438 -0.68035,-0.329597 -1.14877,-0.413013 -2.61153,-0.465057 l -1.78247,-0.06342 v 3.168763 3.168762 h 2.53121 c 2.14504,0 2.61936,-0.04684 3.10897,-0.307018 z"
         id="path2565" />
      <path
         style="fill:#2b2b2b;fill-opacity:1;stroke:#2b2b2b;stroke-width:0.165812;stroke-opacity:1"
         d="m 279.79364,85.437356 c -0.47745,-0.31633 -0.4016,-4.439409 0.13381,-7.274286 l 0.21496,-1.138113 0.0962,1.077776 0.0962,1.077775 0.058,-1.492304 c 0.0319,-0.820768 0.0725,-2.760763 0.0901,-4.311101 0.0308,-2.708256 0.28087,-4.861904 0.78831,-6.790153 l 0.21604,-0.820937 0.28188,2.230335 c 0.15503,1.226684 0.35855,3.013795 0.45227,3.971357 0.2412,2.464311 0.39557,11.269162 0.20612,11.756617 -0.14854,0.3822 -0.17627,0.361827 -0.67704,-0.497435 -0.28719,-0.492779 -0.52212,-0.821344 -0.52207,-0.730148 5e-5,0.0912 0.25534,0.57587 0.56732,1.077052 l 0.56724,0.911241 -0.3359,0.357548 c -0.18475,0.196652 -0.66127,0.439477 -1.05893,0.53961 -0.84569,0.212946 -0.93043,0.216927 -1.17458,0.05517 z m 1.25084,-3.788131 c -0.10223,-0.263438 -0.28493,-0.92667 -0.40598,-1.473848 -0.12106,-0.547178 -0.22604,-0.797537 -0.23329,-0.556353 -0.0146,0.485537 0.62881,2.705528 0.74922,2.585112 0.0418,-0.04176 -0.008,-0.291474 -0.10995,-0.554911 z"
         id="path2567" />
      <path
         style="fill:#a0a0a0;stroke:none;stroke-width:0.0414529"
         d="m 266.53063,82.964653 0.006,-1.471577 0.0271,1.27383 c 0.0239,1.123774 0.0356,1.283135 0.0986,1.352816 0.0681,0.07523 0.0665,0.08463 -0.033,0.197747 l -0.10443,0.118762 z"
         id="path2569" />
      <path
         style="fill:#a0a0a0;stroke:none;stroke-width:0.0414529"
         d="m 266.37918,83.563052 c -0.0661,-0.472786 -0.0668,-0.525363 -0.008,-0.569977 0.0465,-0.03507 0.0691,-0.138181 0.0789,-0.360045 0.008,-0.170993 0.0175,0.0855 0.022,0.569977 0.005,0.484481 0.002,0.880874 -0.006,0.880874 -0.008,0 -0.0471,-0.234373 -0.0872,-0.520829 z"
         id="path2571" />
    </g>
    <path
       style="fill:#a0a0a0;stroke:none;stroke-width:0.0414529"
       d=""
       id="path2573" />
    <path
       style="fill:#2b2b2b;fill-opacity:1;stroke:none;stroke-width:0.0414529"
       d=""
       id="path2575" />
  </g>
</svg>
