<?xml version="1.0" encoding="UTF-8" standalone="no"?>
<svg
   xmlns:dc="http://purl.org/dc/elements/1.1/"
   xmlns:cc="http://creativecommons.org/ns#"
   xmlns:rdf="http://www.w3.org/1999/02/22-rdf-syntax-ns#"
   xmlns:svg="http://www.w3.org/2000/svg"
   xmlns="http://www.w3.org/2000/svg"
   width="50"
   height="50"
   viewBox="0 0 13.229166 13.229167"
   version="1.1"
   id="svg124">
  <defs
     id="defs118" />
  <metadata
     id="metadata121">
    <rdf:RDF>
      <cc:Work
         rdf:about="">
        <dc:format>image/svg+xml</dc:format>
        <dc:type
           rdf:resource="http://purl.org/dc/dcmitype/StillImage" />
        <dc:title></dc:title>
      </cc:Work>
    </rdf:RDF>
  </metadata>
  <g
     id="g8"
     style="clip-rule:evenodd;fill-rule:evenodd;image-rendering:optimizeQuality;shape-rendering:geometricPrecision;text-rendering:geometricPrecision;fill:#d9d9d9;fill-opacity:1"
     transform="matrix(0.02031783,0,0,0.01951844,-5.4047306,0.81420106)">
    <path
       style="opacity:1;fill:#d9d9d9;fill-opacity:1"
       fill="#010101"
       d="m 689.5,26.5 c -0.166,5.3437 10e-4,10.6771 0.5,16 0.232,1.2375 0.732,2.2375 1.5,3 -0.239,1.9672 0.094,3.8005 1,5.5 34.74,2.9502 69.407,6.4502 104,10.5 4.769,1.389 9.769,2.0557 15,2 26.992,2.7216 53.992,5.3883 81,8 -0.506,14.1258 -1.84,28.1258 -4,42 -1.143,9.841 -2.143,19.841 -3,30 -0.923,3.564 -1.256,7.231 -1,11 -1.636,3.71 -2.302,7.71 -2,12 -3.667,36.667 -7.333,73.334 -11,110 -1.728,7.101 -2.728,14.434 -3,22 -3.328,31.979 -6.662,63.979 -10,96 -1.389,4.769 -2.056,9.769 -2,15 -6.329,57.939 -12.329,115.939 -18,174 -14.207,-0.697 -28.207,-2.03 -42,-4 0,-158.333 0,-316.667 0,-475 -140,0 -280,0 -420,0 0,147.667 0,295.333 0,443 -11.623,0.966 -23.289,1.633 -35,2 -2.217,-35.815 -4.551,-71.482 -7,-107 0.398,-8.568 -0.269,-16.901 -2,-25 -0.436,-9.736 -1.102,-19.403 -2,-29 0.107,-10.534 -0.56,-20.867 -2,-31 0.398,-8.568 -0.269,-16.901 -2,-25 -0.673,-15.506 -1.673,-30.839 -3,-46 0.08,-12.57 -0.92,-24.904 -3,-37 -0.9,-19.008 -1.9,-38.008 -3,-57 -0.32,-7.844 -0.987,-15.511 -2,-23 -1.554,-20.631 -2.887,-41.298 -4,-62 -0.254,-9.8912 -1.254,-19.5579 -3,-29 -0.542,-14.3396 -1.209,-28.6729 -2,-43 24.689,-0.9485 49.356,-2.2819 74,-4 10.931,0.3016 21.598,-0.6984 32,-3 13.335,-0.635 26.669,-1.3017 40,-2 12.513,-0.6098 24.846,-1.6098 37,-3 23.689,-1.4454 47.356,-3.112 71,-5 7.579,0.4056 14.912,-0.2611 22,-2 21.16,-1.2451 42.16,-2.5784 63,-4 7.579,0.4056 14.912,-0.2611 22,-2 6.996,-0.3936 13.996,-0.72692 21,-1 0.407,5.6613 0.74,11.328 1,17 z"
       id="path6" />
  </g>
  <g
     id="g40"
     style="clip-rule:evenodd;fill-rule:evenodd;image-rendering:optimizeQuality;shape-rendering:geometricPrecision;text-rendering:geometricPrecision"
     transform="matrix(0.02031783,0,0,0.01951844,-5.4047306,0.81420106)">
    <path
       style="opacity:1"
       fill="#bababa"
       d="m 796.5,579.5 c -1,-157.832 -1.333,-315.832 -1,-474 -139.333,0 -278.667,0 -418,0 0.333,147.501 0,294.834 -1,442 0,-147.667 0,-295.333 0,-443 140,0 280,0 420,0 0,158.333 0,316.667 0,475 z"
       id="path38" />
  </g>
  <g
     id="g48"
     style="clip-rule:evenodd;fill-rule:evenodd;image-rendering:optimizeQuality;shape-rendering:geometricPrecision;text-rendering:geometricPrecision;fill:#d9d9d9;fill-opacity:1"
     transform="matrix(0.02031783,0,0,0.01951844,-5.4047306,0.81420106)">
    <path
       style="opacity:1;fill:#d9d9d9;fill-opacity:1"
       fill="#010101"
       d="m 412.5,140.5 c 116,0 232,0 348,0 0,159.667 0,319.333 0,479 -116,0 -232,0 -348,0 0,-159.667 0,-319.333 0,-479 z"
       id="path46" />
  </g>
  <g
     id="g60"
     style="clip-rule:evenodd;fill-rule:evenodd;image-rendering:optimizeQuality;shape-rendering:geometricPrecision;text-rendering:geometricPrecision;fill:#2b2b2b;fill-opacity:1"
     transform="matrix(0.02031783,0,0,0.01951844,-5.4047306,0.81420106)">
    <path
       style="opacity:1;fill:#2b2b2b;fill-opacity:1"
       fill="#fbfbfb"
       d="m 543.5,223.5 c 2.015,1.424 4.348,2.09 7,2 9.819,3.506 18.319,9.173 25.5,17 0.667,1 0.667,2 0,3 -7.351,6.852 -14.851,13.519 -22.5,20 -4.399,-5.186 -9.733,-8.853 -16,-11 -2.686,-1.491 -5.686,-2.157 -9,-2 -2.196,0.005 -4.196,0.338 -6,1 -2.925,-0.04 -5.591,0.793 -8,2.5 -5.182,3.662 -8.516,8.495 -10,14.5 -0.617,0.111 -1.117,0.444 -1.5,1 -0.817,5.516 -0.651,10.85 0.5,16 5.759,19.711 18.426,25.878 38,18.5 4.462,-2.797 8.628,-5.964 12.5,-9.5 6.869,6.517 14.035,12.684 21.5,18.5 1.017,1.049 1.184,2.216 0.5,3.5 -10.385,12.702 -23.885,19.535 -40.5,20.5 -27.67,3.235 -49.17,-6.598 -64.5,-29.5 -14.302,-31.967 -7.469,-58.134 20.5,-78.5 16.289,-8.402 33.622,-10.902 52,-7.5 z"
       id="path58" />
  </g>
  <g
     id="g64"
     style="clip-rule:evenodd;fill-rule:evenodd;image-rendering:optimizeQuality;shape-rendering:geometricPrecision;text-rendering:geometricPrecision;fill:#2b2b2b;fill-opacity:1;stroke:none;stroke-opacity:1"
     transform="matrix(0.02031783,0,0,0.01951844,-5.4047306,0.81420106)">
    <path
       style="opacity:1;fill:#2b2b2b;fill-opacity:1;stroke:none;stroke-opacity:1"
       fill="#676767"
       d="m 543.5,223.5 c 2.652,-0.09 4.985,0.576 7,2 -2.652,0.09 -4.985,-0.576 -7,-2 z"
       id="path62" />
  </g>
  <g
     id="g80"
     style="clip-rule:evenodd;fill-rule:evenodd;image-rendering:optimizeQuality;shape-rendering:geometricPrecision;text-rendering:geometricPrecision;fill:#2b2b2b;fill-opacity:1"
     transform="matrix(0.02031783,0,0,0.01951844,-5.4047306,0.81420106)">
    <path
       style="opacity:1;fill:#2b2b2b;fill-opacity:1"
       fill="#fbfbfb"
       d="m 617.5,225.5 c 8.725,21.334 17.559,42.667 26.5,64 8.739,-21.054 17.573,-42.054 26.5,-63 12.431,-1.32 24.765,-1.32 37,0 -14.584,37.373 -29.918,74.373 -46,111 -12.667,0 -25.333,0 -38,0 -14.783,-36.9 -30.117,-73.566 -46,-110 12.958,-1.981 26.291,-2.648 40,-2 z"
       id="path78" />
  </g>
  <g
     id="g84"
     style="clip-rule:evenodd;fill-rule:evenodd;image-rendering:optimizeQuality;shape-rendering:geometricPrecision;text-rendering:geometricPrecision;fill:#2b2b2b;fill-opacity:1"
     transform="matrix(0.02031783,0,0,0.01951844,-5.4047306,0.81420106)">
    <path
       style="opacity:1;fill:#2b2b2b;fill-opacity:1"
       fill="#585858"
       d="m 522.5,253.5 c 1.804,-0.662 3.804,-0.995 6,-1 3.314,-0.157 6.314,0.509 9,2 -4.963,-0.754 -9.963,-1.087 -15,-1 z"
       id="path82" />
  </g>
  <g
     id="g92"
     style="clip-rule:evenodd;fill-rule:evenodd;image-rendering:optimizeQuality;shape-rendering:geometricPrecision;text-rendering:geometricPrecision;fill:#2b2b2b;fill-opacity:1"
     transform="matrix(0.02031783,0,0,0.01951844,-5.4047306,0.81420106)">
    <path
       style="opacity:1;fill:#2b2b2b;fill-opacity:1"
       fill="#5f5f5f"
       d="m 504.5,270.5 c -0.907,5.606 -1.24,11.273 -1,17 -1.151,-5.15 -1.317,-10.484 -0.5,-16 0.383,-0.556 0.883,-0.889 1.5,-1 z"
       id="path90" />
  </g>
  <g
     id="g108"
     style="clip-rule:evenodd;fill-rule:evenodd;image-rendering:optimizeQuality;shape-rendering:geometricPrecision;text-rendering:geometricPrecision;fill:#2b2b2b;fill-opacity:1"
     transform="matrix(0.02031783,0,0,0.01951844,-5.4047306,0.81420106)">
    <path
       style="opacity:1;fill:#2b2b2b;fill-opacity:1"
       fill="#f9f9f9"
       d="m 469.5,380.5 c 77.667,-0.167 155.334,0 233,0.5 0.988,11.753 1.321,23.586 1,35.5 -78,0 -156,0 -234,0 0,-12 0,-24 0,-36 z"
       id="path106" />
  </g>
  <g
     id="g120"
     style="clip-rule:evenodd;fill-rule:evenodd;image-rendering:optimizeQuality;shape-rendering:geometricPrecision;text-rendering:geometricPrecision"
     transform="matrix(0.02031783,0,0,0.01951844,-5.4047306,0.81420106)">
    <path
       style="opacity:1"
       fill="#afafaf"
       d="m 470.5,444.5 c 0,11.667 0,23.333 0,35 77.333,0 154.667,0 232,0 0,-11.667 0,-23.333 0,-35 0.995,11.822 1.328,23.822 1,36 -78,0 -156,0 -234,0 -0.328,-12.178 0.005,-24.178 1,-36 z"
       id="path118" />
  </g>
  <g
     id="g124"
     style="clip-rule:evenodd;fill-rule:evenodd;image-rendering:optimizeQuality;shape-rendering:geometricPrecision;text-rendering:geometricPrecision;fill:#2b2b2b;fill-opacity:1"
     transform="matrix(0.02031783,0,0,0.01951844,-5.4047306,0.81420106)">
    <path
       style="opacity:1;fill:#2b2b2b;fill-opacity:1"
       fill="#fdfdfd"
       d="m 470.5,444.5 c 77.333,0 154.667,0 232,0 0,11.667 0,23.333 0,35 -77.333,0 -154.667,0 -232,0 0,-11.667 0,-23.333 0,-35 z"
       id="path122" />
  </g>
  <g
     id="g128"
     style="clip-rule:evenodd;fill-rule:evenodd;image-rendering:optimizeQuality;shape-rendering:geometricPrecision;text-rendering:geometricPrecision"
     transform="matrix(0.02031783,0,0,0.01951844,-5.4047306,0.81420106)">
    <path
       style="opacity:1"
       fill="#c8c8c8"
       d="m 469.5,508.5 c 78,0 156,0 234,0 0.321,11.914 -0.012,23.747 -1,35.5 -77.666,0.5 -155.333,0.667 -233,0.5 0,-12 0,-24 0,-36 z"
       id="path126" />
  </g>
  <g
     id="g132"
     style="clip-rule:evenodd;fill-rule:evenodd;image-rendering:optimizeQuality;shape-rendering:geometricPrecision;text-rendering:geometricPrecision;fill:#2b2b2b;fill-opacity:1"
     transform="matrix(0.02031783,0,0,0.01951844,-5.4047306,0.81420106)">
    <path
       style="opacity:1;fill:#2b2b2b;fill-opacity:1"
       fill="#fefefe"
       d="m 470.5,509.5 c 77.333,0 154.667,0 232,0 0,11 0,22 0,33 -77.333,0 -154.667,0 -232,0 0,-11 0,-22 0,-33 z"
       id="path130" />
  </g>
</svg>
