<?xml version="1.0" encoding="UTF-8" standalone="no"?>
<svg
   xmlns:dc="http://purl.org/dc/elements/1.1/"
   xmlns:cc="http://creativecommons.org/ns#"
   xmlns:rdf="http://www.w3.org/1999/02/22-rdf-syntax-ns#"
   xmlns:svg="http://www.w3.org/2000/svg"
   xmlns="http://www.w3.org/2000/svg"
   xmlns:sodipodi="http://sodipodi.sourceforge.net/DTD/sodipodi-0.dtd"
   xmlns:inkscape="http://www.inkscape.org/namespaces/inkscape"
   version="1.1"
   width="1024px"
   height="1024px"
   style="shape-rendering:geometricPrecision; text-rendering:geometricPrecision; image-rendering:optimizeQuality; fill-rule:evenodd; clip-rule:evenodd"
   id="svg14"
   sodipodi:docname="hamburguesa-#d8bc3a.svg"
   inkscape:version="1.0.2-2 (e86c870879, 2021-01-15)">
  <metadata
     id="metadata20">
    <rdf:RDF>
      <cc:Work
         rdf:about="">
        <dc:format>image/svg+xml</dc:format>
        <dc:type
           rdf:resource="http://purl.org/dc/dcmitype/StillImage" />
        <dc:title></dc:title>
      </cc:Work>
    </rdf:RDF>
  </metadata>
  <defs
     id="defs18" />
  <sodipodi:namedview
     pagecolor="#ffffff"
     bordercolor="#666666"
     borderopacity="1"
     objecttolerance="10"
     gridtolerance="10"
     guidetolerance="10"
     inkscape:pageopacity="0"
     inkscape:pageshadow="2"
     inkscape:window-width="1304"
     inkscape:window-height="746"
     id="namedview16"
     showgrid="false"
     inkscape:zoom="0.56445312"
     inkscape:cx="512"
     inkscape:cy="441.13495"
     inkscape:window-x="-8"
     inkscape:window-y="-8"
     inkscape:window-maximized="1"
     inkscape:current-layer="svg14" />
  <g
     id="g4"
     style="fill:#d8bc3a;fill-opacity:1">
    <path
       style="opacity:0.742;fill:#d8bc3a;fill-opacity:1"
       fill="#000000"
       d="M 247.5,212.5 C 423.5,212.333 599.5,212.5 775.5,213C 794.333,217.167 805.833,228.667 810,247.5C 810.667,266.833 810.667,286.167 810,305.5C 805.273,325.561 792.773,337.394 772.5,341C 598.5,341.667 424.5,341.667 250.5,341C 230.227,337.394 217.727,325.561 213,305.5C 212.333,286.167 212.333,266.833 213,247.5C 217.348,228.653 228.848,216.986 247.5,212.5 Z"
       id="path2" />
  </g>
  <g
     id="g8">
    <path
       style="opacity:0.742;fill:#d8bc3a;fill-opacity:1"
       fill="#000000"
       d="M 250.5,425.5 C 426.529,425.008 602.529,425.508 778.5,427C 795.628,432.461 806.128,443.961 810,461.5C 810.667,480.833 810.667,500.167 810,519.5C 805.714,538.786 793.881,550.286 774.5,554C 599.167,554.667 423.833,554.667 248.5,554C 229.119,550.286 217.286,538.786 213,519.5C 212.333,500.167 212.333,480.833 213,461.5C 217.877,441.455 230.377,429.455 250.5,425.5 Z"
       id="path6" />
  </g>
  <g
     id="g12">
    <path
       style="opacity:0.747;fill:#d8bc3a;fill-opacity:1"
       fill="#000000"
       d="M 245.5,639.5 C 422.834,639.333 600.167,639.5 777.5,640C 795.194,645.028 806.027,656.528 810,674.5C 810.667,693.833 810.667,713.167 810,732.5C 805.936,750.897 794.77,762.397 776.5,767C 599.833,767.667 423.167,767.667 246.5,767C 228.23,762.397 217.064,750.897 213,732.5C 212.333,713.167 212.333,693.833 213,674.5C 217.155,656.515 227.989,644.849 245.5,639.5 Z"
       id="path10" />
  </g>
</svg>
