<?xml version="1.0" encoding="UTF-8" standalone="no"?>
<svg
   xmlns:dc="http://purl.org/dc/elements/1.1/"
   xmlns:cc="http://creativecommons.org/ns#"
   xmlns:rdf="http://www.w3.org/1999/02/22-rdf-syntax-ns#"
   xmlns:svg="http://www.w3.org/2000/svg"
   xmlns="http://www.w3.org/2000/svg"
   version="1.1"
   width="50"
   height="50"
   style="clip-rule:evenodd;fill-rule:evenodd;image-rendering:optimizeQuality;shape-rendering:geometricPrecision;text-rendering:geometricPrecision"
   id="svg26">
  <metadata
     id="metadata32">
    <rdf:RDF>
      <cc:Work
         rdf:about="">
        <dc:format>image/svg+xml</dc:format>
        <dc:type
           rdf:resource="http://purl.org/dc/dcmitype/StillImage" />
        <dc:title></dc:title>
      </cc:Work>
    </rdf:RDF>
  </metadata>
  <defs
     id="defs30" />
  <g
     id="g4"
     style="fill:#d9d9d9;fill-opacity:1"
     transform="matrix(0.08789062,0,0,0.08789062,2.8872289,4.170811)">
    <path
       style="opacity:1;fill:#d9d9d9;fill-opacity:1"
       fill="#0277b5"
       d="m 28.5,-0.5 c 151.333,0 302.667,0 454,0 14.232,4.56453 23.898,13.8979 29,28 0,152 0,304 0,456 -5.102,14.102 -14.768,23.435 -29,28 -151.333,0 -302.667,0 -454,0 -14.5622,-4.228 -24.2289,-13.562 -29,-28 0,-152 0,-304 0,-456 4.7711,-14.4383 14.4378,-23.77163 29,-28 z"
       id="path2" />
  </g>
  <g
     id="g8"
     style="fill:#2b2b2b;fill-opacity:1"
     transform="matrix(0.08789062,0,0,0.08789062,2.8872289,4.170811)">
    <path
       style="opacity:1;fill:#2b2b2b;fill-opacity:1"
       fill="#fdfefe"
       d="m 102.5,70.5 c 26.384,-3.238 44.217,7.4287 53.5,32 3.575,17.874 -1.259,33.041 -14.5,45.5 -16.73,11.357 -34.063,12.357 -52,3 C 73.6685,139.527 67.1685,124.027 70,104.5 75.2843,87.7186 86.1176,76.3853 102.5,70.5 Z"
       id="path6" />
  </g>
  <g
     id="g12"
     style="fill:#2b2b2b;fill-opacity:1"
     transform="matrix(0.08789062,0,0,0.08789062,2.8872289,4.170811)">
    <path
       style="opacity:1;fill:#2b2b2b;fill-opacity:1"
       fill="#fefefe"
       d="m 275.5,301.5 c -0.999,44.497 -1.332,89.164 -1,134 -25,0 -50,0 -75,0 0,-81.333 0,-162.667 0,-244 24,0 48,0 72,0 -0.332,11.02 10e-4,22.02 1,33 0.607,-0.124 0.94,-0.457 1,-1 13.731,-21.517 33.398,-34.017 59,-37.5 63.983,-5.68 98.15,23.487 102.5,87.5 0.5,53.999 0.667,107.999 0.5,162 -25,0 -50,0 -75,0 0.167,-45.668 0,-91.335 -0.5,-137 -1.752,-38.454 -21.252,-52.954 -58.5,-43.5 -12.556,5.56 -20.389,15.06 -23.5,28.5 -1.441,5.919 -2.274,11.919 -2.5,18 z"
       id="path10" />
  </g>
  <g
     id="g16"
     style="fill:#2b2b2b;fill-opacity:1"
     transform="matrix(0.08789062,0,0,0.08789062,2.8872289,4.170811)">
    <path
       style="opacity:1;fill:#2b2b2b;fill-opacity:1"
       fill="#fefffe"
       d="m 75.5,191.5 c 25.333,0 50.667,0 76,0 0,81.333 0,162.667 0,244 -25.333,0 -50.667,0 -76,0 0,-81.333 0,-162.667 0,-244 z"
       id="path14" />
  </g>
  <g
     id="g20"
     transform="matrix(0.08789062,0,0,0.08789062,2.8872289,4.170811)">
    <path
       style="opacity:1"
       fill="#56a4cd"
       d="m 271.5,191.5 c 0.667,10.667 1.333,21.333 2,32 -0.06,0.543 -0.393,0.876 -1,1 -0.999,-10.98 -1.332,-21.98 -1,-33 z"
       id="path18" />
  </g>
  <g
     id="g24"
     transform="matrix(0.08789062,0,0,0.08789062,2.8872289,4.170811)">
    <path
       style="opacity:1"
       fill="#56a1cc"
       d="m 275.5,301.5 c 0,45 0,90 0,135 -25.505,0.331 -50.839,-0.002 -76,-1 25,0 50,0 75,0 -0.332,-44.836 10e-4,-89.503 1,-134 z"
       id="path22" />
  </g>
</svg>
