<?xml version="1.0" encoding="UTF-8" standalone="no"?>
<svg
   xmlns:dc="http://purl.org/dc/elements/1.1/"
   xmlns:cc="http://creativecommons.org/ns#"
   xmlns:rdf="http://www.w3.org/1999/02/22-rdf-syntax-ns#"
   xmlns:svg="http://www.w3.org/2000/svg"
   xmlns="http://www.w3.org/2000/svg"
   width="50"
   height="50"
   viewBox="0 0 13.229166 13.229167"
   version="1.1"
   id="svg124">
  <defs
     id="defs118" />
  <metadata
     id="metadata121">
    <rdf:RDF>
      <cc:Work
         rdf:about="">
        <dc:format>image/svg+xml</dc:format>
        <dc:type
           rdf:resource="http://purl.org/dc/dcmitype/StillImage" />
        <dc:title></dc:title>
      </cc:Work>
    </rdf:RDF>
  </metadata>
  <g
     id="g4"
     style="clip-rule:evenodd;fill-rule:evenodd;image-rendering:optimizeQuality;shape-rendering:geometricPrecision;text-rendering:geometricPrecision;fill:#d9d9d9;fill-opacity:1"
     transform="matrix(0.00559241,0,0,0.00761269,0.68563101,0.685374)">
    <path
       style="opacity:0.997;fill:#d9d9d9;fill-opacity:1"
       fill="#5ea9dd"
       d="m 1454.5,-0.5 c 14.33,0 28.67,0 43,0 92.93,6.36456 178.26,35.1979 256,86.5 15.54,10.8896 31.04,21.723 46.5,32.5 95.23,-15.575 185.06,-46.5749 269.5,-93 0.33,0.3333 0.67,0.6667 1,1 -14.38,43.1137 -36.21,81.78 -65.5,116 -34.07,37.755 -72.57,69.922 -115.5,96.5 60.86,-4.305 120.53,-15.305 179,-33 20.44,-6.204 40.78,-12.704 61,-19.5 0,0.667 0,1.333 0,2 -55.96,68.423 -119.96,127.923 -192,178.5 -7.87,5.364 -15.87,10.53 -24,15.5 -1.22,161.271 -32.72,316.271 -94.5,465 -94.73,214.72 -240.56,385.89 -437.5,513.5 -202.73,127.53 -424.061,195.03 -664,202.5 -25.333,0 -50.667,0 -76,0 -228.075,-8.25 -441.742,-67.92 -641,-179 90.4214,5.87 180.755,2.37 271,-10.5 125.661,-17.99 241.994,-60.66 349,-128 9.841,-6.42 19.507,-13.09 29,-20 -59.963,-5.49 -117.963,-19.16 -174,-41 -87.209,-36.88 -153.042,-97.05 -197.5,-180.5 -9.193,-18.216 -17.693,-36.716 -25.5,-55.5 14.91,2.781 29.91,5.447 45,8 49.666,7.592 97.999,2.592 145,-15 -83.34,-14.842 -156.34,-50.175 -219,-106 -79.483,-77.886 -119.817,-172.72 -121,-284.5 62.898,27.308 128.565,43.141 197,47.5 C 248.201,563.37 203.701,520.537 166,470.5 100.998,379.522 84.3311,280.189 116,172.5 c 10.634,-35.571 24.967,-69.571 43,-102 168.326,182.644 373.493,305.144 615.5,367.5 93.631,24.226 188.631,40.393 285,48.5 -26.84,-85.118 -20.67,-167.785 18.5,-248 38.52,-74.211 93.69,-132.711 165.5,-175.5 65.32,-38.077 135.66,-59.24371 211,-63.5 z"
       id="path2" />
  </g>
</svg>
