<!--?xml version="1.0" standalone="no"?-->
              <svg id="sw-js-blob-svg" viewBox="0 0 100 100" xmlns="http://www.w3.org/2000/svg" version="1.1">
                    <defs> 
                        <linearGradient id="sw-gradient" x1="0" x2="1" y1="1" y2="0">
                            <stop id="stop1" stop-color="rgba(43, 43, 43, 1)" offset="0%"></stop>
                            <stop id="stop2" stop-color="rgba(217, 217, 217, 1)" offset="100%"></stop>
                        </linearGradient>
                    </defs>
                <path fill="url(#sw-gradient)" d="M17.4,-32.1C20.2,-28.4,18.8,-19.2,17.8,-12.9C16.8,-6.7,16.3,-3.3,18.1,1C19.9,5.4,24.1,10.9,23.7,14.9C23.4,18.9,18.6,21.4,13.9,24.3C9.2,27.1,4.6,30.3,0.6,29.3C-3.5,28.3,-7,23.3,-13.4,21.4C-19.8,19.5,-29.1,20.9,-31.6,17.8C-34,14.8,-29.6,7.4,-30.1,-0.3C-30.6,-8,-36.1,-16,-33.9,-19.5C-31.7,-23,-21.9,-22,-15,-23.4C-8.1,-24.8,-4,-28.6,1.6,-31.4C7.2,-34.1,14.5,-35.9,17.4,-32.1Z" width="100%" height="100%" transform="translate(50 50)" stroke-width="0" style="transition: all 0.3s ease 0s;"></path>
              </svg>