<!--?xml version="1.0" standalone="no"?-->
              <svg id="sw-js-blob-svg" viewBox="0 0 100 100" xmlns="http://www.w3.org/2000/svg" version="1.1">
                    <defs> 
                        <linearGradient id="sw-gradient" x1="0" x2="1" y1="1" y2="0">
                            <stop id="stop1" stop-color="rgba(43, 43, 43, 1)" offset="0%"></stop>
                            <stop id="stop2" stop-color="rgba(217, 217, 217, 1)" offset="100%"></stop>
                        </linearGradient>
                    </defs>
                <path fill="url(#sw-gradient)" d="M21.2,-30.8C26.5,-25.3,29.2,-17.8,31.5,-10.3C33.9,-2.8,36,4.8,34.6,12C33.3,19.2,28.6,26,22.3,31.9C15.9,37.7,8,42.5,0.3,42C-7.3,41.6,-14.6,35.9,-21.9,30.4C-29.2,24.9,-36.5,19.5,-39,12.5C-41.6,5.4,-39.6,-3.4,-35.3,-9.9C-31,-16.4,-24.6,-20.7,-18.3,-25.9C-12.1,-31,-6,-37.1,0.9,-38.4C7.9,-39.7,15.9,-36.2,21.2,-30.8Z" width="100%" height="100%" transform="translate(50 50)" stroke-width="0" style="transition: all 0.3s ease 0s;" stroke="url(#sw-gradient)"></path>
              </svg>