<?xml version="1.0" encoding="UTF-8" standalone="no"?>
<svg
   xmlns:dc="http://purl.org/dc/elements/1.1/"
   xmlns:cc="http://creativecommons.org/ns#"
   xmlns:rdf="http://www.w3.org/1999/02/22-rdf-syntax-ns#"
   xmlns:svg="http://www.w3.org/2000/svg"
   xmlns="http://www.w3.org/2000/svg"
   xmlns:sodipodi="http://sodipodi.sourceforge.net/DTD/sodipodi-0.dtd"
   xmlns:inkscape="http://www.inkscape.org/namespaces/inkscape"
   id="sw-js-blob-svg"
   viewBox="0 0 100 100"
   version="1.1"
   sodipodi:docname="blob_02.svg"
   inkscape:version="1.0.2-2 (e86c870879, 2021-01-15)">
  <metadata
     id="metadata12">
    <rdf:RDF>
      <cc:Work
         rdf:about="">
        <dc:format>image/svg+xml</dc:format>
        <dc:type
           rdf:resource="http://purl.org/dc/dcmitype/StillImage" />
      </cc:Work>
    </rdf:RDF>
  </metadata>
  <sodipodi:namedview
     pagecolor="#ffffff"
     bordercolor="#666666"
     borderopacity="1"
     objecttolerance="10"
     gridtolerance="10"
     guidetolerance="10"
     inkscape:pageopacity="0"
     inkscape:pageshadow="2"
     inkscape:window-width="1304"
     inkscape:window-height="746"
     id="namedview10"
     showgrid="false"
     inkscape:zoom="3.7900923"
     inkscape:cx="55.906735"
     inkscape:cy="58.793223"
     inkscape:window-x="-8"
     inkscape:window-y="-8"
     inkscape:window-maximized="1"
     inkscape:current-layer="sw-js-blob-svg"
     inkscape:document-rotation="0" />
  <defs
     id="defs5">
    <linearGradient
       id="sw-gradient"
       x1="-36.041333"
       x2="24.846378"
       y1="28.158388"
       y2="-32.729322"
       gradientTransform="matrix(1.5865157,0,0,1.5758558,59.289295,54.3744)"
       gradientUnits="userSpaceOnUse">
      <stop
         id="stop1"
         stop-color="rgba(43, 43, 43, 1)"
         offset="0%" />
      <stop
         id="stop2"
         stop-color="rgba(217, 217, 217, 1)"
         offset="100%" />
    </linearGradient>
  </defs>
  <path
     fill="url(#sw-gradient)"
     d="m 88.19739,6.0690033 c 4.651877,5.5679117 2.325937,19.4124477 0.664553,28.8929447 -1.661385,9.330014 -2.492076,14.446474 0.498416,20.917289 2.990493,6.6213 9.968307,14.897924 9.303754,20.917288 -0.498415,6.019364 -8.473061,9.781467 -16.28157,14.145504 -7.808509,4.213555 -15.450878,9.029046 -22.096418,7.524205 C 53.474448,96.961393 47.659601,89.437188 37.026738,86.577992 26.393876,83.718793 10.942998,85.825571 6.789536,81.160563 2.8022119,76.64604 10.112306,65.510218 9.2816133,53.922945 8.4509208,42.335669 -0.68669572,30.296942 2.9683512,25.029998 6.6233967,19.763056 22.904967,21.267896 34.368522,19.161119 45.832078,17.054341 52.643756,11.335946 61.94751,7.1223918 71.251264,3.0593214 83.379373,0.35060784 88.19739,6.0690033 Z"
     width="100%"
     height="100%"
     stroke-width="0"
     style="fill:url(#sw-gradient)"
     id="path7" />
</svg>
