<?xml version="1.0" standalone="no"?>
<svg xmlns:xlink="http://www.w3.org/1999/xlink" id="wave" style="transform:rotate(180deg); transition: 0.3s" viewBox="0 0 1440 380" version="1.1" xmlns="http://www.w3.org/2000/svg"><defs><linearGradient id="sw-gradient-0" x1="0" x2="0" y1="1" y2="0"><stop stop-color="rgba(43, 43, 43, 1)" offset="0%"/><stop stop-color="rgba(217, 217, 217, 1)" offset="100%"/></linearGradient></defs><path style="transform:translate(0, 0px); opacity:1" fill="url(#sw-gradient-0)" d="M0,342L48,291.3C96,241,192,139,288,82.3C384,25,480,13,576,12.7C672,13,768,25,864,44.3C960,63,1056,89,1152,114C1248,139,1344,165,1440,152C1536,139,1632,89,1728,69.7C1824,51,1920,63,2016,107.7C2112,152,2208,228,2304,240.7C2400,253,2496,203,2592,152C2688,101,2784,51,2880,57C2976,63,3072,127,3168,177.3C3264,228,3360,266,3456,253.3C3552,241,3648,177,3744,152C3840,127,3936,139,4032,164.7C4128,190,4224,228,4320,202.7C4416,177,4512,89,4608,76C4704,63,4800,127,4896,183.7C4992,241,5088,291,5184,316.7C5280,342,5376,342,5472,285C5568,228,5664,114,5760,88.7C5856,63,5952,127,6048,139.3C6144,152,6240,114,6336,95C6432,76,6528,76,6624,69.7C6720,63,6816,51,6864,44.3L6912,38L6912,380L6864,380C6816,380,6720,380,6624,380C6528,380,6432,380,6336,380C6240,380,6144,380,6048,380C5952,380,5856,380,5760,380C5664,380,5568,380,5472,380C5376,380,5280,380,5184,380C5088,380,4992,380,4896,380C4800,380,4704,380,4608,380C4512,380,4416,380,4320,380C4224,380,4128,380,4032,380C3936,380,3840,380,3744,380C3648,380,3552,380,3456,380C3360,380,3264,380,3168,380C3072,380,2976,380,2880,380C2784,380,2688,380,2592,380C2496,380,2400,380,2304,380C2208,380,2112,380,2016,380C1920,380,1824,380,1728,380C1632,380,1536,380,1440,380C1344,380,1248,380,1152,380C1056,380,960,380,864,380C768,380,672,380,576,380C480,380,384,380,288,380C192,380,96,380,48,380L0,380Z"/></svg>